<?xml version="1.0" encoding="UTF-8"?><svg version="1.1" xmlns="http://www.w3.org/2000/svg" xmlns:xlink="http://www.w3.org/1999/xlink" viewBox="0 0 1600 1200" width="1600" height="1200" x="0px" y="0px">
              
              <!-- ITEM 0 -->
<g transform="translate(366.0 123.0) scale(2.775958536820513 2.7730668075579206) rotate(0.0 150.3985 171.2905)">
<g transform="translate(-0.0 -0.0)">

<g>
	<path style="fill:#EAE2C2;" d="M276.531,98.173l17-4.92c2.23-0.65,2.53-3.09,1.25-4.73c-13.809-17.579-33.309-29.799-55.15-34.56   c3.718-2.976,7.594-5.75,11.61-8.31c1.92-1.21,1.83-4.67-0.68-5.17c-29.539-5.981-60.246-0.213-85.6,16.08   c-3.05,2-0.22,6.87,2.86,4.89l0.48-0.3l88.07,99c-1.154,0.987-1.289,2.723-0.302,3.877c0.036,0.042,0.073,0.083,0.112,0.123   c11.858,12.394,21.953,26.362,30,41.51c1.37,2.58,5.18,1.26,5.28-1.43c0.588-16.164-1.576-32.311-6.4-47.75   c4.034,2.807,7.696,6.113,10.9,9.84c1.56,1.81,5,0.4,4.83-2C299.015,140.445,290.614,117.537,276.531,98.173z"/>
	<path style="fill:#E5A024;" d="M126.411,39.023c-36.45-4.87-53.17,40.05-87.37,42c-2.32,0.13-3.9,3.08-2,4.83   c4.319,4.048,9.459,7.117,15.07,9c-4.8,3.56-8.5,8.9-12.79,13c-8.391,7.947-18.434,13.943-29.41,17.56   c-1.514,0.469-2.361,2.077-1.892,3.591c0.203,0.654,0.633,1.214,1.212,1.579c8.036,4.728,16.89,7.9,26.1,9.35   c-3.62,3.23-6.39,7.52-9.17,11.65c-6.402,9.494-14.892,17.396-24.82,23.1C0,175.528-0.403,177.3,0.442,178.641   c0.365,0.58,0.925,1.009,1.579,1.212c31.06,9.77,65.39-5.27,78.14-35.52c7.16-17,7.08-36,15-52.79s20.29-30.59,32.44-44.2   c0.761-0.805,0.962-1.989,0.51-3C129.871,43.163,129.291,39.453,126.411,39.023z"/>
	<path style="fill:#3B301B;" d="M203.751,17.453c-5.1-6.25-15.3-2.45-21.48-0.38c-11.18,3.75-22.51,6.82-33.46,11.26   c-21.16,8.58-40.95,20.37-56.84,36.92c-14.442,15.237-25.714,33.191-33.16,52.82c-9,23.29-10.08,47-11.41,71.65   c-1.19,22.09-1.85,43.84,0.5,65.86c0.77,7.21,1.58,14.43,2.77,21.58c0.24,2.088,0.611,4.159,1.11,6.2   c-6.131,2.062-11.531,5.863-15.54,10.94c-3.88,5-7.61,12.49-5.14,18.88c2.4,6.22,9.39,7.09,15,5.22   c3.068-1.053,5.936-2.618,8.48-4.63c-0.19,1.94-0.044,3.899,0.43,5.79c1.34,5.18,5.52,9.83,10.9,10.82   c9,1.66,16.25-6.35,20.24-14.85c2,5.07,5.39,9.25,11.53,9.79c10.11,0.89,14.25-8.77,15.23-17.19l1.38-0.32   c1.93-0.4,3.87-0.77,5.8-1.15c3.204-0.495,6.371-1.203,9.48-2.12c9.13-3.14,18.75-8.48,25.44-15.52   c7.77-8.18,10.58-18.46,12.1-29.39c2.13-15.31,1.5-30.76-0.16-46.09c-1.43-12.48-3.48-24.86-5.47-37.26   c-1.61-10-2.52-20.19-4.34-30.15c-2.29-12.51-6-24.94-7.17-37.63c-0.27-2.82-0.42-2.76,1.38-4.37   c4.168-3.843,8.008-8.028,11.48-12.51c6.336-8.263,12.15-16.913,17.41-25.9c5.61-9.24,11.1-18.58,17.53-27.28   C201.691,33.063,209.341,24.293,203.751,17.453z"/>
	<path style="fill:#CF4327;" d="M278.241,276.403c9.32-5.11,24.36-15.45,14.92-22.45c-4.37-3.24-10.48-0.94-14.83,1   c-3.924,1.754-7.643,3.934-11.09,6.5c7.084-26.132,10.404-53.141,9.86-80.21c-0.59-27.4-4.22-56.49-15.22-81.83   c-9.14-21.06-23.81-38.43-46.33-45.05c-19.2-5.65-41.6-4.55-59.46,4.88c-11.15,5.89-20.4,15.74-27.89,25.72   c-8.6,11.45-15.06,24.71-16,39.16c-0.16,2.36,2.47,3.24,4.26,2.44c11.46-5.09,22-3,29.65,7.39c5.86,8,8.48,18.17,9.64,27.86   c2.15,17.89-0.55,36-2.16,53.8c-1.54,17-2.44,34.79,3,51.27s16.86,31.29,33.3,37.45c11.06,3.6,21.67,2.4,32.82,0.3   c3.06-0.58,10.55-1.44,15.1-4c2.113,5.06,5.057,9.731,8.71,13.82c3.78,4.12,10.21,10,16.33,9.13c5.89-0.82,7.83-7.44,8.12-12.57   c0.15-4.112-0.499-8.215-1.91-12.08c2.333,1.249,4.831,2.162,7.42,2.71c5,1.05,12.39,1.45,16-3.06   C299.121,290.213,287.241,280.923,278.241,276.403z"/>
	<path style="fill:#CF4327;" d="M225.371,126.343c-32.908,21.176-71.93,30.795-110.91,27.34c-5.95-0.51-11,5.44-11,11   c0,6.4,5.08,10.52,11,11c42.899,3.6,85.791-7.023,122.05-30.23c11.91-7.66,0.85-26.79-11.15-19.07L225.371,126.343z"/>
	<path style="fill:#3B301B;" d="M130.841,146.553c38.3,14.12,82.92,8.77,116.91-13.79c11.79-7.82,0.74-27-11.15-19.07   c-29.54,19.583-66.656,23.882-99.89,11.57c-5.6-2.06-12.1,2.31-13.58,7.71C121.441,139.133,125.231,144.483,130.841,146.553   L130.841,146.553z"/>
	<path style="fill:#3B301B;" d="M235.471,105.593c-1.323,3.893-0.762,8.18,1.52,11.6c2,3,6.92,0.18,4.89-2.86   c-1.495-2.108-1.85-4.818-0.95-7.24c1.18-3.45-4.28-4.94-5.46-1.51V105.593z"/>
	<path style="fill:#3B301B;" d="M247.631,107.593c-1.151,1.952-2.602,3.71-4.3,5.21c-1.068,1.141-1.008,2.932,0.133,4   c1.088,1.018,2.779,1.018,3.867,0c2.048-1.836,3.798-3.978,5.19-6.35C254.371,107.303,249.521,104.453,247.631,107.593z"/>
	<path style="fill:#3B301B;" d="M253.181,112.543c-1.409,1.711-3.1,3.168-5,4.31c-3.13,1.86-0.28,6.76,2.86,4.89   c2.33-1.372,4.413-3.126,6.16-5.19c1.062-1.122,1.062-2.878,0-4c-1.109-1.093-2.891-1.093-4,0L253.181,112.543z"/>
	<path style="fill:#3B301B;" d="M256.391,119.403c-0.924,0.807-2.139,1.197-3.36,1.08c-1.508-0.368-3.039,0.512-3.48,2   c-0.402,1.512,0.491,3.066,2,3.48c2.694,0.57,5.503-0.03,7.73-1.65c1.298-0.827,1.735-2.518,1-3.87c-0.7-1.19-2.65-2-3.87-1   L256.391,119.403z"/>
	<path style="fill:#3B301B;" d="M254.191,127.793h-0.51c0.327,0.053,0.327,0.053,0,0l-0.49-0.14l0,0c-0.12-0.07-0.88-0.65-0.49-0.28   c-0.13-0.113-0.253-0.234-0.37-0.36c0.167,0.247,0.167,0.247,0,0c-0.79-1.35-2.525-1.805-3.875-1.015s-1.805,2.525-1.015,3.875   c1.503,2.3,4.072,3.679,6.82,3.66c1.563,0,2.83-1.267,2.83-2.83s-1.267-2.83-2.83-2.83L254.191,127.793z"/>
	<path style="fill:#CF4327;" d="M107.061,151.133c1.983,1.151,3.298,3.18,3.54,5.46c0.22,1.51,2.14,2.35,3.48,2   c1.491-0.437,2.373-1.971,2-3.48c-0.607-3.723-2.864-6.972-6.14-8.84c-3.16-1.83-6,3.06-2.86,4.89L107.061,151.133z"/>
	<path style="fill:#CF4327;" d="M97.171,155.853c3.215,3.543,7.864,5.437,12.64,5.15c3.62-0.22,3.65-5.89,0-5.66   c-3.271,0.275-6.478-1.02-8.64-3.49C98.711,149.153,94.721,153.163,97.171,155.853L97.171,155.853z"/>
	<path style="fill:#CF4327;" d="M94.121,165.383c4.202,2.638,9.251,3.575,14.12,2.62c3.58-0.65,2.06-6.1-1.51-5.46   c-3.399,0.604-6.9-0.111-9.79-2c-3.09-2-5.93,2.95-2.86,4.89L94.121,165.383z"/>
	<path style="fill:#CF4327;" d="M97.011,176.513c4.596,1.398,9.589,0.257,13.12-3c2.72-2.43-1.29-6.43-4-4   c-2.078,1.839-4.983,2.423-7.61,1.53c-3.49-1.08-5,4.38-1.51,5.46V176.513z"/>
	<path style="fill:#CF4327;" d="M109.701,182.343c2.639-1.354,4.903-3.34,6.59-5.78c0.779-1.347,0.334-3.069-1-3.87   c-1.35-0.756-3.056-0.315-3.87,1c-1.194,1.611-2.768,2.902-4.58,3.76c-1.35,0.79-1.805,2.525-1.015,3.875   C106.616,182.678,108.351,183.133,109.701,182.343L109.701,182.343z"/>
	<path style="fill:#CF4327;" d="M212.091,296.453c5.17-5.15-2.84-13.16-8-8c-12.85,12.82-18.58,30.24-16.71,48.08h-2.32   c-3.64,0-3.65,5.66,0,5.66h5.1c3.47,1.51,9.07-1.52,8.36-6.72C196.734,321.064,201.749,306.644,212.091,296.453z"/>
	<path style="fill:#CF4327;" d="M227.831,282.533c-9.81,16.41-19.68,34.21-17.25,54h-0.62c-3.64,0-3.65,5.66,0,5.66h5.6   c3.31,0.72,6.95-1,6.39-5.21c-2.39-18.1,6.71-33.77,15.66-48.74C241.361,281.973,231.571,276.273,227.831,282.533z"/>
	<path style="fill:#3B301B;" d="M158.551,336.533h-3.21c2.485-17.746,0.36-35.833-6.17-52.52c-2.65-6.7-13.61-3.78-10.92,3   c6.213,15.341,8.249,32.056,5.9,48.44c-0.78,5.19,4.8,8.23,8.3,6.72h6.09C162.241,342.193,162.241,336.533,158.551,336.533z"/>
	<path style="fill:#3B301B;" d="M134.951,336.533h-1.79c3.138-12.829,2.99-26.243-0.43-39c-1.87-7-12.8-4.05-10.92,3   c3.097,11.464,3.076,23.547-0.06,35c-1.36,5,3.84,8,7.6,6.72h5.59C138.591,342.193,138.601,336.533,134.951,336.533z"/>
	<path style="fill:#EAE2C2;" d="M162.381,32.283c-24.227,3.108-45.442,17.774-56.91,39.34c-1.23,2.34,0.79,4.54,3.2,4.16   c6.26-1,12.15-1.33,18.08-3.79c5.802-2.369,11.282-5.46,16.31-9.2c4.68-3.5,9.61-7.28,13.37-11.78c3.3-3.94,5.2-8.29,7.4-12.86   l0.55-1C165.711,35.453,165.091,31.933,162.381,32.283z"/>
	<path style="fill:#3B301B;" d="M139.711,47.773c-3.523-1.832-7.846-0.957-10.38,2.1c-2.81,3.18-3.54,8.47,0.89,10.66   c3.851,1.813,8.434,0.919,11.32-2.21c0.196-0.177,0.367-0.378,0.51-0.6C144.241,54.243,143.471,49.793,139.711,47.773z"/>
	<path style="fill:#CF4327;" d="M209.241,4.333c-1.547-2.461-4.163-4.05-7.06-4.29c-6.93-0.64-11.51,6-12.34,12.14   c-0.6,4.47,1.33,9.22,6.26,9.83c5.33,0.66,9.77-3.51,12.41-7.67C210.191,11.283,211.101,7.563,209.241,4.333z"/>
	<path style="fill:#CF4327;" d="M176.711,37.613c0.239,4.307,3.924,7.604,8.231,7.365c1.69-0.094,3.304-0.734,4.599-1.825   c5-4.22,3.4-11.26-1.4-14.82c-2.93-2.17-5.75,2.74-2.86,4.89c1.53,1.14,2.38,3.46,1.12,5.1c-1.09,1.42-3.86,1.51-4-0.71   c-0.29-3.61-6-3.64-5.66,0L176.711,37.613z"/>
	<path style="fill:#EAE2C2;" d="M190.801,69.603c-10.21-4.29-22.65-1-28.9,8.28c-7.63,11.34-6.39,27.48,7.28,33.26   c12.72,5.38,29.64-1.57,34.26-14.56c0.189-0.432,0.31-0.891,0.36-1.36C205.961,84.453,201.241,73.983,190.801,69.603z"/>
	<path style="fill:#3B301B;" d="M194.241,85.003c-2.6-6.93-11.07-10.14-17.81-7.54c-6.57,2.53-11.35,10.23-9.51,17.27   c2.24,8.58,12,12.09,19.56,8.62c0.246-0.076,0.481-0.184,0.7-0.32c0.204-0.108,0.396-0.238,0.57-0.39   C193.351,98.763,196.721,91.743,194.241,85.003z"/>
	<path style="fill:#3B301B;" d="M147.681,30.743l-18.16-24.16c-1.25-1.67-4.77-2-5.17,0.68c-1.453,9.813-2.453,19.663-3,29.55   c-6.247-5.28-12.697-10.28-19.35-15c-1.64-1.17-4.51,0.37-4.26,2.44c1.26,10.467,3.066,20.861,5.41,31.14   c0.81,3.55,6.27,2,5.46-1.51c-0.05-0.24-0.1-0.48-0.15-0.72l14-8c1.358,0.785,3.095,0.32,3.88-1.039   c0.239-0.415,0.37-0.883,0.38-1.361l0,0l16-9.13l0,0C144.961,36.453,149.881,33.663,147.681,30.743z"/>
	<path style="fill:#CF4327;" d="M71.571,129.543l-0.92,6.83c-0.357,1.506,0.519,3.03,2,3.48c1.32,0.36,3.28-0.45,3.48-2l0.92-6.83   c0.357-1.506-0.519-3.03-2-3.48C73.731,127.183,71.771,127.993,71.571,129.543z"/>
	<path style="fill:#CF4327;" d="M69.151,156.303l-2.16,7.39c-1,3.5,4.44,5,5.46,1.51l2.16-7.39   C75.611,154.313,70.171,152.813,69.151,156.303z"/>
	<path style="fill:#CF4327;" d="M67.311,181.963l-0.46,4.54c0.005,1.561,1.269,2.824,2.83,2.83c1.545-0.042,2.788-1.285,2.83-2.83   l0.46-4.54c-0.005-1.561-1.269-2.824-2.83-2.83C68.596,179.175,67.353,180.418,67.311,181.963z"/>
	<path style="fill:#CF4327;" d="M66.911,204.643l0.17,5.66c0.11,3.64,5.77,3.65,5.66,0l-0.17-5.66   C72.461,201.003,66.801,200.993,66.911,204.643z"/>
	<path style="fill:#CF4327;" d="M68.081,227.273l0.9,6.76c0.052,1.541,1.289,2.778,2.83,2.83c1.37,0,3-1.3,2.83-2.83l-0.9-6.76   c-0.052-1.541-1.289-2.778-2.83-2.83C69.541,224.443,67.911,225.743,68.081,227.273z"/>
	<path style="fill:#CF4327;" d="M68.941,251.223c0.136,0.489,0.21,0.993,0.22,1.5c0,0.33,0,0.65,0,1c0,0.07-0.08,0.9,0,0.54   c-0.368,1.508,0.512,3.039,2,3.48c1.34,0.3,3.26-0.41,3.48-2c0.316-1.994,0.251-4.03-0.19-6c-0.414-1.509-1.968-2.402-3.48-2   c-1.495,0.432-2.379,1.971-2,3.48H68.941z"/>
	<path style="fill:#CF4327;" d="M85.011,238.453l-0.49,2.85c-0.176,0.738-0.073,1.514,0.29,2.18c0.377,0.633,0.982,1.098,1.69,1.3   c1.37,0.31,3.22-0.42,3.48-2l0.49-2.85c0.176-0.738,0.073-1.514-0.29-2.18c-0.377-0.633-0.982-1.098-1.69-1.3   C87.121,236.143,85.271,236.873,85.011,238.453z"/>
	<path style="fill:#CF4327;" d="M82.501,212.863c0.268,1.958,0.191,3.949-0.23,5.88c-0.75,3.55,4.71,5.07,5.46,1.51   c0.611-2.925,0.689-5.937,0.23-8.89c-0.22-1.51-2.14-2.35-3.48-2c-1.491,0.437-2.373,1.971-2,3.48L82.501,212.863z"/>
	<path style="fill:#CF4327;" d="M79.991,187.253l0.22,7.36c0.11,3.64,5.77,3.65,5.66,0l-0.22-7.36   C85.541,183.613,79.881,183.603,79.991,187.253z"/>
	<path style="fill:#CF4327;" d="M79.321,164.623c-0.192,1.978,0.078,3.974,0.79,5.83c0.441,1.488,1.972,2.368,3.48,2   c1.509-0.414,2.402-1.968,2-3.48c-0.556-1.371-0.759-2.86-0.59-4.33c-0.011-1.558-1.272-2.819-2.83-2.83   c-1.55,0.032-2.798,1.28-2.83,2.83L79.321,164.623z"/>
	<path style="fill:#CF4327;" d="M83.241,145.243l0.15,5.09c0.002,1.563,1.27,2.829,2.833,2.827c1.56-0.002,2.825-1.266,2.827-2.827   l-0.15-5.09c-0.002-1.563-1.27-2.829-2.833-2.827C84.507,142.418,83.243,143.682,83.241,145.243z"/>
	<path style="fill:#CF4327;" d="M82.801,108.233l-1.56,4.58c-0.402,1.512,0.491,3.066,2,3.48c1.509,0.373,3.043-0.509,3.48-2   l1.57-4.57c0.402-1.512-0.491-3.066-2-3.48c-1.509-0.373-3.043,0.509-3.48,2L82.801,108.233z"/>
	<path style="fill:#CF4327;" d="M88.461,123.953l-0.5,2.28c-0.417,1.508,0.467,3.068,1.975,3.485s3.068-0.467,3.485-1.975l0,0   l0.5-2.28c0.417-1.508-0.467-3.068-1.975-3.485S88.878,122.445,88.461,123.953L88.461,123.953z"/>
	<path style="fill:#CF4327;" d="M83.471,265.323l0.07,2.26c0,1.563,1.267,2.83,2.83,2.83s2.83-1.267,2.83-2.83l0,0l-0.07-2.26   c0.002-1.563-1.264-2.831-2.827-2.833s-2.831,1.264-2.833,2.827C83.471,265.318,83.471,265.321,83.471,265.323z"/>
	<path style="fill:#CF4327;" d="M98.671,224.643l0.17,5.66c0.11,3.64,5.77,3.65,5.66,0l-0.17-5.66   C104.221,221.003,98.561,220.993,98.671,224.643z"/>
	<path style="fill:#CF4327;" d="M98.321,250.713l0.09,2.83c0,1.563,1.267,2.83,2.83,2.83s2.83-1.267,2.83-2.83l-0.09-2.83   c0-1.563-1.267-2.83-2.83-2.83S98.321,249.15,98.321,250.713z"/>
	<path style="fill:#CF4327;" d="M96.781,195.453l0.73,5.07c0.22,1.51,2.14,2.35,3.48,2c1.491-0.437,2.373-1.971,2-3.48l-0.73-5.07   c-0.22-1.51-2.14-2.35-3.48-2C97.29,192.41,96.408,193.944,96.781,195.453z"/>
	<path style="fill:#3B301B;" d="M252.531,159.033c0.715,1.914,0.968,3.97,0.74,6c0.011,1.558,1.272,2.819,2.83,2.83   c1.55-0.032,2.798-1.28,2.83-2.83c0.258-2.546-0.067-5.118-0.95-7.52c-0.441-1.488-1.972-2.368-3.48-2   c-1.509,0.414-2.402,1.968-2,3.48L252.531,159.033z"/>
	<path style="fill:#3B301B;" d="M254.461,186.163c0.241,1.585,0.169,3.202-0.21,4.76c-0.83,3.54,4.63,5.06,5.46,1.51   c0.587-2.55,0.659-5.192,0.21-7.77c-0.414-1.509-1.968-2.402-3.48-2c-1.491,0.437-2.373,1.971-2,3.48L254.461,186.163z"/>
	<path style="fill:#3B301B;" d="M252.991,209.623c-0.514,2.296-0.676,4.656-0.48,7c0.042,1.545,1.285,2.788,2.83,2.83   c1.558-0.011,2.819-1.272,2.83-2.83c-0.187-1.834-0.092-3.685,0.28-5.49c0.373-1.509-0.509-3.043-2-3.48   c-1.512-0.396-3.061,0.495-3.48,2L252.991,209.623z"/>
	<path style="fill:#3B301B;" d="M250.831,233.103l-0.44,5.67c0.016,1.556,1.274,2.814,2.83,2.83c1.55-0.032,2.798-1.28,2.83-2.83   l0.44-5.67c-0.016-1.556-1.274-2.814-2.83-2.83C252.111,230.305,250.863,231.553,250.831,233.103z"/>
	<path style="fill:#3B301B;" d="M247.921,254.143c-0.02,1.675-0.359,3.332-1,4.88c-0.735,1.352-0.298,3.043,1,3.87   c1.19,0.7,3.26,0.4,3.87-1c1.089-2.44,1.691-5.069,1.77-7.74c0.09-3.64-5.57-3.64-5.66,0L247.921,254.143z"/>
	<path style="fill:#3B301B;" d="M238.091,240.103l-1,5.7c-0.363,1.507,0.515,3.035,2,3.48c1.512,0.402,3.066-0.491,3.48-2l1-5.7   c0.363-1.507-0.515-3.035-2-3.48C240.059,237.701,238.505,238.594,238.091,240.103z"/>
	<path style="fill:#3B301B;" d="M237.851,217.823c0.243,1.585,0.171,3.202-0.21,4.76c-0.83,3.54,4.63,5.06,5.46,1.51   c0.591-2.55,0.662-5.192,0.21-7.77c-0.414-1.509-1.968-2.402-3.48-2c-1.491,0.437-2.373,1.971-2,3.48L237.851,217.823z"/>
	<path style="fill:#3B301B;" d="M238.071,188.733l0.22,7.36c0.11,3.64,5.77,3.65,5.66,0l-0.22-7.36   C243.621,185.093,237.961,185.083,238.071,188.733z"/>
	<path style="fill:#3B301B;" d="M236.691,160.453l0.82,7.9c0.042,1.545,1.285,2.788,2.83,2.83c1.558-0.011,2.819-1.272,2.83-2.83   l-0.82-7.9c-0.042-1.545-1.285-2.788-2.83-2.83C237.963,157.634,236.702,158.894,236.691,160.453L236.691,160.453z"/>
	<path style="fill:#3B301B;" d="M226.861,173.773l0.14,4.53c0,1.563,1.267,2.83,2.83,2.83s2.83-1.267,2.83-2.83l0,0l-0.14-4.53   c0-1.563-1.267-2.83-2.83-2.83C228.128,170.943,226.861,172.21,226.861,173.773z"/>
	<path style="fill:#3B301B;" d="M224.891,199.333l-0.48,4c0.005,1.561,1.269,2.824,2.83,2.83c1.543-0.047,2.783-1.287,2.83-2.83   l0.48-4c-0.005-1.561-1.269-2.824-2.83-2.83C226.178,196.55,224.938,197.79,224.891,199.333z"/>
	<path style="fill:#3B301B;" d="M224.861,220.283l0.07,2.26c0,1.563,1.267,2.83,2.83,2.83s2.83-1.267,2.83-2.83l-0.07-2.26   c0-1.563-1.267-2.83-2.83-2.83C226.128,217.453,224.861,218.72,224.861,220.283z"/>
	<path style="fill:#3B301B;" d="M223.821,240.333c0.14,0.64,0.05-0.28,0.06,0.32c0,0.18,0,0.36,0,0.54c0,0.307,0,0.363,0,0.17   c0-0.28-0.1,0.45-0.13,0.56c-0.086,0.307-0.193,0.607-0.32,0.9c-0.408,1.513,0.487,3.07,2,3.48c1.507,0.363,3.035-0.515,3.48-2   c0.685-1.752,0.814-3.672,0.37-5.5c-0.414-1.509-1.968-2.402-3.48-2c-1.491,0.437-2.373,1.971-2,3.48L223.821,240.333z"/>
	<path style="fill:#3B301B;" d="M222.241,257.023l-0.48,2.85c-0.176,0.738-0.073,1.514,0.29,2.18c0.377,0.633,0.982,1.098,1.69,1.3   c1.37,0.31,3.22-0.42,3.48-2l0.48-2.85c0.176-0.738,0.073-1.514-0.29-2.18c-0.377-0.633-0.982-1.098-1.69-1.3   C224.351,254.713,222.501,255.443,222.241,257.023z"/>
	<path style="fill:#3B301B;" d="M233.721,268.363C233.851,268.943,233.721,267.783,233.721,268.363c0.006,0.123,0.006,0.247,0,0.37   c0,0.247,0,0.247,0,0s0-0.247,0,0c-0.022,0.088-0.049,0.175-0.08,0.26c-0.073,0.2-0.037,0.117,0.11-0.25   c-0.054,0.11-0.114,0.217-0.18,0.32c-0.79,1.35-0.335,3.085,1.015,3.875s3.085,0.335,3.875-1.015c0.886-1.508,1.151-3.3,0.74-5   c-0.414-1.509-1.968-2.402-3.48-2c-1.495,0.432-2.379,1.971-2,3.48L233.721,268.363L233.721,268.363z"/>
	<path style="fill:#3B301B;" d="M213.411,230.083c-0.375,1.719-0.055,3.516,0.89,5c0.79,1.35,2.525,1.805,3.875,1.015   s1.805-2.525,1.015-3.875l0,0c-0.108-0.153-0.205-0.313-0.29-0.48c0.153,0.393,0.177,0.447,0.07,0.16   c-0.055-0.177-0.099-0.357-0.13-0.54c0.047,0.413,0.067,0.51,0.06,0.29c0-0.21,0.12-0.91,0-0.08c0.178-0.737,0.074-1.515-0.29-2.18   c-0.79-1.348-2.524-1.801-3.873-1.01c-0.636,0.373-1.102,0.979-1.297,1.69L213.411,230.083z"/>
	<path style="fill:#3B301B;" d="M213.101,205.913l0.14,4.54c0,1.563,1.267,2.83,2.83,2.83s2.83-1.267,2.83-2.83l0,0l-0.14-4.53   c0-1.563-1.267-2.83-2.83-2.83s-2.83,1.267-2.83,2.83V205.913z"/>
	<path style="fill:#3B301B;" d="M214.131,183.783l0.05,1.7c0,1.563,1.267,2.83,2.83,2.83s2.83-1.267,2.83-2.83l-0.05-1.7   c0-1.563-1.267-2.83-2.83-2.83S214.131,182.22,214.131,183.783L214.131,183.783z"/>
	<path style="fill:#3B301B;" d="M224.831,284.013l-1.1,1.17c-1.068,1.141-1.008,2.932,0.133,4c1.088,1.018,2.779,1.018,3.867,0   l1.1-1.17c1.068-1.141,1.008-2.932-0.133-4C227.61,282.995,225.919,282.995,224.831,284.013z"/>
	<path style="fill:#3B301B;" d="M128.511,105.863c-1.185,5.179,2.052,10.338,7.231,11.524c1.976,0.452,4.044,0.269,5.909-0.524   c7.77-3.29,8.27-12.89,3.08-18.68c-2.44-2.72-6.43,1.3-4,4s2.81,7-0.46,9.06c-2.88,1.85-7.09-0.19-6.29-3.88s-4.68-5.07-5.46-1.51   L128.511,105.863z"/>
	<path style="fill:#574730;" d="M88.131,77.373c-19.91,20.12-29,47.48-32.54,75c-2,15.82-2.51,31.79-2.85,47.72   c-0.525,16.572-0.084,33.16,1.32,49.68c0.45,4.67,7.81,4.72,7.36,0c-2.699-30.261-2.424-60.713,0.82-90.92   c2.87-27.75,11.06-56,31.14-76.28c3.34-3.37-1.87-8.58-5.2-5.2L88.131,77.373L88.131,77.373z"/>
	<path style="fill:#574730;" d="M44.031,291.813c-3.705,2.535-6.304,6.386-7.27,10.77c-0.492,1.954,0.64,3.949,2.57,4.53   c1.958,0.52,3.972-0.623,4.53-2.57c0.442-2.54,1.833-4.816,3.89-6.37c1.69-1.058,2.267-3.246,1.32-5c-0.93-1.59-3.41-2.48-5-1.32   L44.031,291.813z"/>
	<path style="fill:#574730;" d="M60.961,307.073l-1.66,6.24c-0.552,1.961,0.589,3.998,2.55,4.55s3.998-0.589,4.55-2.55l1.66-6.24   c0.552-1.961-0.589-3.998-2.55-4.55C63.55,303.971,61.513,305.112,60.961,307.073z"/>
	<path style="fill:#574730;" d="M170.341,31.353c3.707-0.887,7.256-2.341,10.52-4.31c4.05-2.44,0.36-8.81-3.72-6.36   c-2.715,1.638-5.671,2.84-8.76,3.56c-4.61,1.1-2.66,8.19,2,7.1L170.341,31.353z"/>
	<path style="fill:#F3BC63;" d="M61.681,84.333c6.246-2.323,12.118-5.547,17.43-9.57c3.71-2.84,0.05-9.23-3.72-6.36   c-4.766,3.689-10.045,6.664-15.67,8.83c-4.39,1.66-2.49,8.78,2,7.1H61.681z"/>
	<path style="fill:#F3BC63;" d="M28.521,126.813c6.804-2.882,13.064-6.906,18.51-11.9c4.87-4.65,8-10.85,14.61-13.34   c4.39-1.66,2.49-8.78-2-7.1c-6.35,2.4-10.05,6.47-14.38,11.51c-5.62,6.54-12.67,11-20.49,14.48c-4.32,1.93-0.58,8.28,3.72,6.36   L28.521,126.813z"/>
	<path style="fill:#F3BC63;" d="M40.741,139.113c-6.671,9.799-14.244,18.952-22.62,27.34c-3.35,3.36,1.86,8.57,5.2,5.2   c8.805-8.852,16.763-18.507,23.77-28.84c2.67-3.93-3.71-7.61-6.36-3.72L40.741,139.113z"/>
	<path style="fill:#DB6653;" d="M136.421,93.183c6.89-13,20.45-18.94,33.32-24.48c4.34-1.87,0.59-8.21-3.72-6.36   c-14.1,6.07-28.45,13-36,27.12c-2.22,4.18,4.13,7.91,6.36,3.72C136.381,93.183,136.421,93.183,136.421,93.183z"/>
	<path style="fill:#DB6653;" d="M160.841,187.613c-7.66,33.17-6.55,69.67,14.47,97.94c2.8,3.76,9.19,0.09,6.36-3.72   c-19.89-26.74-21-60.84-13.73-92.26c1.06-4.61-6-6.58-7.1-2V187.613z"/>
	<path style="fill:#DB6653;" d="M273.551,286.253c2.796-0.432,5.572,0.888,7,3.33c2.39,4.08,8.76,0.38,6.36-3.72   c-2.715-4.706-7.894-7.43-13.31-7c-2.01,0.053-3.627,1.67-3.68,3.68c0,1.84,1.69,3.88,3.68,3.68L273.551,286.253z"/>
	<path style="fill:#DB6653;" d="M253.581,301.053c3.449,1.529,6.103,4.429,7.32,8c1.47,4.48,8.58,2.56,7.1-2   c-1.713-5.432-5.581-9.922-10.7-12.42c-1.754-0.947-3.942-0.37-5,1.32c-0.94,1.6-0.48,4.18,1.32,5L253.581,301.053z"/>
	<path style="fill:#DB6653;" d="M271.451,269.943c3.863-2.439,8.186-4.059,12.7-4.76c4.66-0.76,2.68-7.85-2-7.1   c-5.14,0.844-10.058,2.714-14.46,5.5c-4,2.52-0.31,8.89,3.72,6.36L271.451,269.943z"/>
	<path style="fill:#DB6653;" d="M223.621,72.773c8.032,4.004,14.495,10.58,18.36,18.68c2.07,4.26,8.42,0.53,6.36-3.72   c-4.477-9.209-11.855-16.693-21-21.3c-4.22-2.13-7.95,4.22-3.72,6.36V72.773z"/>
</g>

</g>
</g>

<!-- ITEM 1 -->
<g transform="translate(132.0 848.0) scale(2.7838033261026753 2.7720949263502455) rotate(277.171916529932 13.83 48.88)">
<g transform="translate(-0.0 -0.0)">
<title>wine_bottle_1</title><g id="Layer_2-i1" data-name="Layer 2"><g id="wine_bottle_1-i1"><path d="M27.66,38V91.72a6,6,0,0,1-6,6H6a6,6,0,0,1-6-6V38a6.06,6.06,0,0,1,1.25-3.68l5.29-6.9a6.06,6.06,0,0,0,1.25-3.68V3.29A3.29,3.29,0,0,1,11.08,0h5.5a3.29,3.29,0,0,1,3.29,3.29V23.75a6.06,6.06,0,0,0,1.25,3.68l5.29,6.9A6.06,6.06,0,0,1,27.66,38Z" style="fill:#3b301b"/><rect y="54.55" width="27.66" height="24.74" style="fill:#cf4327"/><path d="M7,42.13A2.51,2.51,0,0,1,5.13,38l5-5.62V23.13a2.5,2.5,0,0,1,5,0V34.25l-6.3,7A2.5,2.5,0,0,1,7,42.13Z" style="fill:#574730"/><path d="M19.87,3.29V13.72H7.79V3.29A3.29,3.29,0,0,1,11.08,0h5.5A3.29,3.29,0,0,1,19.87,3.29Z" style="fill:#cf4327"/></g></g>
</g>
</g>

<!-- ITEM 2 -->
<g transform="translate(1376.0 911.0) scale(2.8922631959508314 2.864157119476268) rotate(270.0 13.83 48.88000000000001)">
<g transform="translate(-0.0 -0.0)">
<title>wine_bottle_1</title><g id="Layer_2-i2" data-name="Layer 2"><g id="wine_bottle_1-i2"><path d="M27.66,38V91.72a6,6,0,0,1-6,6H6a6,6,0,0,1-6-6V38a6.06,6.06,0,0,1,1.25-3.68l5.29-6.9a6.06,6.06,0,0,0,1.25-3.68V3.29A3.29,3.29,0,0,1,11.08,0h5.5a3.29,3.29,0,0,1,3.29,3.29V23.75a6.06,6.06,0,0,0,1.25,3.68l5.29,6.9A6.06,6.06,0,0,1,27.66,38Z" style="fill:#3b301b"/><rect y="54.55" width="27.66" height="24.74" style="fill:#cf4327"/><path d="M7,42.13A2.51,2.51,0,0,1,5.13,38l5-5.62V23.13a2.5,2.5,0,0,1,5,0V34.25l-6.3,7A2.5,2.5,0,0,1,7,42.13Z" style="fill:#574730"/><path d="M19.87,3.29V13.72H7.79V3.29A3.29,3.29,0,0,1,11.08,0h5.5A3.29,3.29,0,0,1,19.87,3.29Z" style="fill:#cf4327"/></g></g>
</g>
</g>

<!-- ITEM 3 -->
<g transform="translate(128.0 937.0) scale(2.7114967462039044 2.6902618657937807) rotate(90.0 13.83 48.88)">
<g transform="translate(-0.0 -0.0)">
<title>wine_bottle_1</title><g id="Layer_2-i3" data-name="Layer 2"><g id="wine_bottle_1-i3"><path d="M27.66,38V91.72a6,6,0,0,1-6,6H6a6,6,0,0,1-6-6V38a6.06,6.06,0,0,1,1.25-3.68l5.29-6.9a6.06,6.06,0,0,0,1.25-3.68V3.29A3.29,3.29,0,0,1,11.08,0h5.5a3.29,3.29,0,0,1,3.29,3.29V23.75a6.06,6.06,0,0,0,1.25,3.68l5.29,6.9A6.06,6.06,0,0,1,27.66,38Z" style="fill:#3b301b"/><rect y="54.55" width="27.66" height="24.74" style="fill:#cf4327"/><path d="M7,42.13A2.51,2.51,0,0,1,5.13,38l5-5.62V23.13a2.5,2.5,0,0,1,5,0V34.25l-6.3,7A2.5,2.5,0,0,1,7,42.13Z" style="fill:#574730"/><path d="M19.87,3.29V13.72H7.79V3.29A3.29,3.29,0,0,1,11.08,0h5.5A3.29,3.29,0,0,1,19.87,3.29Z" style="fill:#cf4327"/></g></g>
</g>
</g>

<!-- ITEM 4 -->
<g transform="translate(1174.0 899.0) scale(2.6402640264026402 2.6688348957336903) rotate(69.89205953036716 16.665000000000003 52.27)">
<g transform="translate(-0.0 -0.0)">
<title>champagne_1</title><g id="Layer_2-i4" data-name="Layer 2"><g id="champagne_1-i4"><path d="M32.91,94.9c-.07,1.84-.12,2.95-.12,2.95,0,3.69-2.48,6.69-5.53,6.69H6.07c-3.05,0-5.53-3-5.53-6.69,0,0-.05-1.11-.12-2.95C.2,89.37-.2,77.29.12,69.16c.08-2.19.22-4.09.42-5.5.8-5.53,4.79-14.18,7.83-22.16A39.53,39.53,0,0,0,11,27.66V2.08H22.33V27.66A39.76,39.76,0,0,0,25,41.5c3,8,7,16.63,7.83,22.16a53.11,53.11,0,0,1,.42,5.5C33.53,77.29,33.14,89.37,32.91,94.9Z" style="fill:#3b301b"/><path d="M8.37,41.5H25a39.76,39.76,0,0,1-2.63-13.84V16.38A5.2,5.2,0,0,0,24,12.6V5.23A5.23,5.23,0,0,0,18.73,0H14.61A5.23,5.23,0,0,0,9.38,5.23V12.6A5.19,5.19,0,0,0,11,16.38V27.66A39.53,39.53,0,0,1,8.37,41.5Z" style="fill:#e5a024"/><path d="M33.32,77.8c0,2.86-.06,5.78-.12,8.46-.09,3.45-.2,6.52-.29,8.64H.42c-.09-2.12-.2-5.19-.29-8.64C.07,83.57,0,80.66,0,77.8c0-3.06,0-6,.11-8.64H33.21C33.31,71.75,33.34,74.75,33.32,77.8Z" style="fill:#e5a024"/><path d="M33.32,77.8c0,2.86-.06,5.78-.12,8.46H.13C.07,83.57,0,80.66,0,77.8Z" style="fill:#cf4327"/></g></g>
</g>
</g>

<!-- ITEM 5 -->
<g transform="translate(323.0 780.0) scale(4.2299349240780915 4.207436399217221) rotate(0.0 13.83 40.88)">
<g transform="translate(-0.0 -0.0)">
<title>beer_1</title><g id="Layer_2-i5" data-name="Layer 2"><g id="beer_1-i5"><path d="M27.66,38V75.72a6,6,0,0,1-6,6H6a6,6,0,0,1-6-6V38a6.06,6.06,0,0,1,1.25-3.68l5.29-6.9a6.06,6.06,0,0,0,1.25-3.68V3.29A3.29,3.29,0,0,1,11.08,0h5.5a3.29,3.29,0,0,1,3.29,3.29V23.75a6.06,6.06,0,0,0,1.25,3.68l5.29,6.9A6.06,6.06,0,0,1,27.66,38Z" style="fill:#3b301b"/><rect y="44.29" width="27.66" height="28" style="fill:#e5a024"/><path d="M6.12,57.45c1.06-2.25,2.05-4,2.07-4a1,1,0,0,0-1.72-1c-.07.11-.77,1.31-1.62,3-1.1-1.61-2.09-2.85-2.33-3.14a1,1,0,0,0-1.4-.15A1,1,0,0,0,1,53.59a48.29,48.29,0,0,1,2.88,4,29.93,29.93,0,0,0-2,5.92,1,1,0,0,0,.79,1.17l.19,0a1,1,0,0,0,1-.81,24,24,0,0,1,1.31-4.16,9,9,0,0,1,1.21,3.35,1,1,0,0,0,1,1h0a1,1,0,0,0,1-1.05A13.67,13.67,0,0,0,6.12,57.45Z" style="fill:#cf4327"/><path d="M17.45,63.9a54.28,54.28,0,0,0-3.31-7.5c1.13-2,2.16-3.51,2.18-3.54a1,1,0,0,0-.25-1.39,1,1,0,0,0-1.39.25c-.07.1-.77,1.12-1.65,2.59-.95-1.75-1.68-3-1.76-3.11a1,1,0,1,0-1.72,1s1.07,1.8,2.31,4.15a27,27,0,0,0-2.42,5.94,1,1,0,0,0,.74,1.2l.23,0a1,1,0,0,0,1-.76A21,21,0,0,1,13,58.57a45.82,45.82,0,0,1,2.55,5.95,1,1,0,0,0,1,.69,1,1,0,0,0,.3,0A1,1,0,0,0,17.45,63.9Z" style="fill:#cf4327"/><path d="M23.41,57c1.06-2,2.07-3.5,2.09-3.53a1,1,0,0,0-.29-1.39,1,1,0,0,0-1.38.29c-.08.11-.84,1.28-1.74,2.89-1.38-1.69-2.61-2.94-2.72-3a1,1,0,0,0-1.41,0,1,1,0,0,0,0,1.42,39.52,39.52,0,0,1,3.1,3.56,19.81,19.81,0,0,0-2,5.68A1,1,0,0,0,19.87,64H20a1,1,0,0,0,1-.87,15.33,15.33,0,0,1,1.39-4.09A9.71,9.71,0,0,1,24,62.67a1,1,0,0,0,1,.87h.13A1,1,0,0,0,26,62.41,13.54,13.54,0,0,0,23.41,57Z" style="fill:#cf4327"/><path d="M7,39.12a2.44,2.44,0,0,1-1.41-.43,2.49,2.49,0,0,1-.66-3.47l5.23-7.7V8.12a2.5,2.5,0,0,1,5,0V29.06l-6.1,9A2.49,2.49,0,0,1,7,39.12Z" style="fill:#574730"/></g></g>
</g>
</g>

<!-- ITEM 6 -->
<g transform="translate(617.0 503.0) scale(3.1978931527464263 3.158992698554612) rotate(350.4273219587845 13.289999999999997 33.555)">
<g transform="translate(-0.0 -0.0)">
<title>wineglass_3</title><g id="Layer_2-i6" data-name="Layer 2"><g id="wineglass_3-i6"><path d="M26.58,64.15a3,3,0,0,1-2.95,3H3A3,3,0,0,1,3,61.2h7.39V48.83c-.77-7.63-2.31-5.87-5-11C0,27.83.63,8.55,1,3a3.15,3.15,0,0,1,.38-1.3A2.66,2.66,0,0,1,3.94,0h18.7a2.66,2.66,0,0,1,2.58,1.65A3.15,3.15,0,0,1,25.6,3c.35,5.6,1,24.88-4.33,34.88-2.72,5.13-4.26,3.37-5,11V61.2h7.39A3,3,0,0,1,26.58,64.15Z" style="fill:#eae2c2;"/><path d="M21.42,14.47c-.18,2.28-.34,8.79-1.32,12.6C18,35.15,16.53,37.74,14.57,39.2a2.08,2.08,0,0,1-2.56,0c-2-1.46-3.46-4.05-5.53-12.13-1-3.81-1.14-10.32-1.32-12.6-.16-1.76.77-3.32,1.94-3.32H19.48C20.65,11.15,21.58,12.71,21.42,14.47Z" style="fill:#e5a024;"/></g></g>
</g>
</g>

<!-- ITEM 7 -->
<g transform="translate(997.0 399.0) scale(3.27313769751693 3.2036954254209506) rotate(9.811979927963433 13.290000000000001 33.555)">
<g transform="translate(-0.0 -0.0)">
<title>wineglass_3</title><g id="Layer_2-i7" data-name="Layer 2"><g id="wineglass_3-i7"><path d="M26.58,64.15a3,3,0,0,1-2.95,3H3A3,3,0,0,1,3,61.2h7.39V48.83c-.77-7.63-2.31-5.87-5-11C0,27.83.63,8.55,1,3a3.15,3.15,0,0,1,.38-1.3A2.66,2.66,0,0,1,3.94,0h18.7a2.66,2.66,0,0,1,2.58,1.65A3.15,3.15,0,0,1,25.6,3c.35,5.6,1,24.88-4.33,34.88-2.72,5.13-4.26,3.37-5,11V61.2h7.39A3,3,0,0,1,26.58,64.15Z" style="fill:#eae2c2;"/><path d="M21.42,14.47c-.18,2.28-.34,8.79-1.32,12.6C18,35.15,16.53,37.74,14.57,39.2a2.08,2.08,0,0,1-2.56,0c-2-1.46-3.46-4.05-5.53-12.13-1-3.81-1.14-10.32-1.32-12.6-.16-1.76.77-3.32,1.94-3.32H19.48C20.65,11.15,21.58,12.71,21.42,14.47Z" style="fill:#e5a024;"/></g></g>
</g>
</g>

<!-- ITEM 8 -->
<g transform="translate(678.0 538.0) scale(0.2894736842105263 0.2830188679245283) rotate(281.9773790959623 38.0 53.0)">
<g transform="translate(-0.0 -0.0)">

  
  <title>ellipse_red</title>
  <g id="Слой_2-i8" data-name="Слой 2">
    <g id="Слой_2-2-i8" data-name="Слой 2">
      <ellipse cx="38" cy="53" rx="38" ry="53" style="         fill: #d04123;       "/>
    </g>
  </g>

</g>
</g>

<!-- ITEM 9 -->
<g transform="translate(673.0 562.0) scale(0.27631578947368424 0.2830188679245283) rotate(275.2326001832293 37.99999999999999 53.0)">
<g transform="translate(-0.0 -0.0)">

  
  <title>ellipse_red</title>
  <g id="Слой_2-i9" data-name="Слой 2">
    <g id="Слой_2-2-i9" data-name="Слой 2">
      <ellipse cx="38" cy="53" rx="38" ry="53" style="         fill: #d04123;       "/>
    </g>
  </g>

</g>
</g>

<!-- ITEM 10 -->
<g transform="translate(678.0 587.0) scale(0.3026315789473684 0.3018867924528302) rotate(258.18146886984795 38.0 53.0)">
<g transform="translate(-0.0 -0.0)">

  
  <title>ellipse_red</title>
  <g id="Слой_2-i10" data-name="Слой 2">
    <g id="Слой_2-2-i10" data-name="Слой 2">
      <ellipse cx="38" cy="53" rx="38" ry="53" style="         fill: #d04123;       "/>
    </g>
  </g>

</g>
</g>

<!-- ITEM 11 -->
<g transform="translate(989.0 431.0) scale(0.3684210526315789 0.37735849056603776) rotate(54.11157909373081 38.0 53.0)">
<g transform="translate(-0.0 -0.0)">

  
  <title>ellipse_brown</title>
  <g id="Слой_2-i11" data-name="Слой 2">
    <g id="Слой_2-2-i11" data-name="Слой 2">
      <ellipse cx="38" cy="53" rx="38" ry="53" style="         fill: #3a301b;       "/>
    </g>
  </g>

</g>
</g>

<!-- ITEM 12 -->
<g transform="translate(1003.0 459.0) scale(0.35526315789473684 0.3584905660377358) rotate(75.65299057699154 38.0 53.00000000000001)">
<g transform="translate(-0.0 -0.0)">

  
  <title>ellipse_brown</title>
  <g id="Слой_2-i12" data-name="Слой 2">
    <g id="Слой_2-2-i12" data-name="Слой 2">
      <ellipse cx="38" cy="53" rx="38" ry="53" style="         fill: #3a301b;       "/>
    </g>
  </g>

</g>
</g>

<!-- ITEM 13 -->
<g transform="translate(994.0 492.0) scale(0.3684210526315789 0.3584905660377358) rotate(104.03624346792647 38.0 53.00000000000001)">
<g transform="translate(-0.0 -0.0)">

  
  <title>ellipse_brown</title>
  <g id="Слой_2-i13" data-name="Слой 2">
    <g id="Слой_2-2-i13" data-name="Слой 2">
      <ellipse cx="38" cy="53" rx="38" ry="53" style="         fill: #3a301b;       "/>
    </g>
  </g>

</g>
</g>

              </svg>