<?xml version="1.0" encoding="UTF-8"?><svg version="1.1" xmlns="http://www.w3.org/2000/svg" xmlns:xlink="http://www.w3.org/1999/xlink" viewBox="0 0 1920 1080" width="1920" height="1080" x="0px" y="0px">
              
              <!-- ITEM 0 -->
<g>
    <defs>
        
        <clipPath id="clip-path-id-viewbox-item-0">
            <rect x="0.0" y="0.0" width="677.183" height="530.414"/>
        </clipPath>
    </defs>
    <g transform="translate(0.0 126.0) rotate(0.0 518.5 406.0) scale(1.5313438169593743 1.5308796524978603)">
      <g clip-path="url(#clip-path-id-viewbox-item-0)" transform="translate(-0.0 -0.0)">
      
<g id="Layer_3-i0">
	<path style="fill:#E75353;" d="M238.313,14.401c22.5-8.6,52.3-13.3,66.9,5.9c13.2,17.3,5.2,44.2,17.8,61.9   c14.4,20.2,45.6,16.2,68.4,6.6c45-19,83.4-51,127.6-71.8c56.5-26.6,149.7-30.5,157.7,51.9c2.5,25.6-5.4,50.9-13.5,75.3   s-16.9,49.2-16.2,74.9c0.8,28.4,13.1,55.7,12.9,84.2c-0.2,36-20.8,69.5-47.7,93.4c-35.6,31.6-84.5,55.5-127.5,75.2   c-44.4,20.3-91.5,34.7-139.1,45.3c-49.3,11-121.2,30.7-155.7-19.4c-10.9-15.9-15.3-35.2-18.8-54.1s-6.4-38.3-14.8-55.6   c-8.5-17.4-22.3-29.2-40.2-36.1c-18.8-7.2-39.4-1.2-59.1-5.2c-39.8-8-61.6-55-56.2-95.3c7.7-57.6,48.9-96.1,86.5-135.8   C129.413,71.101,181.213,36.201,238.313,14.401z"/>
	<path style="fill:#E75353;" d="M146.713,429.401c0.9,11.4-1.1,23.6-8.5,32.3c-7.4,8.8-20.9,12.8-30.8,7.1c-6.1-3.5-9.9-9.9-13.4-16   c-8.1-14-16.2-28.1-24.2-42.1c-13.7-23.8-6.4-56.7,26.2-45.3C123.013,374.901,144.413,400.701,146.713,429.401z"/>
</g>

      </g>
    </g>
</g>

<!-- ITEM 1 -->
<g>
    <defs>
        
        <clipPath id="clip-path-id-viewbox-item-1">
            <rect x="0.0" y="0.0" width="149.1" height="101.8"/>
        </clipPath>
    </defs>
    <g transform="translate(1245.0 0.0) rotate(0.0 337.0 228.0) scale(4.5204560697518446 4.479371316306484)">
      <g clip-path="url(#clip-path-id-viewbox-item-1)" transform="translate(-0.0 -0.0)">
      

<g>
	<path d="M128.3,42.8c-0.4-2.8-3.7-3.3-4.8-0.7c-2.5,5.9-5.3,12.7-11.1,16.1c-4.9,2.8-11.3,2.7-16.3,0.2   c-5.5-2.8-8.1-8-8.2-13.4c0.7-5.8,3.5-11.3,8.4-14.9c1.3-1,1.8-3.4,0-4.3c-8-3.7-17.1-1.2-23.1,5c-7.4,7.7-7.8,19.3-5.1,29   c3,10.7,9,18.7,20.3,20.8c9.9,1.8,20.3-0.8,28.1-7.2C125.4,66.2,129.8,54.2,128.3,42.8z" style="fill:#F7D06F;"/>
	<path d="M146.6,42.8h-0.5c-1.3,0-2.5,1.1-2.5,2.5c0.1,1.3,1.1,2.5,2.5,2.5h0.5c1.3,0,2.5-1.1,2.5-2.5   C149,43.9,148,42.8,146.6,42.8z" style="fill:#F7D06F;"/>
	<path d="M143.9,72.5c-3.2,0-3.2,4.9,0,4.9C147,77.5,147,72.5,143.9,72.5z" style="fill:#F7D06F;"/>
	<path d="M100.1,93.5L99.6,93c-0.9-0.9-2.6-1-3.5,0s-1,2.5,0,3.5l0.5,0.5c0.9,0.9,2.6,1,3.5,0S101.1,94.5,100.1,93.5z" style="fill:#F7D06F;"/>
	<path d="M51.9,73c-1.3,0.1-2.5,1.1-2.5,2.5V76c0,1.3,1.1,2.5,2.5,2.5c1.3-0.1,2.5-1.1,2.5-2.5v-0.5   C54.4,74.2,53.3,72.9,51.9,73z" style="fill:#F7D06F;"/>
	<path d="M41.6,33.8c-1.3,0.1-2.5,1.1-2.5,2.5v0.5c0,1.3,1.1,2.5,2.5,2.5c1.3-0.1,2.5-1.1,2.5-2.5v-0.5   C44.1,35,42.9,33.7,41.6,33.8z" style="fill:#F7D06F;"/>
	<path d="M101.1,0c-1.3,0.1-2.5,1.1-2.5,2.5V3c0,1.3,1.1,2.5,2.5,2.5c1.3-0.1,2.5-1.1,2.5-2.5V2.5   C103.5,1.2,102.4-0.1,101.1,0z" style="fill:#F7D06F;"/>
	<path d="M115,24.8c-3.2,0-3.2,4.9,0,4.9C118.2,29.7,118.2,24.8,115,24.8z" style="fill:#F7D06F;"/>
	<path d="M141.2,90.6h-0.5c-1.3,0-2.5,1.1-2.5,2.5c0.1,1.3,1.1,2.5,2.5,2.5h0.5c1.3,0,2.5-1.1,2.5-2.5   C143.6,91.7,142.5,90.6,141.2,90.6z" style="fill:#F7D06F;"/>
	<path d="M24.9,87.9c-1.3,0.1-2.5,1.1-2.5,2.5v0.5c0,1.3,1.1,2.5,2.5,2.5c1.3-0.1,2.5-1.1,2.5-2.5v-0.5   C27.4,89,26.2,87.8,24.9,87.9z" style="fill:#F7D06F;"/>
	<path d="M2.4,56.3c-3.2,0-3.2,4.9,0,4.9C5.6,61.3,5.6,56.3,2.4,56.3z" style="fill:#F7D06F;"/>
	<path d="M44.3,96.9c-3.2,0-3.2,4.9,0,4.9S47.5,96.9,44.3,96.9z" style="fill:#F7D06F;"/>
</g>

      </g>
    </g>
</g>

              </svg>