<?xml version="1.0" encoding="UTF-8"?><svg version="1.1" xmlns="http://www.w3.org/2000/svg" xmlns:xlink="http://www.w3.org/1999/xlink" viewBox="0 0 1200 800" width="1200" height="800" x="0px" y="0px">
              
              <!-- ITEM 0 -->
<g>
    <defs>
        
        <clipPath id="clip-path-id-viewbox-item-0">
            <rect x="0.0" y="0.0" width="287.62" height="658.62"/>
        </clipPath>
    </defs>
    <g transform="translate(878.0 109.0) rotate(0.0 125.0 285.0) scale(0.8692024198595368 0.8654459324041177)">
        <g clip-path="url(#clip-path-id-viewbox-item-0)" transform="translate(-0.0 -0.0)">
<g id="Мыло-i0"><path d="M13.45,622.78l-.52,17.5a17.82,17.82,0,0,0,20.31,18.16l4.44-.63a17.81,17.81,0,0,0,15.08-20.45L50.6,623.87Z" style="fill:#2568ef;"/><path d="M227.9,621.47l-.52,17.5a17.82,17.82,0,0,0,20.31,18.16l4.44-.63a17.81,17.81,0,0,0,15.08-20.45l-2.16-13.49Z" style="fill:#2568ef;"/><path d="M25.65,362.48,83,359.21s12,4.32,3.51,14.48l-61.33,3.65s-7.28,3.75-9.44-7.72C15.78,369.62,15.58,363.05,25.65,362.48Z" style="fill:#2568ef;"/><path d="M30.51,132.05l45.94-3.6s9.61,4.25,2.72,14.46l-49.1,4s-5.84,3.79-7.51-7.66C22.56,139.26,22.45,132.69,30.51,132.05Z" style="fill:#2568ef;"/><path d="M261.21,72C257,6.48,210.15,4.93,210.15,4.93L103.84,4.32C2.28,13.09,4.56,74.88,4.56,74.88L3.69,176.71l263.53,7.76C264.49,130.8,262.27,88.63,261.21,72Z" style="fill:#ffe3e2;"/><path d="M0,610.76C-.27,643,38.7,641.12,38.7,641.12l205.85,1.73c39.47-3.17,43.07-43.15,43.07-43.15s-11.86-246.47-19.88-405L3.61,187Z" style="fill:#ffe3e2;"/><rect x="38.8" y="202.45" width="29.49" height="25.65" transform="translate(6.36 -1.48) rotate(1.69)" style="fill:#ff564f;"/><rect x="37.63" y="235.64" width="29.49" height="38.41" rx="13.21" transform="translate(7.53 -1.43) rotate(1.69)" style="fill:#ff9b19;"/><rect x="79.3" y="203.64" width="29.49" height="25.65" rx="11.49" transform="translate(6.42 -2.68) rotate(1.69)" style="fill:#2568ef;"/><ellipse cx="146.15" cy="273.91" rx="16.29" ry="23.54" transform="translate(-131.95 411.92) rotate(-88.31)" style="fill:#ff9b19;"/></g>
        </g>
    </g>
</g>

<!-- ITEM 1 -->
<g>
    <defs>
        
        <clipPath id="clip-path-id-viewbox-item-1">
            <rect x="0.0" y="0.0" width="811.57" height="1128.91"/>
        </clipPath>
    </defs>
    <g transform="translate(396.0 76.0) rotate(0.0 229.5 319.5) scale(0.5655704375469768 0.5660327218290209)">
        <g clip-path="url(#clip-path-id-viewbox-item-1)" transform="translate(-0.0 -0.0)">
<g id="Мыло-i1"><path d="M405.29,458.17a12.74,12.74,0,0,0-1.47-3.36,16.66,16.66,0,0,0-3.41-3.84,30.63,30.63,0,0,0-5.93-3.79c-1.85-.94-3.63-1.7-5.39-2.39a162.41,162.41,0,0,0-20.57-6.13c-6.78-1.61-13.54-3-20.31-4.21-2.77-.51-5.55-1-8.33-1.43l-2.64-19.28H86.8l-2.72,22.88-.55.08q-5.09.82-10.16,1.75c-6.77,1.23-13.53,2.6-20.31,4.21a162.9,162.9,0,0,0-20.57,6.13c-1.76.69-3.54,1.45-5.39,2.39A30.63,30.63,0,0,0,21.17,455a16.9,16.9,0,0,0-3.41,3.84,12.41,12.41,0,0,0-1.46,3.36,11.15,11.15,0,0,0-.32,4.24,11.74,11.74,0,0,0,1.09,3.74,13,13,0,0,0,1.64,2.54,17.41,17.41,0,0,0,3.23,3A32.38,32.38,0,0,0,27.63,479c1.81.82,3.57,1.49,5.3,2.1,3.47,1.21,6.88,2.16,10.27,3,6.78,1.7,13.5,3,20.22,4.21,4.74.83,9.48,1.57,14.23,2.28l-10.85,91H360.24l-13.08-95.46c3.66-.56,7.33-1.15,11-1.8,6.72-1.18,13.45-2.51,20.22-4.21,3.4-.87,6.8-1.82,10.27-3,1.74-.61,3.49-1.28,5.3-2.1a32.38,32.38,0,0,0,5.69-3.25,17.41,17.41,0,0,0,3.23-3,13,13,0,0,0,1.64-2.54,11.74,11.74,0,0,0,1.09-3.74A11.36,11.36,0,0,0,405.29,458.17Zm-374.13,4.9a1.43,1.43,0,0,1,.3.41h0C31.21,463.23,31.07,463,31.16,463.07ZM66,476.86c-6.4-1.76-12.74-3.64-18.85-5.8-3-1.08-6-2.24-8.81-3.51-1-.47-2-1-2.92-1.46.87-.3,1.8-.6,2.75-.87a145.9,145.9,0,0,1,18.54-3.65c6.42-.91,13-1.61,19.51-2.19,1.74-.15,3.48-.27,5.21-.4l-2.52,21.2C74.56,479.11,70.26,478,66,476.86Zm308.47-9.8c-6.11,2.16-12.45,4-18.85,5.8q-4.94,1.33-9.91,2.59l-2.77-20.26,2.46.19c6.55.58,13.09,1.28,19.51,2.19a145.9,145.9,0,0,1,18.54,3.65c.95.27,1.88.57,2.75.87-.93.5-1.9,1-2.92,1.46C380.48,464.82,377.49,466,374.45,467.06Zm15.67-7.58h0a1.2,1.2,0,0,1,.31-.41C390.51,459,390.37,459.23,390.12,459.48Z" style="fill:#2568ef;"/><path d="M90.34,641.87a2,2,0,0,1-1.41-.59L80,632.43a2,2,0,0,1,2.82-2.84l8.92,8.86a2,2,0,0,1-1.41,3.42Z" style="fill:#fff;"/><path d="M352.69,1061.9H24.81L3.59,659.31a50,50,0,0,1,49.93-52.63H375.21l27.36,401.83A50,50,0,0,1,352.69,1061.9Z" style="fill:#324a58;"/><path d="M187.14,622.58a26.12,26.12,0,1,0,26.12,26.12A26.14,26.14,0,0,0,187.14,622.58Zm0,48.23a22.1,22.1,0,0,1-14.79-38.53.81.81,0,0,0,.12.14l8.83,8.86a2,2,0,1,0,2.83-2.83l-8.56-8.59a22.11,22.11,0,1,1,11.57,40.95Z" style="fill:#fff;"/><path d="M97.81,622.58a26.12,26.12,0,1,0,26.11,26.12A26.14,26.14,0,0,0,97.81,622.58Zm0,48.23A22.11,22.11,0,0,1,85,630.72a2,2,0,0,0,.56,1.7l8.83,8.86a2,2,0,0,0,1.41.59,2,2,0,0,0,1.42-.59,2,2,0,0,0,0-2.83l-8.83-8.85a2,2,0,0,0-.8-.48,22.11,22.11,0,1,1,10.27,41.69Z" style="fill:#fff;"/><path d="M287,622.58a25.93,25.93,0,0,0-14,4.08l-.12.06-.06,0A26.09,26.09,0,1,0,287,622.58Zm0,48.23a22.1,22.1,0,0,1-13.47-39.63l6.73,9.82a2,2,0,0,0,1.65.87,2.06,2.06,0,0,0,1.13-.35,2,2,0,0,0,.51-2.78L276.89,629A22.11,22.11,0,1,1,287,670.81Z" style="fill:#fff;"/><path d="M323.3,1020.28,73.69,1020a2.5,2.5,0,0,1-2.49-2.61L82.48,737.55A26.43,26.43,0,0,1,109,712.08H336.9a2.51,2.51,0,0,1,2.49,2.26L365,972.52a43.5,43.5,0,0,1-41.68,47.76ZM76.3,1015l246.91.25A38.5,38.5,0,0,0,360,973L334.64,717.08H109a21.44,21.44,0,0,0-21.48,20.66Z" style="fill:#fff;"/><path d="M245.91,982.2H114.76V775.47a31,31,0,0,1,31-31H303.93L286.76,944.71A41,41,0,0,1,245.91,982.2Z" style="fill:#2568ef;"/><path d="M106.41,587.79H329.21a12.68,12.68,0,0,1,12.68,12.68v0a0,0,0,0,1,0,0H93.73a0,0,0,0,1,0,0v0A12.68,12.68,0,0,1,106.41,587.79Z" style="fill:#ff564f;"/><path d="M223.38,958.81H126.53l8.52-156.18c1.16-21.41,20.69-38.19,44.44-38.19H293.31L280.43,908.51A57.63,57.63,0,0,1,223.38,958.81Zm-93.68-3h93.68a54.61,54.61,0,0,0,54.07-47.62L290,767.44H179.49c-22.16,0-40.37,15.53-41.45,35.36Z" style="fill:#fff;"/><path d="M267.8,253.83c-7.11-5-14.46-10-20.93-14,1.23,4.52.95,7.92-.84,10.13a7.82,7.82,0,0,1-6.17,2.56,9.64,9.64,0,0,1-1.56-.12,1.45,1.45,0,0,1-.6-.25l-12.12-8.49a1.5,1.5,0,0,1-.16-2.32c4.17-3.88,3.17-9.26,2.63-11.18a2.11,2.11,0,0,0-.54,0c-2.68,1.58-7.27,5.75-7.29,11.22,0,6,5.48,12.47,15.9,18.73,1.31.78,2.7,1.73,4.17,2.73a65.1,65.1,0,0,0,10.61,6.22,1.48,1.48,0,0,1,.71.62s2.11,2.67,10.26-1.83a1.5,1.5,0,1,1,1.45,2.63c-4.11,2.26-7.12,3-9.28,3a5.91,5.91,0,0,1-4.68-1.81,64.43,64.43,0,0,1-10.07-5.88,4.19,4.19,0,0,0-1.17,3.35c.49,5.4,9.49,12.36,12.91,14.58a1.5,1.5,0,0,1-1.63,2.52c-.55-.36-13.54-8.89-14.27-16.82a7.06,7.06,0,0,1,1.66-5.32c-.77-.51-1.52-1-2.21-1.41-11.55-6.93-17.38-14.1-17.36-21.31A14.7,14.7,0,0,1,220.9,232a77.22,77.22,0,0,0-8.52,5.17,1.49,1.49,0,0,1-.88.28,1.53,1.53,0,0,1-.89-.29c-.11-.08-.7-.52-1.57-1.23-1.28,2.65-5.21,10.17-9.73,12.79a5.78,5.78,0,0,1-2.91.7,16.06,16.06,0,0,1-7.38-2.33,14.63,14.63,0,0,1-11.09,11.29c-.27.06-.54.09-.81.13-.1,2.57-.78,7.89-4.54,10a6.94,6.94,0,0,1-3.49.88c-2.67,0-5.89-1.26-9.6-3.76-15.16-10.22-17.13-15.32-17.38-16.61-.25-.85-1.35-5.17.82-8.07,1.23-1.63,3.18-2.43,5.77-2.39a1.49,1.49,0,0,1,1.47,1.53,1.53,1.53,0,0,1-1.53,1.47c-1.6,0-2.69.36-3.31,1.19-1.17,1.56-.61,4.56-.32,5.48,0,.1,0,.19.06.29h0s1.24,4.61,16.1,14.62c4.41,3,7.85,3.94,9.92,2.76,2.25-1.26,2.91-5,3-7.32a11.61,11.61,0,0,1-9.32-7,11.34,11.34,0,0,1-1.29-6.06l-17.86-11.75c-5-1.2-8.92-.79-10.71,1.54-4.12,5.35,4.38,18.79,19,30A75.79,75.79,0,0,0,172.08,276a29,29,0,0,1-1.16-3.16,1.12,1.12,0,0,1,0-.36v0a1.5,1.5,0,1,1,2.89-.8c0,.14,3.08,10.61,11.61,16.71-.06.06,7.12,4.35,12.15,4.63a1.5,1.5,0,0,1-.08,3h-.08a25.49,25.49,0,0,1-14.36-5.3c-21.57,21.33-94.65,99.21-76.28,159,1.54,5.77,5.36,4.47,4.66,7-4.35,15.43.21,30.22,10.18,33,5.51,1.55,11.51-.89,16.51-6,50.78,31.68,85.82,15.55,94.15,8.11,10.27-9.18,39.4-111.09,39.4-111.09-20.52,4.62-51.76,15.21-68.81,21.34-4.67,4.34-14.45,10.32-33.05,10.55h0a2,2,0,0,1,0-4c16-.2,24.86-4.94,29.32-8.61,10.34-17.55,18.59-68.9,22.73-99.24,6.65.56,15.88-.79,25.59-4.11,10-3.41,18.28-8.15,23.16-12.78a10.71,10.71,0,0,0,4.08-3.19C279.35,274.4,276.27,263.6,267.8,253.83Z" style="fill:#ff564f;"/><path d="M442.48,297.81c-18.13,1.76-33.26,1.15-45.78-.81l-9.48,30.7,148.43.78,4.62-21.38c.15-.12-19.28,4.68-30.37,4.69C478.18,311.79,447,299.64,442.48,297.81Z" style="fill:#ff564f;"/><path d="M359.58,279.72c13.8,8.8,39.4,18.38,83,14.06a2.14,2.14,0,0,1,1,.14c.64.27,64.73,26.47,103.5,5.87a51.26,51.26,0,0,0,4.59-2.77,93.29,93.29,0,0,0,6.87-9.2c10.18-15.51,24.49-41.59,0-81.27,0,0,45-18.12,12.94-44.72s-26.61,5.5-26.61,5.5-72.47-139.45-153.21-33c-45.5,60-59.69,100.51-51.16,126.22C342,263.4,347.39,272,359.58,279.72ZM543,185.17c.33-2.32,3.45-22.8,12.76-25.11,4.23-1.05,8.8,1.79,13.59,8.43s5.94,12.37,3.69,17.41c-5.2,11.69-27.45,14.22-28.39,14.32h-.17a1.5,1.5,0,0,1-.15-3c.21,0,21.47-2.44,26-12.56,1.77-4,.64-8.85-3.39-14.43-2.75-3.82-6.8-8.19-10.44-7.28-1.77.44-3.32,2-4.65,4.12,3.35,1.73,11,6.16,11.73,10.83a4.91,4.91,0,0,1-1.75,4.51A9.77,9.77,0,0,1,555,185a18,18,0,0,1-8.52-2.58c-.24,1.21-.42,2.28-.54,3.14a1.5,1.5,0,0,1-1.69,1.28A1.52,1.52,0,0,1,543,185.17Zm-65.46,82c-1.43,5.53-4.38,9.17-8.77,10.8a16.58,16.58,0,0,1-5.82,1c-9.8,0-21.12-6.72-24.65-9-6,6.25-11.62,8.79-16.78,7.54-9.38-2.28-13.24-16.25-13.4-16.84a1.5,1.5,0,0,1,2.9-.78c0,.13,3.55,12.85,11.21,14.7,4.27,1,9.22-1.52,14.72-7.57a1.49,1.49,0,0,1,2-.23c.18.12,18.18,12.36,28.81,8.38,3.47-1.29,5.73-4.15,6.91-8.74a1.5,1.5,0,0,1,2.91.75Zm6-67.92a1.51,1.51,0,0,1,2.09.36,1.49,1.49,0,0,1-.36,2.09c-.14.1-14.14,10.16-14.13,23.09,0,7.54,4.76,14.72,14.13,21.33a1.5,1.5,0,1,1-1.73,2.45c-10.22-7.21-15.4-15.21-15.4-23.79C468.06,210.31,482.83,199.73,483.46,199.28Zm-36.25-20.64a1.51,1.51,0,0,1,2,.85c1.34,3.4,6,12.23,11.54,12.29h.05c4.51,0,9.32-5.78,13.9-16.74a1.5,1.5,0,0,1,2.77,1.16c-5.23,12.5-10.68,18.58-16.66,18.58h-.1c-8.65-.1-14.07-13.62-14.29-14.2A1.49,1.49,0,0,1,447.21,178.64Zm-8.72,70.23c-1,0-2.53.1-4.29.1-6.69,0-17.05-.73-18.22-5.13-.68-2.56,1.5-5.32,7-8.69-5.82-.43-14.49-2.16-18.44-8.38-1.37-2.14-.94-3.63-.33-4.5,3.32-4.8,23-1.06,29,.2a1.5,1.5,0,1,1-.62,2.94c-11.33-2.4-24.45-3.55-25.92-1.43-.11.16.05.64.4,1.18,5.15,8.11,21.3,7.07,21.46,7.06a1.5,1.5,0,0,1,.79,2.83c-10.94,5.62-10.47,7.92-10.44,8,.52,1.94,9.61,3.25,19.47,2.81a1.5,1.5,0,1,1,.14,3ZM433.25,180a1.5,1.5,0,1,1,3,0v17.22L423,200.41a5.41,5.41,0,0,0,1.18,10.68l14.08-1.4a1.5,1.5,0,1,1,.3,3l-14.24,1.42h-.07a8.41,8.41,0,0,1-1.95-16.59l10.94-2.61Zm-36.67-.11a1.5,1.5,0,0,1,1.95.83c1.65,4.12,4,6.49,6.84,7.05,6.89,1.33,15.37-7.44,15.45-7.53a1.5,1.5,0,0,1,2.17,2.08c-.36.37-8.29,8.58-16.18,8.58a10.52,10.52,0,0,1-2-.19c-3.95-.76-7-3.74-9.06-8.87A1.51,1.51,0,0,1,396.58,179.93Z" style="fill:#ff564f;"/><path d="M391.94,1064.65h36v-345c-18.13.65-26.64-19.22-26.73-19.43a2.5,2.5,0,1,1,4.61-1.92c.34.81,8,18.54,24.26,16.14a2.52,2.52,0,0,1,2.86,2.48v347.77h38.77l35.75-385.28-152,1.59Z" style="fill:#ff9b19;"/><path d="M318.73,390.3a1.55,1.55,0,0,1,0-.31V362.31a2.5,2.5,0,0,1,5,0v21.34c11.71-15.23,20.1-23,20.26-23.18a2.5,2.5,0,1,1,3.38,3.68c-.29.27-29.11,27.15-54.63,79.21-23.26,47.45-48.37,126-37,232,.2.57.4,1.12.61,1.65l156.93-1.64c1.66-36.69,20-93.72,54.52-169.62,21.94-48.22,43.93-89.4,50.68-101.84l-86.2,2.58a2.5,2.5,0,0,1-2-4.08l57.32-69.87H385.05a2.49,2.49,0,0,1-2.44-3L387.17,309l-9.77.28a55.16,55.16,0,0,0-26.22,7.68L243.39,376.15c2.44,25.27-23.93,126.35-23.93,126.35l51-18.49a379,379,0,0,1,17.91-43.08A344.77,344.77,0,0,1,318.73,390.3Z" style="fill:#ff9b19;"/><path d="M547.14,179.36c2.18,1.37,8.41,4.67,12.6.85a1.93,1.93,0,0,0,.8-1.84c-.42-2.78-6-6.5-10.17-8.63A53.34,53.34,0,0,0,547.14,179.36Z" style="fill:#ff564f;"/><path d="M442.17,165.07c.09-.9.2-1.48.33-2.19s.27-1.34.44-2a33.57,33.57,0,0,1,1.2-3.89,30.55,30.55,0,0,1,3.84-7.27,24.25,24.25,0,0,1,6-5.9,23.19,23.19,0,0,1,7.64-3.38,27.7,27.7,0,0,1,8-.72,38.43,38.43,0,0,1,3.9.37c1.28.2,2.54.46,3.78.73a71.58,71.58,0,0,1,14.1,5.21,1.89,1.89,0,0,1-1.5,3.46h0a67.76,67.76,0,0,0-13.52-3.92c-1.14-.16-2.27-.31-3.41-.41a31.51,31.51,0,0,0-3.36-.07,21.65,21.65,0,0,0-6.39,1,16.81,16.81,0,0,0-9.43,7.47,23.07,23.07,0,0,0-2.51,5.79,25.4,25.4,0,0,0-.73,3.13c-.09.52-.17,1.05-.23,1.58s-.11,1.11-.11,1.43a4,4,0,1,1-8,0c0-.12,0-.24,0-.37Z" style="fill:#324a58;"/><path d="M420.11,170.83a8.82,8.82,0,0,0-.81-.8c-.32-.28-.65-.57-1-.83a23.59,23.59,0,0,0-2.1-1.5,16.25,16.25,0,0,0-4.58-2,9.18,9.18,0,0,0-4.74.07,10.55,10.55,0,0,0-4.36,2.74l0,0a1.26,1.26,0,0,1-1.95-1.58,13.72,13.72,0,0,1,4.73-4.73,13.54,13.54,0,0,1,6.85-1.77,21.74,21.74,0,0,1,6.81,1.19,28.78,28.78,0,0,1,3.15,1.27c.51.24,1,.5,1.52.77a16.54,16.54,0,0,1,1.59,1l.45.3a4.08,4.08,0,1,1-5.53,5.88Z" style="fill:#324a58;"/><path d="M442.78,95.72s-20.26,49-50.23,25.74,24.8-49.54,24.8-49.54-24.75,28.43-7.83,28.19C431,99.82,442.78,95.72,442.78,95.72Z" style="fill:#324a58;"/><path d="M398.75,125.53s-30.67,16.11-31.89-12c0,0-10.93,26.71,15.94,32.62Z" style="fill:#324a58;"/><path d="M501.78,113.51s17.38,44.05,12.48,71.87l22,8.25,8.56-26.3s2.15-19.88,13.67-14.25Z" style="fill:#324a58;"/><path d="M530.22,76.47a2,2,0,0,1,2.07-1.93c3.25.12,13.82.54,27.45,1.27C576.82,72.52,622.16,60.38,583,29.1c-34.52-27.56-67.67-9.88-83.2,1.83a33.43,33.43,0,0,1-14.53,15.26,2,2,0,0,1-1.89-3.53c10.86-5.83,14.91-16.12,16.28-24.81C497.37,2.55,474.4-7.48,438.42,7.08c-51.38,20.8,0,50.16,0,50.16L438,58c24.34,8.41,88.4,31.81,119.24,55.3,15.13-1.15,74.28-6.43,73.21-18.59-.45-5.13-10.94-8.9-24-11.62-23.51-2.1-52-3.67-74.31-4.51A2,2,0,0,1,530.22,76.47Z" style="fill:#ff9b19;"/><path d="M417.35,94.67l141.16,58.41L554,115.81C523.47,93,459.36,69.62,436,61.52Z" style="fill:#ff9b19;"/><path d="M416.23,675.3l242.45-2.53C651.5,559,625.33,482.32,611,447.9c-24-37.56-31.27-77.65-33.16-104.81a253.56,253.56,0,0,1,0-35.76A60.07,60.07,0,0,0,556.31,304l-12.71.37a2.4,2.4,0,0,1,0,.46l-4.39,25.55a2,2,0,0,1-2,1.66h-44.8l-56.85,69.29,85.07-2.55a2.49,2.49,0,0,1,2.26,3.71C521.87,404.33,420.4,588.39,416.23,675.3Z" style="fill:#ff9b19;"/><circle cx="467.39" cy="430.8" r="7.29" style="fill:#324a58;"/><circle cx="451.09" cy="477.44" r="7.29" style="fill:#324a58;"/><circle cx="423.18" cy="547.63" r="7.29" style="fill:#324a58;"/><circle cx="403.54" cy="606.49" r="7.29" style="fill:#324a58;"/><polyline points="637.77 523.63 643.77 547.63 643.77 547.63 673.46 526.33" style="fill:#ff564f;"/><path d="M583.23,568.88l-3,.08v.28l3-.35Z" style="fill:#ff564f;"/><path d="M525.43,615.36a3.82,3.82,0,0,0-1-2.94l-7.51,2.13a4.62,4.62,0,0,0-.08,8.89C519.63,622.05,525,618.74,525.43,615.36Z" style="fill:#ff564f;"/><path d="M536.92,562.3c.57-1.4-.45-3.21-1.59-4.65L521,559.59a6.93,6.93,0,0,0-1.24,7.81C524.17,567,535.37,566.09,536.92,562.3Z" style="fill:#ff564f;"/><path d="M580.26,632.92a2.8,2.8,0,0,0-1.75-3.91,9.61,9.61,0,0,0-4.18-.18l-7.44,4.71a4.83,4.83,0,0,0-1.11,7.39h0a4.77,4.77,0,0,0,1.52,1.1C571.86,640.08,578.74,636.5,580.26,632.92Z" style="fill:#ff564f;"/><path d="M583.34,568.88l28.4-3.27a1.5,1.5,0,0,1,.35,3l-19.37,2.23-36.25,8.47-31.55,7.39a9.35,9.35,0,0,1-.55,7.41c-1.79,3.35-5.56,5.39-8.85,6.59a3.57,3.57,0,0,0,.73,0L559.38,593l-1.58-9a1.5,1.5,0,1,1,3-.52l1.58,9,5.66-1L597,589l20.72-4a1.5,1.5,0,1,1,.57,3l-23.79,4.64-67.07,19a6.35,6.35,0,0,1,1,4.18c-.34,2.68-2.37,5-4.61,6.83l56.49-11.77L577,604.11a1.5,1.5,0,0,1,2.68-1.34l3.7,7.39,22.8-4.75,18.14-7.1a1.5,1.5,0,0,1,1.1,2.8l-18.86,7.38L578.84,626a6.52,6.52,0,0,1,.63.18,5.78,5.78,0,0,1,3.55,7.92,9.41,9.41,0,0,1-1.39,2.24c8.61-4.78,21.21-11.68,31.45-16.85l-2.3-2.63a1.5,1.5,0,0,1,2.26-2l2.81,3.21c3.79-1.87,7.13-3.44,9.65-4.46,18.2-7.38,29.6-17,38.56-23.86,10.21-22-1.4-40.86-1.54-41.07a2,2,0,0,1,3.39-2.14c.13.21,10.86,17.65,4.1,39a37.88,37.88,0,0,1,3.45-2c44.15-22.12,156.83-22.2,135.43-132.24-1.28-6.63-9.8-12.22-21.9-12.22-2.59,0-20.38-14.91-29-20.23l-49.59-30.72s-19.7,5.44-36.71,31.82c3.1,1.24,27.62,7.4,49.61,38.82A21.29,21.29,0,0,1,724.7,466c8.16-11,23.35-24.37,46.63-18.66a2,2,0,0,1-1,3.89c-24.33-6-39,11.19-45.47,21.51-2.08,12.58-17.92,30.63-64.59,62.91l-8.22,1.87a1.49,1.49,0,0,1-1.11,1.17L620.93,546a.45.45,0,0,1-.16,0l-82.1,11.15c1.43,2.29,1.78,4.38,1,6.24-2,4.9-11.15,6.19-17.51,6.77a6.93,6.93,0,0,0,4.18,1.13l38.73-2,15.12-.41c.1-4.22.13-8.29,0-9.23a1.58,1.58,0,0,1,0-.89,1.51,1.51,0,0,1,1.82-1.09" style="fill:#ff564f;"/><path d="M521.73,592.67a6.56,6.56,0,0,0,.27-5.3l-7.72,1.81a5.82,5.82,0,0,0-4.9,6.11,18.45,18.45,0,0,0,2.57,3.36C515.07,597.83,519.92,596.07,521.73,592.67Z" style="fill:#ff564f;"/><path d="M243.71,248.05c1-1.29,1.71-4.2-.81-10.67a103.62,103.62,0,0,0-11.56-6.24,13.63,13.63,0,0,1-2.62,11.05l10.4,7.28C240,249.56,242.42,249.64,243.71,248.05Z" style="fill:#ff564f;"/><path d="M144.71,217.22a7.2,7.2,0,0,1,5.82-1.05,1.5,1.5,0,1,1-.67,2.92,4.26,4.26,0,0,0-3.48.62c-2.21,1.48-3.68,4.91-4.51,7.62l.92,1,17.45,11.47,5.51-8.43a1.56,1.56,0,0,1,1-.66,1.51,1.51,0,0,1,1.17.32l8.62,7a1.5,1.5,0,0,1-.9,2.67c-1.82.05-6.92.78-8.61,3.53a4.68,4.68,0,0,0-.27.55,1.46,1.46,0,0,1-.23,1l0,0a8.34,8.34,0,0,0,1,4.52c1.94,4.07,5.6,6,9.8,5.09a11.54,11.54,0,0,0,8.94-10.15c-.39-.29-.78-.59-1.15-.9-3.8-3.17-5.89-6.74-6-10l-25-24.31c-9-4.18-16.44-5.05-19.14-1.53-2.45,3.19-.42,9.24,4.7,16C140.64,221.89,142.26,218.87,144.71,217.22Z" style="fill:#ff564f;"/><path d="M206,205.75l-9.42,7.16,1,1.42c2.16-2,6.46-5.45,10.28-6.1Z" style="fill:#ff564f;"/><path d="M180.5,230.81a17.67,17.67,0,0,1,8.33-6.56l-4.93-4.46L177,228.15l3,2.93A1.56,1.56,0,0,1,180.5,230.81Zm-1.79-2.75-.62-.64.76.47A2.09,2.09,0,0,0,178.71,228.06Z" style="fill:#ff564f;"/><path d="M160.44,199.17a6.52,6.52,0,0,1,5.33-.45,1.5,1.5,0,1,1-.92,2.85,3.65,3.65,0,0,0-3,.24c-2.39,1.28-4.07,4.95-4.79,7l17.75,17.24,7.78-9.38a1.51,1.51,0,0,1,1-.53,1.5,1.5,0,0,1,1.11.38l7.43,6.71a28,28,0,0,1,5.73-.63,11.42,11.42,0,0,1-.84-3.59,7.37,7.37,0,0,1,0-.94,1.46,1.46,0,0,1-.93-.6l-2.79-4,0,0-6.8-9.78-1-.76c-14.6-11.22-29.77-16-33.89-10.62-2.19,2.86-.78,8,3.21,13.9C155.89,203.86,157.69,200.64,160.44,199.17Z" style="fill:#ff564f;"/><path d="M188.16,178.27a1.5,1.5,0,1,1-.19,3c-4.1-.26-7,.47-8.31,2.11a5,5,0,0,0-.82,4l16.07,23.08,10.52-8a1.47,1.47,0,0,1,1.11-.29,1.53,1.53,0,0,1,1,.59l5.16,6.92a1.5,1.5,0,0,1-2.25,2c-1.49-1.46-5.23.47-8.56,3h0a5,5,0,0,0-1.82,4.19c.28,5.37,7.72,12.3,11.48,15.26a78.43,78.43,0,0,1,16-8.37,1.07,1.07,0,0,0,.74-.82c1.3-5.11-12-22.83-20.63-32.8a1.5,1.5,0,1,1,2.26-2c2.4,2.76,23.39,27.21,21.28,35.51a4.11,4.11,0,0,1-1.07,1.9c3.42,1,9.83,4.13,22.48,12.34,1.76,1.13,3.5,2.28,5.18,3.41a45.11,45.11,0,0,0-5.5-12.16c-7.27-12.24-31.67-37-42.46-46.89-8.32-7.63-17.07-12.85-23.65-14.6-3.45-1.55-6.39-1.78-8.34-.37-2.77,2-3,6.93-1.2,13.24a6.47,6.47,0,0,1,.67-1C179.3,179,183,177.94,188.16,178.27Z" style="fill:#ff564f;"/><path d="M197.8,246.15c3.75-2.18,7.63-9.47,8.88-12.24a40.55,40.55,0,0,1-7.37-8.53,1.48,1.48,0,0,1-.75.21h-.32a24.39,24.39,0,0,0-5.59.63,1.44,1.44,0,0,1-.92.22c-6.75,1.92-9.13,6.49-9.62,7.6-.11,2.8,2.33,5.92,4.92,8.08.53.44,1.06.85,1.61,1.23l.07,0C192.51,246,196.36,247,197.8,246.15Z" style="fill:#ff564f;"/><path d="M164.51,242.65c1.65-2.68,4.91-3.91,7.47-4.47l-4.62-3.74-4.62,7.05,1.77,1.16Z" style="fill:#ff564f;"/><path d="M389.08,1069.54a33.49,33.49,0,0,1-4.37,4.14c5.37,2.15,10.05,5.5,11.1,10.71a2,2,0,0,1-1.57,2.35,1.87,1.87,0,0,1-.4,0,2,2,0,0,1-2-1.61c-.84-4.23-5.72-7-11.23-8.71a33.68,33.68,0,0,1-5.54,2.59c6.56,2,12.92,5.61,14.15,11.79a2,2,0,0,1-1.56,2.35,1.87,1.87,0,0,1-.4,0,2,2,0,0,1-2-1.61c-1.19-5.95-10.36-9-18-10.35l-4.82,1.27c6.74,2,13.42,5.6,14.69,12a2,2,0,0,1-1.57,2.35,1.81,1.81,0,0,1-.4,0,2,2,0,0,1-1.95-1.61C372,1089,362,1086,354.12,1084.74l-5.08,1.33a40.14,40.14,0,0,0-19.16,19.34,10.79,10.79,0,0,0-1.3,4.27c-.07,53.25,99.48-21,99.48-21v-24.06H393.39Z" style="fill:#2568ef;"/><path d="M529.86,1104.59a51,51,0,0,0-14.27-15.4c-7.87.71-22.31,3.56-23.82,11.13a2,2,0,0,1-2,1.61,1.72,1.72,0,0,1-.39,0,2,2,0,0,1-1.57-2.35c1.77-8.89,14.12-12.36,22.44-13.7l0,0-3.38-.71a2,2,0,0,1-.9.26c-6.74.27-24.61,2.83-26.31,11.3a2,2,0,0,1-2,1.61,1.72,1.72,0,0,1-.39,0,2,2,0,0,1-1.57-2.35c1.61-8,11.83-11.63,19.93-13.24a40.34,40.34,0,0,1-6.46-2.4c-7.21,1.52-15,4.52-16.09,10a2,2,0,0,1-2,1.61,1.72,1.72,0,0,1-.39,0,2,2,0,0,1-1.57-2.35c1.29-6.44,8.13-10,15-12a41.34,41.34,0,0,1-11.22-11l-1.2-1.76H432.5v24.06s99.55,74.22,99.48,21C532.08,1108.71,531.19,1106.81,529.86,1104.59Z" style="fill:#2568ef;"/><path d="M321.2,228.89c-29.21-22.7-92.71-13.07-92.71-13.07a61.07,61.07,0,0,1,2.64,7.4,4.91,4.91,0,0,1-1,4.35l11.1,5.32s30.39-22.21,72.51,1.52c0,0,16.52,40.3,50.49,43.07,33.56,2.73,40.91-34.3,40.91-34.3L353.58,232Z" style="fill:#2568ef;"/><path d="M167,269.21c-6-.92-15.56-10.95-23.1-16.78,0,0-35.54,4.44-45,30.59-5.4,14.83,33.88,1.81,68.89-13.36l.87-.38Z" style="fill:#2568ef;"/><path d="M175.65,265.09a27.71,27.71,0,0,0,1.47-6.56A14.24,14.24,0,0,0,189,247.11s8.68,5.54,13.31-.86c0,0,5.14-6.31,6.71-10.3l.77.61s1.33,1.94,3.41,0c0,0,6.3-4.62,7.35-4.4,0,0-4.1,5.52-3.22,11.12s-42.84,23.58-42.84,23.58Z" style="fill:#2568ef;"/><path d="M384.24,250a161.12,161.12,0,0,1-23.15-1.87c-18.62-2.78-36.24-9.5-40.13-15.3a4.23,4.23,0,0,1-.78-3.43h0a2.74,2.74,0,0,1,1.35-1.72c8.25-4.89,74.92,12.48,82.5,14.48a1.49,1.49,0,0,1,1.1,1.67c-.49,3.3-5.32,5.3-14.34,5.95C388.75,250,386.56,250,384.24,250Zm-61.16-19.76a1.78,1.78,0,0,0,.37.92c3,4.47,19,11.16,38.08,14,10.84,1.61,21.15,2.19,29,1.63,6-.43,9.1-1.42,10.54-2.29-5.51-1.42-20.8-5.31-36.4-8.72C329.4,228.11,323.91,229.71,323.08,230.28Zm-1.45-.48,1.46.36Z" style="fill:#fff;"/><path d="M727.53,383.05l-142-73.42c-.24-.12-.5-.21-.74-.32-1.56,24.62-.64,73.12,23.35,120l48,22.36C668.29,397.63,727.53,383.05,727.53,383.05Z" style="fill:#ff9b19;"/></g>
        </g>
    </g>
</g>

<!-- ITEM 2 -->
<g>
    <defs>
        
        <clipPath id="clip-path-id-viewbox-item-2">
            <rect x="0.0" y="0.0" width="333.63" height="305.01"/>
        </clipPath>
    </defs>
    <g transform="translate(61.0 190.0) rotate(0.0 137.5 126.0) scale(0.8242664029014177 0.8262024195928003)">
        <g clip-path="url(#clip-path-id-viewbox-item-2)" transform="translate(-0.0 -0.0)">
<g id="Мыло-i2"><polygon points="304.4 119.75 303.75 141.77 42.82 158.54 43.94 120.39 29.29 119.96 27.54 179.31 42.19 179.74 42.49 169.58 303.37 154.56 303.12 163.23 321.32 163.77 322.62 119.77 304.4 119.75" style="fill:#2568ef;"/><polygon points="8.09 2.74 29.06 3.36 33.23 110.55 317.39 104.25 305.66 23.24 327.64 23.89 333.63 119.4 16.73 123.26 8.09 2.74" style="fill:#ff564f;"/><circle cx="88.42" cy="54.24" r="54.24" style="fill:#ffe3e2;"/><path d="M90,0a54.24,54.24,0,1,0,52.62,55.82A54.24,54.24,0,0,0,90,0ZM87.4,89.07a34.85,34.85,0,1,1,35.85-33.8A34.86,34.86,0,0,1,87.4,89.07Z" style="fill:#2568ef;"/><circle cx="147.04" cy="55.97" r="54.24" style="fill:#ffe3e2;"/><path d="M148.63,1.75a54.24,54.24,0,1,0,52.62,55.82A54.24,54.24,0,0,0,148.63,1.75ZM146,90.8A34.85,34.85,0,1,1,181.87,57,34.85,34.85,0,0,1,146,90.8Z" style="fill:#2568ef;"/><circle cx="205.65" cy="57.7" r="54.24" style="fill:#ffe3e2;"/><path d="M207.25,3.48a54.24,54.24,0,1,0,52.62,55.81A54.24,54.24,0,0,0,207.25,3.48Zm-2.63,89a34.84,34.84,0,1,1,35.86-33.8A34.84,34.84,0,0,1,204.62,92.52Z" style="fill:#2568ef;"/><polygon points="184.42 148.12 175.67 267.27 282.76 270.43 281.97 143.17 184.42 148.12" style="fill:#ffe3e2;"/><polygon points="176.01 255.68 282.68 258.82 282.56 238.51 178.01 235.43 176.01 255.68" style="fill:#ff564f;"/><polygon points="182.25 176.16 282.23 179.11 282.06 158.79 184.24 155.91 182.25 176.16" style="fill:#ff564f;"/><polygon points="179.59 213.93 282.43 216.96 282.3 196.64 181.08 193.66 179.59 213.93" style="fill:#ff564f;"/><path d="M89.52,236.74c-12-20.8-20.68-35.66-25.23-43.46l7.47-40.37H62.63l-5.82,35.93L21.13,206.13S-14.5,295.28,6.77,282.7s30.8-37.16,30.8-37.16S40,312.28,66.7,302.07,115.19,281.11,89.52,236.74Z" style="fill:#ff564f;"/></g>
        </g>
    </g>
</g>

              </svg>