<?xml version="1.0" encoding="UTF-8"?><svg version="1.1" xmlns="http://www.w3.org/2000/svg" xmlns:xlink="http://www.w3.org/1999/xlink" viewBox="0 0 1500 1500" width="1500" height="1500" x="0px" y="0px">
              
              <!-- ITEM 0 -->
<g>
    <defs>
        
        <clipPath id="clip-path-id-viewbox-item-0">
            <rect x="0.0" y="0.0" width="30.67" height="81.17"/>
        </clipPath>
    </defs>
    <g transform="translate(903.0 311.0) rotate(7.1194748445573754 187.5 489.5) scale(12.226931855233126 12.06110632006899)">
        <g clip-path="url(#clip-path-id-viewbox-item-0)" transform="translate(-0.0 -0.0)">
<title>ice_cream_4</title><g id="Layer_2-i0" data-name="Layer 2"><g id="ice_cream_4-i0"><path d="M15.33,81.17a4.51,4.51,0,0,1-4.5-4.5V50.33a4.5,4.5,0,0,1,9,0V76.67A4.5,4.5,0,0,1,15.33,81.17Z" style="fill:#e5a024"/><path d="M15.33,0A15.33,15.33,0,0,0,0,15.33V50a9.35,9.35,0,0,0,9.34,9.35h12A9.35,9.35,0,0,0,30.67,50V15.33A15.33,15.33,0,0,0,15.33,0Z" style="fill:#cf4327"/></g></g>
        </g>
    </g>
</g>

<!-- ITEM 1 -->
<g>
    <defs>
        
        <clipPath id="clip-path-id-viewbox-item-1">
            <rect x="0.0" y="0.0" width="48.5" height="89.9"/>
        </clipPath>
    </defs>
    <g transform="translate(146.0 286.0) rotate(354.13982821695913 267.0 490.0) scale(11.010309278350515 10.901001112347052)">
        <g clip-path="url(#clip-path-id-viewbox-item-1)" transform="translate(-0.0 -0.0)">
<title>ice_cream_1</title><g id="Layer_2-i1" data-name="Layer 2"><g id="ice_cream_1-i1"><path d="M27.91,87.28,41.83,42.89h-35L20.79,87.28A3.73,3.73,0,0,0,27.91,87.28Z" style="fill:#e5a024"/><path d="M43.5,32.83H39.38A5,5,0,0,0,38.17,23H32.68a5.38,5.38,0,0,0,4.39-3.68c1.27-4-2-6.3-4.87-8.36a29.93,29.93,0,0,1-5-4.13,5,5,0,0,0-8.85-4.55c-2.68,4.13-1.31,7.86,1.18,10.89H16.39A5,5,0,0,0,15.17,23H10.33a5,5,0,0,0-1.21,9.83H5a5,5,0,0,0,0,10H43.5a5,5,0,0,0,0-10Z" style="fill:#eae2c2"/><path d="M20.83,68a2,2,0,0,1-1.95-1.55L15.13,50.2a2,2,0,1,1,3.9-.9l3.75,16.25a2,2,0,0,1-1.5,2.4A2.3,2.3,0,0,1,20.83,68Z" style="fill:#f3bc63"/></g></g>
        </g>
    </g>
</g>

<!-- ITEM 2 -->
<g>
    <defs>
        
        <clipPath id="clip-path-id-viewbox-item-2">
            <rect x="0.0" y="0.0" width="400.0" height="224.278"/>
        </clipPath>
    </defs>
    <g transform="translate(263.0 843.0) rotate(253.83508398239871 123.5 69.5) scale(0.6175 0.6197665397408574)">
        <g clip-path="url(#clip-path-id-viewbox-item-2)" transform="translate(-0.0 -0.0)">
<title>speech_bubble_m_2</title><g id="Layer_2-i2" data-name="Layer 2"><g id="speech_bubble_m_2-i2"><path d="M350,157s-110.917,3-150,3c-35.917,0-150-3-150-3A50,50,0,0,1,0,107V54A50,50,0,0,1,50,4S179.417,0,205,0c49.417,0,145,4,145,4a50,50,0,0,1,50,50v53A50,50,0,0,1,350,157Z" fill="#e5a024"/><path d="M38,114s38.141,62.224-16.9,101.4a4.884,4.884,0,0,0,4.136,8.684C67.55,212.492,136.669,183.192,149,114Z" fill="#e5a024"/></g></g>
        </g>
    </g>
</g>

<!-- ITEM 3 -->
<g>
    <defs>
        
        <clipPath id="clip-path-id-viewbox-item-3">
            <rect x="0.0" y="0.0" width="115.123" height="104.041"/>
        </clipPath>
    </defs>
    <g transform="translate(939.0 529.0) rotate(8.074556218727823 169.5 153.5) scale(2.944676563327919 2.950759796618641)">
        <g clip-path="url(#clip-path-id-viewbox-item-3)" transform="translate(-0.0 -0.0)">

  <title>emotion_friendly</title>
  <g id="Слой_1-i3" data-name="Слой 1">
    <g>
      <path d="M29.484,40.5c0-.04,0-.078,0-.117s0-.078,0-.117c0-.2-.023-.389-.027-.587-.013-.476-.03-.95-.066-1.417a26.3,26.3,0,0,0-1.8-8.113h-.115c-2.245-5.29-6.151-8.8-10.6-8.8s-8.358,3.513-10.6,8.8H6.151a26.274,26.274,0,0,0-1.8,8.113c-.036.467-.053.941-.066,1.417,0,.2-.027.387-.027.587,0,.039,0,.077,0,.117s0,.077,0,.117c0,.2.023.389.027.586.013.476.03.951.066,1.418a26.274,26.274,0,0,0,1.8,8.112h.115c2.245,5.29,6.15,8.8,10.6,8.8s8.358-3.514,10.6-8.8h.115a26.3,26.3,0,0,0,1.8-8.112c.036-.467.053-.942.066-1.418C29.461,40.885,29.484,40.7,29.484,40.5Z" fill="#3b301b"/>
      <path d="M85.909,40.5c0-.04,0-.078,0-.117s0-.078,0-.117c0-.2-.023-.389-.028-.587-.012-.476-.029-.95-.065-1.417a26.3,26.3,0,0,0-1.8-8.113H83.9c-2.245-5.29-6.151-8.8-10.6-8.8s-8.358,3.513-10.6,8.8h-.114a26.274,26.274,0,0,0-1.8,8.113c-.036.467-.053.941-.066,1.417,0,.2-.028.387-.028.587,0,.039,0,.077,0,.117s0,.077,0,.117c0,.2.024.389.028.586.013.476.03.951.066,1.418a26.274,26.274,0,0,0,1.8,8.112h.114c2.246,5.29,6.151,8.8,10.6,8.8s8.358-3.514,10.6-8.8h.115a26.3,26.3,0,0,0,1.8-8.112c.036-.467.053-.942.065-1.418C85.886,40.885,85.909,40.7,85.909,40.5Z" fill="#3b301b"/>
      <g>
        <path d="M106.741,80.618c.395.264.325,1.132-.168,2.512a13.387,13.387,0,0,1-1.1,2.4,30.2,30.2,0,0,1-1.867,2.941l-1.249,1.6-.682.844c-.245.274-.507.542-.77.819l-1.658,1.7c-.586.57-1.245,1.095-1.9,1.66a21.425,21.425,0,0,1-2.1,1.636c-.747.516-1.5,1.068-2.3,1.568l-2.513,1.433c-.857.477-1.787.849-2.7,1.275a25.149,25.149,0,0,1-2.792,1.071l-1.388.47c-.461.15-.936.245-1.4.364-.932.21-1.83.477-2.742.605l-2.669.366c-.87.1-1.732.092-2.558.128l-1.223.031-1.187-.074-2.237-.182c-.712-.11-1.392-.25-2.036-.377a18.756,18.756,0,0,1-3.4-.969q-.732-.265-1.345-.522-.6-.312-1.077-.6c-1.27-.768-1.867-1.4-1.721-1.849s1.01-.687,2.382-.742c.343-.014.718-.017,1.123-.007.412-.027.855-.048,1.324-.059.938-.018,1.982.012,3.139-.092l1.793-.082,1.927-.214,1.008-.1,1.032-.184c.7-.131,1.416-.209,2.142-.37L78.05,97.1c.758-.164,1.505-.452,2.281-.665.385-.122.781-.214,1.166-.358l1.162-.44c.78-.3,1.585-.557,2.356-.939.776-.367,1.573-.663,2.315-1.054l2.2-1.142c.712-.394,1.385-.831,2.066-1.223a22.181,22.181,0,0,0,1.948-1.245c.62-.43,1.255-.813,1.834-1.24l1.678-1.26.81-.594.744-.621c.5-.4.975-.784,1.431-1.15.922-.731,1.688-1.471,2.446-2.059s1.365-1.147,1.929-1.559C105.529,80.713,106.347,80.355,106.741,80.618Z" fill="#3b301b"/>
        <path d="M115.085,85.152a1.553,1.553,0,0,1-.552,1.484,5.137,5.137,0,0,1-2.521,1.24,8.951,8.951,0,0,1-4.155-.125,10.424,10.424,0,0,1-7.343-7.054,8.942,8.942,0,0,1-.292-4.146,5.135,5.135,0,0,1,1.137-2.569,1.554,1.554,0,0,1,1.461-.611c.939.228,1.489,1.423,2.241,2.746a16.871,16.871,0,0,0,2.964,4.11,16.85,16.85,0,0,0,4.226,2.8C113.6,83.721,114.819,84.223,115.085,85.152Z" fill="#3b301b"/>
      </g>
      <circle cx="12.355" cy="38.772" r="5.402" fill="#eae2c2"/>
      <circle cx="19.092" cy="27.953" r="3.252" fill="#eae2c2"/>
      <circle cx="68.719" cy="38.772" r="5.402" fill="#eae2c2"/>
      <circle cx="75.456" cy="27.953" r="3.252" fill="#eae2c2"/>
      <path d="M29.484,16.381a1.053,1.053,0,0,1-.784-.093,5.371,5.371,0,0,1-.98-.657c-.365-.293-.766-.652-1.225-1.046s-.959-.831-1.527-1.274-1.194-.9-1.869-1.348a21.523,21.523,0,0,0-2.238-1.246,16.951,16.951,0,0,0-2.56-.983,16.574,16.574,0,0,0-2.8-.552,16.539,16.539,0,0,0-2.851.012,17,17,0,0,0-2.7.48,21.611,21.611,0,0,0-2.433.8c-.748.316-1.457.632-2.091.969s-1.219.661-1.74.962-.988.576-1.4.8a5.323,5.323,0,0,1-1.087.459A1.055,1.055,0,0,1,.412,13.6a.9.9,0,0,1-.386-.679,3.276,3.276,0,0,1,.1-1.3,7.629,7.629,0,0,1,.721-1.8A11.659,11.659,0,0,1,2.318,7.711a15.053,15.053,0,0,1,2.3-2.142,16.79,16.79,0,0,1,7.069-3.036,17.281,17.281,0,0,1,4.468-.191,17.3,17.3,0,0,1,4.352,1.034A16.788,16.788,0,0,1,26.874,7.7a15.033,15.033,0,0,1,1.855,2.54,11.623,11.623,0,0,1,1.045,2.349,7.537,7.537,0,0,1,.366,1.909,3.278,3.278,0,0,1-.148,1.3A.894.894,0,0,1,29.484,16.381Z" fill="#3b301b"/>
      <path d="M92.049,14.982a1,1,0,0,1-.818-.1,6.736,6.736,0,0,1-1.112-.766c-.426-.344-.9-.766-1.459-1.229s-1.168-.976-1.869-1.494-1.481-1.044-2.325-1.565a24.416,24.416,0,0,0-2.8-1.411A19.93,19.93,0,0,0,78.453,7.36a17.111,17.111,0,0,0-7.038-.24,19.832,19.832,0,0,0-3.276.833A24.161,24.161,0,0,0,65.248,9.17c-.878.462-1.7.923-2.426,1.4s-1.386.937-1.967,1.363-1.092.813-1.54,1.127a6.742,6.742,0,0,1-1.161.688,1,1,0,0,1-.824.047.867.867,0,0,1-.389-.715,4,4,0,0,1,.129-1.473,9.462,9.462,0,0,1,.8-2.095A14.215,14.215,0,0,1,59.5,7.024,18.188,18.188,0,0,1,62.07,4.441a20.041,20.041,0,0,1,3.545-2.294,19.79,19.79,0,0,1,4.44-1.62,19.1,19.1,0,0,1,10.2.349,19.813,19.813,0,0,1,4.32,1.917,20.069,20.069,0,0,1,3.38,2.531,18.135,18.135,0,0,1,2.385,2.753,14.182,14.182,0,0,1,1.458,2.6,9.46,9.46,0,0,1,.657,2.145,3.989,3.989,0,0,1,.028,1.478A.863.863,0,0,1,92.049,14.982Z" fill="#3b301b"/>
    </g>
  </g>

        </g>
    </g>
</g>

<!-- ITEM 4 -->
<g>
    <defs>
        <clipPath id="clip-path-id-crop-item-4">
          <g transform="scale(0.2148036253776435 0.2133116883116883)">
          <rect x="114.0" y="0.0" width="216.0" height="140.0"/>
          </g>
        </clipPath>
        <clipPath id="clip-path-id-viewbox-item-4">
            <rect x="0.0" y="0.0" width="71.1" height="65.7"/>
        </clipPath>
    </defs>
    <g clip-path="url(#clip-path-id-crop-item-4)" transform="translate(217.0 595.0) rotate(353.8026647081949 165.5 154.0) scale(4.655414908579466 4.687975646879757)">
        <g clip-path="url(#clip-path-id-viewbox-item-4)" transform="translate(-0.0 -0.0)">
<title>face_happy_2</title><g id="Layer_2-i4" data-name="Layer 2"><g id="face_happy_2-i4"><ellipse cx="11.357" cy="10.8" rx="4.5" ry="8.5" fill="#eae2c2"/><ellipse cx="65.357" cy="10.8" rx="4.5" ry="8.5" fill="#eae2c2"/><path d="M62.8,36.9H8.2a4.268,4.268,0,0,0-4.3,4.3v.6c2.4,15,15.6,23.9,31.5,23.9s29.2-8.9,31.5-23.9A4.273,4.273,0,0,0,63.3,37,.749.749,0,0,0,62.8,36.9Z" fill="#3b301b"/><path d="M15.8,41.8a1.831,1.831,0,0,0,1.8,1.6h4.5a1.831,1.831,0,0,0,1.8-1.6,9.7,9.7,0,0,0,.1-1.7,7.6,7.6,0,0,0-.5-3.3H16.2a8.815,8.815,0,0,0-.4,3.3A4.854,4.854,0,0,0,15.8,41.8Z" fill="#eae2c2"/><path d="M8.7,26.8c7.9,0,8.7-6,8.7-13.4S15.6,0,8.7,0,0,6,0,13.4.8,26.8,8.7,26.8ZM9,5.6a5.381,5.381,0,0,1,1-2,1.7,1.7,0,0,1,2.3-.3l.3.3a5.381,5.381,0,0,1,1,2,6.8,6.8,0,0,1,.2,2,6.448,6.448,0,0,1-.3,2,5.64,5.64,0,0,1-1.1,2,1.309,1.309,0,0,1-1.9.2l-.2-.2a7.814,7.814,0,0,1-1.1-2,6.929,6.929,0,0,1-.3-2,4.441,4.441,0,0,1,.1-2ZM9,15.7a2,2,0,0,1,1-.8,2.967,2.967,0,0,1,2.6,0,3.915,3.915,0,0,1,1,.8,1.077,1.077,0,0,1,.2.8,1.135,1.135,0,0,1-.3.8,3.134,3.134,0,0,1-1.1.8,2.56,2.56,0,0,1-2.1,0,4.44,4.44,0,0,1-1.1-.8,1.135,1.135,0,0,1-.3-.8.8.8,0,0,1,.1-.8Z" fill="#3b301b"/><path d="M62.4,26.8c7.9,0,8.7-6,8.7-13.4S69.3,0,62.4,0s-8.7,6-8.7,13.4S54.4,26.8,62.4,26.8Zm.2-21.2a5.381,5.381,0,0,1,1-2,1.7,1.7,0,0,1,2.3-.3l.3.3a5.381,5.381,0,0,1,1,2,6.8,6.8,0,0,1,.2,2,6.448,6.448,0,0,1-.3,2,5.64,5.64,0,0,1-1.1,2,1.309,1.309,0,0,1-1.9.2l-.2-.2a7.814,7.814,0,0,1-1.1-2,6.929,6.929,0,0,1-.3-2,6.56,6.56,0,0,1,.1-2Zm0,10.1a2,2,0,0,1,1-.8,2.967,2.967,0,0,1,2.6,0,3.915,3.915,0,0,1,1,.8,1.077,1.077,0,0,1,.2.8,1.135,1.135,0,0,1-.3.8,3.134,3.134,0,0,1-1.1.8,2.56,2.56,0,0,1-2.1,0,4.44,4.44,0,0,1-1.1-.8,1.135,1.135,0,0,1-.3-.8,1.185,1.185,0,0,1,.1-.8Z" fill="#3b301b"/></g></g>
        </g>
    </g>
</g>

<!-- ITEM 5 -->
<g>
    <defs>
        <clipPath id="clip-path-id-crop-item-5">
          <g transform="scale(0.31184210526315786 0.3099056603773585)">
          <rect x="0.0" y="110.0" width="228.0" height="101.0"/>
          </g>
        </clipPath>
        <clipPath id="clip-path-id-viewbox-item-5">
            <rect x="0.0" y="0.0" width="71.1" height="65.7"/>
        </clipPath>
    </defs>
    <g clip-path="url(#clip-path-id-crop-item-5)" transform="translate(305.0 696.0) rotate(354.26320847675595 114.0 106.0) scale(3.206751054852321 3.226788432267884)">
        <g clip-path="url(#clip-path-id-viewbox-item-5)" transform="translate(-0.0 -0.0)">
<title>face_happy_2</title><g id="Layer_2-i5" data-name="Layer 2"><g id="face_happy_2-i5"><ellipse cx="11.357" cy="10.8" rx="4.5" ry="8.5" fill="#eae2c2"/><ellipse cx="65.357" cy="10.8" rx="4.5" ry="8.5" fill="#eae2c2"/><path d="M62.8,36.9H8.2a4.268,4.268,0,0,0-4.3,4.3v.6c2.4,15,15.6,23.9,31.5,23.9s29.2-8.9,31.5-23.9A4.273,4.273,0,0,0,63.3,37,.749.749,0,0,0,62.8,36.9Z" fill="#3b301b"/><path d="M15.8,41.8a1.831,1.831,0,0,0,1.8,1.6h4.5a1.831,1.831,0,0,0,1.8-1.6,9.7,9.7,0,0,0,.1-1.7,7.6,7.6,0,0,0-.5-3.3H16.2a8.815,8.815,0,0,0-.4,3.3A4.854,4.854,0,0,0,15.8,41.8Z" fill="#eae2c2"/><path d="M8.7,26.8c7.9,0,8.7-6,8.7-13.4S15.6,0,8.7,0,0,6,0,13.4.8,26.8,8.7,26.8ZM9,5.6a5.381,5.381,0,0,1,1-2,1.7,1.7,0,0,1,2.3-.3l.3.3a5.381,5.381,0,0,1,1,2,6.8,6.8,0,0,1,.2,2,6.448,6.448,0,0,1-.3,2,5.64,5.64,0,0,1-1.1,2,1.309,1.309,0,0,1-1.9.2l-.2-.2a7.814,7.814,0,0,1-1.1-2,6.929,6.929,0,0,1-.3-2,4.441,4.441,0,0,1,.1-2ZM9,15.7a2,2,0,0,1,1-.8,2.967,2.967,0,0,1,2.6,0,3.915,3.915,0,0,1,1,.8,1.077,1.077,0,0,1,.2.8,1.135,1.135,0,0,1-.3.8,3.134,3.134,0,0,1-1.1.8,2.56,2.56,0,0,1-2.1,0,4.44,4.44,0,0,1-1.1-.8,1.135,1.135,0,0,1-.3-.8.8.8,0,0,1,.1-.8Z" fill="#3b301b"/><path d="M62.4,26.8c7.9,0,8.7-6,8.7-13.4S69.3,0,62.4,0s-8.7,6-8.7,13.4S54.4,26.8,62.4,26.8Zm.2-21.2a5.381,5.381,0,0,1,1-2,1.7,1.7,0,0,1,2.3-.3l.3.3a5.381,5.381,0,0,1,1,2,6.8,6.8,0,0,1,.2,2,6.448,6.448,0,0,1-.3,2,5.64,5.64,0,0,1-1.1,2,1.309,1.309,0,0,1-1.9.2l-.2-.2a7.814,7.814,0,0,1-1.1-2,6.929,6.929,0,0,1-.3-2,6.56,6.56,0,0,1,.1-2Zm0,10.1a2,2,0,0,1,1-.8,2.967,2.967,0,0,1,2.6,0,3.915,3.915,0,0,1,1,.8,1.077,1.077,0,0,1,.2.8,1.135,1.135,0,0,1-.3.8,3.134,3.134,0,0,1-1.1.8,2.56,2.56,0,0,1-2.1,0,4.44,4.44,0,0,1-1.1-.8,1.135,1.135,0,0,1-.3-.8,1.185,1.185,0,0,1,.1-.8Z" fill="#3b301b"/></g></g>
        </g>
    </g>
</g>

<!-- ITEM 6 -->
<g>
    <defs>
        
        <clipPath id="clip-path-id-viewbox-item-6">
            <rect x="0.0" y="0.0" width="61.276" height="60.055"/>
        </clipPath>
    </defs>
    <g transform="translate(1176.0 242.0) rotate(317.3320586303747 85.0 83.5) scale(2.774332528232913 2.7807842810756807)">
        <g clip-path="url(#clip-path-id-viewbox-item-6)" transform="translate(-0.0 -0.0)">

<path style="fill:#E5A024;" d="M61.185,22.275v-0.15c-0.275-1.047-1.093-1.865-2.14-2.14l-19.85-3.51l2-10.48  c0.41-1.662-0.606-3.342-2.268-3.752c-0.754-0.186-1.551-0.082-2.232,0.292l-13.22,7.52l-1.63-7.87c-0.49-2.4-3.52-2.78-5.12-1.35  l-15.72,14c-3,2.62,1.39,6.95,4.33,4.33l11.63-10.38l1.41,6.85c0.472,1.64,2.184,2.587,3.824,2.115  c0.236-0.068,0.463-0.164,0.676-0.285l11.09-6.33l-1.33,7c-0.29,1.51,0.41,3.46,2.14,3.77l15.5,2.73l-12.81,8.41  c-1.444,0.866-1.932,2.726-1.1,4.19l4.24,6.29l-13.07-1.49c-2.12-0.24-3.31,2.14-3,3.88l1.33,6.45l-15.08-5  c-3.75-1.25-5.36,4.67-1.63,5.91l20,6.63c2.36,0.78,4.21-1.62,3.77-3.77l-1.55-7.52l15.47,1.76c2.28,0.26,3.86-2.81,2.65-4.61  l-6.22-9.22l16.5-10.81C60.942,25.006,61.511,23.612,61.185,22.275z"/>

        </g>
    </g>
</g>

<!-- ITEM 7 -->
<g>
    <defs>
        
        <clipPath id="clip-path-id-viewbox-item-7">
            <rect x="0.0" y="0.0" width="65.487" height="62.876"/>
        </clipPath>
    </defs>
    <g transform="translate(540.0 335.0) rotate(90.0 65.5 63.5) scale(2.000397025363813 2.0198485908772823)">
        <g clip-path="url(#clip-path-id-viewbox-item-7)" transform="translate(-0.0 -0.0)">

<g>
	<path style="fill:#309AC0;" d="M65.255,27.565c-2.551-8.581-5.791-16.942-9.69-25c-2.79-5.8-11.42-0.73-8.63,5   c3.499,7.287,6.402,14.845,8.68,22.6c1.82,6.16,11.48,3.54,9.64-2.66V27.565z"/>
	<path style="fill:#309AC0;" d="M47.515,37.805c-11.053-7.527-21.72-15.563-32-24.11c-4.91-4.09-12,2.95-7.07,7.07   c10.927,9.093,22.26,17.65,34,25.67c5.33,3.63,10.34-5,5-8.63H47.515z"/>
	<path style="fill:#309AC0;" d="M32.145,53.045l-25.94-6.9c-6.23-1.66-8.88,8-2.66,9.64l25.94,6.9   C35.715,64.345,38.365,54.685,32.145,53.045L32.145,53.045z"/>
</g>

        </g>
    </g>
</g>

<!-- ITEM 8 -->
<g>
    <defs>
        
        <clipPath id="clip-path-id-viewbox-item-8">
            <rect x="0.0" y="0.0" width="30.551" height="34.51"/>
        </clipPath>
    </defs>
    <g transform="translate(366.0 417.0) rotate(0.0 44.5 50.0) scale(2.9131615986383426 2.8977108084613157)">
        <g clip-path="url(#clip-path-id-viewbox-item-8)" transform="translate(-0.0 -0.0)">

<g>
	<path style="fill:#E5A024;" d="M14.43,34.51c3.47,0,3.48-5.4,0-5.4S10.95,34.51,14.43,34.51z"/>
	<path style="fill:#E5A024;" d="M25.32,17.69c6.95,0,7-10.79,0-10.79S18.32,17.69,25.32,17.69z"/>
	<path style="fill:#E5A024;" d="M2.61,5.4c3.47,0,3.48-5.4,0-5.4S-0.87,5.4,2.61,5.4z"/>
</g>

        </g>
    </g>
</g>

<!-- ITEM 9 -->
<g>
    <defs>
        <clipPath id="clip-path-id-crop-item-9">
          <g transform="scale(0.21097922848664688 0.20923566878980893)">
          <rect x="0.0" y="0.0" width="220.0" height="160.0"/>
          </g>
        </clipPath>
        <clipPath id="clip-path-id-viewbox-item-9">
            <rect x="0.0" y="0.0" width="71.1" height="65.7"/>
        </clipPath>
    </defs>
    <g clip-path="url(#clip-path-id-crop-item-9)" transform="translate(284.0 586.0) rotate(353.11330559967786 168.5 157.0) scale(4.739803094233475 4.779299847792998)">
        <g clip-path="url(#clip-path-id-viewbox-item-9)" transform="translate(-0.0 -0.0)">
<title>face_happy_2</title><g id="Layer_2-i9" data-name="Layer 2"><g id="face_happy_2-i9"><ellipse cx="11.357" cy="10.8" rx="4.5" ry="8.5" fill="#eae2c2"/><ellipse cx="65.357" cy="10.8" rx="4.5" ry="8.5" fill="#eae2c2"/><path d="M62.8,36.9H8.2a4.268,4.268,0,0,0-4.3,4.3v.6c2.4,15,15.6,23.9,31.5,23.9s29.2-8.9,31.5-23.9A4.273,4.273,0,0,0,63.3,37,.749.749,0,0,0,62.8,36.9Z" fill="#3b301b"/><path d="M15.8,41.8a1.831,1.831,0,0,0,1.8,1.6h4.5a1.831,1.831,0,0,0,1.8-1.6,9.7,9.7,0,0,0,.1-1.7,7.6,7.6,0,0,0-.5-3.3H16.2a8.815,8.815,0,0,0-.4,3.3A4.854,4.854,0,0,0,15.8,41.8Z" fill="#eae2c2"/><path d="M8.7,26.8c7.9,0,8.7-6,8.7-13.4S15.6,0,8.7,0,0,6,0,13.4.8,26.8,8.7,26.8ZM9,5.6a5.381,5.381,0,0,1,1-2,1.7,1.7,0,0,1,2.3-.3l.3.3a5.381,5.381,0,0,1,1,2,6.8,6.8,0,0,1,.2,2,6.448,6.448,0,0,1-.3,2,5.64,5.64,0,0,1-1.1,2,1.309,1.309,0,0,1-1.9.2l-.2-.2a7.814,7.814,0,0,1-1.1-2,6.929,6.929,0,0,1-.3-2,4.441,4.441,0,0,1,.1-2ZM9,15.7a2,2,0,0,1,1-.8,2.967,2.967,0,0,1,2.6,0,3.915,3.915,0,0,1,1,.8,1.077,1.077,0,0,1,.2.8,1.135,1.135,0,0,1-.3.8,3.134,3.134,0,0,1-1.1.8,2.56,2.56,0,0,1-2.1,0,4.44,4.44,0,0,1-1.1-.8,1.135,1.135,0,0,1-.3-.8.8.8,0,0,1,.1-.8Z" fill="#3b301b"/><path d="M62.4,26.8c7.9,0,8.7-6,8.7-13.4S69.3,0,62.4,0s-8.7,6-8.7,13.4S54.4,26.8,62.4,26.8Zm.2-21.2a5.381,5.381,0,0,1,1-2,1.7,1.7,0,0,1,2.3-.3l.3.3a5.381,5.381,0,0,1,1,2,6.8,6.8,0,0,1,.2,2,6.448,6.448,0,0,1-.3,2,5.64,5.64,0,0,1-1.1,2,1.309,1.309,0,0,1-1.9.2l-.2-.2a7.814,7.814,0,0,1-1.1-2,6.929,6.929,0,0,1-.3-2,6.56,6.56,0,0,1,.1-2Zm0,10.1a2,2,0,0,1,1-.8,2.967,2.967,0,0,1,2.6,0,3.915,3.915,0,0,1,1,.8,1.077,1.077,0,0,1,.2.8,1.135,1.135,0,0,1-.3.8,3.134,3.134,0,0,1-1.1.8,2.56,2.56,0,0,1-2.1,0,4.44,4.44,0,0,1-1.1-.8,1.135,1.135,0,0,1-.3-.8,1.185,1.185,0,0,1,.1-.8Z" fill="#3b301b"/></g></g>
        </g>
    </g>
</g>

<!-- ITEM 10 -->
<g>
    <defs>
        
        <clipPath id="clip-path-id-viewbox-item-10">
            <rect x="0.0" y="0.0" width="69.79139" height="102.54313"/>
        </clipPath>
    </defs>
    <g transform="translate(117.0 426.0) rotate(296.84625426618555 75.5 111.0) scale(2.1635906664131492 2.1649426928941997)">
        <g clip-path="url(#clip-path-id-viewbox-item-10)" transform="translate(-0.0 -0.0)">

  
  <title>magic abstraction2</title>
  <g id="Слой_2-i10" data-name="Слой 2">
    <g id="Слой_1-2-i10" data-name="Слой 1">
      <g>
        <path d="M25.26781,94.44706a3.66,3.66,0,0,1-2.42811-6.39989c2.34789-2.07942,6.41578-6.50712,7.28234-12.795a20.19545,20.19545,0,0,0,.08022-4.60839,22.30472,22.30472,0,0,1-12.58255,2.97139C9.12491,72.86416-.61491,65.77444.03044,58.097a11.11835,11.11835,0,0,1,4.48131-7.6,19.8902,19.8902,0,0,1,14.2684-4.2065c4.68108.5834,9.16437,3.386,12.62425,7.89115a28.71315,28.71315,0,0,1,2.66877,4.19815A42.17466,42.17466,0,0,0,44.77368,36.304c1.446-10.25968-2.09848-19.06385-5.32683-24.64246a3.66015,3.66015,0,1,1,6.336-3.66638c3.80538,6.57622,7.97693,17.0031,6.23944,29.33028a49.34194,49.34194,0,0,1-12.0885,25.44746,42.95076,42.95076,0,0,1-3.09888,3.108,28.94949,28.94949,0,0,1,.53892,10.37128c-1.189,8.62228-6.57543,14.52416-9.68026,17.27474A3.64754,3.64754,0,0,1,25.26781,94.44706ZM16.779,53.48855A12.87156,12.87156,0,0,0,9.12332,56.182a4.38456,4.38456,0,0,0-1.79824,2.52818c-.199,2.36457,5.23866,7.10918,10.93919,7.61355,3.24581.28515,6.7176-.85742,10.046-3.02461a21.99916,21.99916,0,0,0-2.71166-4.65883c-2.25813-2.94042-5.00117-4.74661-7.724-5.08616A8.881,8.881,0,0,0,16.779,53.48855Z" style="         fill: #cf4427;       "/>
        <path d="M46.85746,102.54313a3.66,3.66,0,0,1-2.388-6.43484L63.745,79.53093a3.65985,3.65985,0,1,1,4.77281,5.54961L49.24228,101.65791A3.64512,3.64512,0,0,1,46.85746,102.54313Z" style="         fill: #cf4427;       "/>
        <path d="M18.71621,19.6571a3.6553,3.6553,0,0,1-3.019-1.587L7.21547,5.73381a3.65988,3.65988,0,1,1,6.03174-4.14692l8.4817,12.33632a3.66062,3.66062,0,0,1-3.0127,5.73389Z" style="         fill: #cf4427;       "/>
        <path d="M5.99347,17.72978A3.66036,3.66036,0,0,1,3.78062,11.152L16.503,1.51381a3.66,3.66,0,1,1,4.42015,5.83476L8.20077,16.98674A3.64343,3.64343,0,0,1,5.99347,17.72978Z" style="         fill: #cf4427;       "/>
      </g>
    </g>
  </g>

        </g>
    </g>
</g>

<!-- ITEM 11 -->
<g>
    <defs>
        
        <clipPath id="clip-path-id-viewbox-item-11">
            <rect x="0.0" y="0.0" width="28.131" height="16.961"/>
        </clipPath>
    </defs>
    <g transform="translate(1117.0 931.0) rotate(321.6083172894909 54.5 33.0) scale(3.87472894671359 3.8912799952832975)">
        <g clip-path="url(#clip-path-id-viewbox-item-11)" transform="translate(-0.0 -0.0)">

<g>
	<path style="fill:#E5A024;" d="M6.697,9.81c-1.659,1.304-2.14,3.612-1.14,5.47c1.34,2.26,4.16,2,6,0.64   c0.094-0.06,0.182-0.13,0.26-0.21c0.116-0.099,0.214-0.218,0.29-0.35C14.797,12.08,10.197,7.07,6.697,9.81z M7.827,13.81   c-0.299-0.727-0.044-1.564,0.61-2c1.06-0.66,2.42,1,1.49,1.94c-0.56,0.54-1.67,0.93-2.13,0.1L7.827,13.81z"/>
	<path style="fill:#E5A024;" d="M18.068,5.5c-0.049,0.089-0.089,0.183-0.12,0.28l0,0c-1.145,2.778,0.179,5.958,2.957,7.102   c0.132,0.055,0.267,0.104,0.403,0.148c2.69,0.649,5.446-0.791,6.45-3.37C30.077,3.95,20.937,0.05,18.068,5.5z M25.258,8.7   c-0.465,1.194-1.652,1.947-2.93,1.86c-1.86-0.33-2.39-2.26-1.86-3.81c0.568-1.12,1.918-1.592,3.06-1.07   C24.737,6.14,25.797,7.36,25.258,8.7z"/>
	<path style="fill:#E5A024;" d="M1.958,4c2.6,0,2.61-4,0-4S-0.653,4,1.958,4z"/>
</g>

        </g>
    </g>
</g>

<!-- ITEM 12 -->
<g>
    <defs>
        
        <clipPath id="clip-path-id-viewbox-item-12">
            <rect x="0.0" y="0.0" width="46.713" height="42.526"/>
        </clipPath>
    </defs>
    <g transform="translate(1232.0 942.0) rotate(154.01422424860542 78.5 72.0) scale(3.3609487722903686 3.386163758641772)">
        <g clip-path="url(#clip-path-id-viewbox-item-12)" transform="translate(-0.0 -0.0)">

<g>
	<path style="fill:#309ac0;" d="M1.379,34.414c4.324,2.832,8.801,5.422,13.41,7.76c3.46,1.74,6.51-3.46,3-5.21   c-4.597-2.349-9.06-4.949-13.37-7.79c-3.26-2.12-6.29,3.09-3,5.21L1.379,34.414z"/>
	<path style="fill:#309ac0;" d="M11.249,10.634l15.31,18.47c2.48,3,6.72-1.3,4.26-4.26l-15.31-18.47   C13.029,3.374,8.789,7.674,11.249,10.634z"/>
	<path style="fill:#309ac0;" d="M35.989,3.774c1.062,5.52,2.632,10.929,4.69,16.16c1.4,3.57,7.24,2,5.81-1.6   c-2.062-5.23-3.635-10.64-4.7-16.16c-0.73-3.81-6.55-2.19-5.81,1.6H35.989z"/>
</g>

        </g>
    </g>
</g>

<!-- ITEM 13 -->
<g>
    <defs>
        
        <clipPath id="clip-path-id-viewbox-item-13">
            <rect x="0.0" y="0.0" width="31.167" height="62.809"/>
        </clipPath>
    </defs>
    <g transform="translate(990.0 255.0) rotate(335.25404546674525 38.5 78.0) scale(2.470561812173132 2.4837204859176234)">
        <g clip-path="url(#clip-path-id-viewbox-item-13)" transform="translate(-0.0 -0.0)">

<path style="fill:#3b301b;" d="M28.281,35.594c5.76-11.31,2.33-25.21-5.26-34.73c-2-2.51-5.53,1-3.54,3.54  c4.866,6.014,7.208,13.683,6.53,21.39c-0.244,2.026-0.769,4.009-1.56,5.89c-1.06-1.134-2.248-2.141-3.54-3  c-4.48-3-10.47-3.9-15.37-1.32c-4.5,2.37-6.74,7.31-4.89,12.18c2.11,5.54,8,8.26,13.68,7.25c3.753-0.746,7.181-2.64,9.81-5.42  c1.51,6-0.91,12.69-5.71,17.2c-2.35,2.21,1.19,5.74,3.54,3.54c7.07-6.64,9.57-17.2,5.77-25.49  C27.934,36.27,28.114,35.927,28.281,35.594z M10.021,41.814c-6.08-1.5-6.54-9.13-0.36-10.7c3.77-1,7.58,0.57,10.33,3.19  c0.677,0.652,1.293,1.365,1.84,2.13C19.001,40.334,14.881,43.004,10.021,41.814z"/>

        </g>
    </g>
</g>

              </svg>