<?xml version="1.0" encoding="UTF-8"?><svg version="1.1" xmlns="http://www.w3.org/2000/svg" xmlns:xlink="http://www.w3.org/1999/xlink" viewBox="0 0 1600 1200" width="1600" height="1200" x="0px" y="0px">
              
              <!-- ITEM 0 -->
<g>
    <defs>
        
        <clipPath id="clip-path-id-viewbox-item-0">
            <rect x="0.0" y="0.0" width="151.344" height="191.363"/>
        </clipPath>
    </defs>
    <g transform="translate(863.0 247.0) rotate(0.0 290.0 366.5) scale(3.8323289988370863 3.830416538202265)">
      <g clip-path="url(#clip-path-id-viewbox-item-0)" transform="translate(-0.0 -0.0)">
      
<g>
	<g>
		<g>
			<path style="fill:#F5D264;" d="M146.62,80.566C146.62,36.07,114.381,0,74.613,0S2.605,36.07,2.605,80.566c0,0.043,0,0.086,0,0.13     c0.01,6.958,5.732,12.56,12.69,12.56H133.93c6.958,0,12.68-5.602,12.69-12.56C146.62,80.652,146.62,80.609,146.62,80.566z"/>
		</g>
	</g>
	<g>
		<g>
			<path style="fill:#F5D264;" d="M146.62,147.392v-0.009c-0.005-6.975-5.715-12.681-12.69-12.681H15.295     c-6.958,0-12.68,5.602-12.69,12.56c0,0.043,0,0.086,0,0.13c0,17.287,6.049,22.677,14.333,35.798     c3.226,5.11,8.882,8.173,14.926,8.173h87.858c6.044,0,11.699-3.063,14.926-8.173C142.932,170.068,146.62,164.679,146.62,147.392z     "/>
		</g>
	</g>
	<g>
		<path style="fill:#DA5B4F;" d="M134.816,117.109H15c-8.284,0-15-6.716-15-15s6.716-15,15-15h119.816c8.284,0,15,6.716,15,15    S143.1,117.109,134.816,117.109z"/>
	</g>
	<g>
		<path style="fill:#DA5B4F;" d="M134.816,141.438H15c-8.284,0-15-6.716-15-15s6.716-15,15-15h119.816c8.284,0,15,6.716,15,15    S143.1,141.438,134.816,141.438z"/>
	</g>
	<g>
		<path style="fill:#4C9D80;" d="M35.712,132.841c-1.524,0-3.049-0.463-4.354-1.394L3.978,111.922    c-3.373-2.405-4.157-7.088-1.752-10.461c2.406-3.373,7.089-4.156,10.461-1.752l22.862,16.303l22.278-17.092    c2.617-2.006,6.236-2.07,8.92-0.156l22.864,16.304l22.283-17.093c2.616-2.005,6.235-2.069,8.919-0.156l27.384,19.525    c3.373,2.405,4.157,7.088,1.753,10.461c-2.406,3.372-7.089,4.157-10.461,1.753l-22.867-16.305l-22.284,17.093    c-2.616,2.006-6.235,2.07-8.919,0.155l-22.863-16.304l-22.278,17.092C38.933,132.323,37.323,132.841,35.712,132.841z"/>
	</g>
	<g>
		
			<ellipse transform="matrix(0.2069 -0.9784 0.9784 0.2069 -56.3524 70.9612)" style="fill:#2A3E3D;" cx="15.59" cy="70.237" rx="5.902" ry="3.541"/>
	</g>
	<g>
		
			<ellipse transform="matrix(0.2069 -0.9784 0.9784 0.2069 -37.8288 80.8257)" style="fill:#2A3E3D;" cx="30.936" cy="63.744" rx="5.902" ry="3.541"/>
	</g>
	<g>
		<ellipse style="fill:#2A3E3D;" cx="68.12" cy="28.921" rx="3.541" ry="5.902"/>
	</g>
	<g>
		
			<ellipse transform="matrix(0.9979 -0.0643 0.0643 0.9979 -4.8393 7.7272)" style="fill:#2A3E3D;" cx="117.699" cy="79.09" rx="3.541" ry="5.902"/>
	</g>
	<g>
		
			<ellipse transform="matrix(0.9979 -0.0643 0.0643 0.9979 -3.2022 7.8644)" style="fill:#2A3E3D;" cx="120.65" cy="53.711" rx="3.541" ry="5.902"/>
	</g>
	<g>
		
			<ellipse transform="matrix(0.9979 -0.0643 0.0643 0.9979 -2.0323 5.2828)" style="fill:#2A3E3D;" cx="81.105" cy="34.233" rx="3.541" ry="5.902"/>
	</g>
	<g>
		
			<ellipse transform="matrix(0.9979 -0.0643 0.0643 0.9979 -4.3181 8.5837)" style="fill:#2A3E3D;" cx="131.274" cy="71.417" rx="3.541" ry="5.902"/>
	</g>
	<g>
		
			<ellipse transform="matrix(0.9979 -0.0643 0.0643 0.9979 -1.3215 6.1332)" style="fill:#2A3E3D;" cx="94.68" cy="23.609" rx="3.541" ry="5.902"/>
	</g>
	<g>
		
			<ellipse transform="matrix(0.2069 -0.9784 0.9784 0.2069 -29.0408 57.4329)" style="fill:#2A3E3D;" cx="20.902" cy="46.628" rx="5.902" ry="3.541"/>
	</g>
</g>

      </g>
    </g>
</g>

<!-- ITEM 1 -->
<g>
    <defs>
        
        <clipPath id="clip-path-id-viewbox-item-1">
            <rect x="0.0" y="0.0" width="177.08" height="240.479"/>
        </clipPath>
    </defs>
    <g transform="translate(194.0 243.0) rotate(0.0 270.0 365.5) scale(3.0494691664784277 3.0397664660947523)">
      <g clip-path="url(#clip-path-id-viewbox-item-1)" transform="translate(-0.0 -0.0)">
      
<g>
	<g>
		<path style="fill:#F5D264;" d="M35.192,142.307c-3.73,0-6.962-2.78-7.434-6.577L11.949,8.424c-0.51-4.111,2.408-7.857,6.519-8.367    c4.109-0.51,7.857,2.408,8.367,6.519l15.809,127.307c0.51,4.111-2.408,7.857-6.519,8.367    C35.812,142.288,35.5,142.307,35.192,142.307z"/>
	</g>
	<g>
		<path style="fill:#F5D264;" d="M80.955,142.307c-3.73,0-6.962-2.78-7.434-6.577L57.713,8.424c-0.51-4.111,2.408-7.857,6.519-8.367    c4.114-0.51,7.856,2.408,8.367,6.519l15.809,127.307c0.51,4.111-2.408,7.857-6.519,8.367    C81.575,142.288,81.263,142.307,80.955,142.307z"/>
	</g>
	<g>
		<path style="fill:#F5D264;" d="M70.841,153.368c-0.602,0-1.213-0.073-1.823-0.226c-4.019-1.003-6.463-5.075-5.459-9.093    L94.636,19.586c1.003-4.019,5.075-6.464,9.093-5.459c4.019,1.003,6.463,5.075,5.459,9.093L78.111,147.683    C77.26,151.092,74.202,153.368,70.841,153.368z"/>
	</g>
	<g>
		<path style="fill:#F5D264;" d="M79.991,176.084c-3.613,0-6.797-2.618-7.394-6.3L52.06,43.154    c-0.663-4.089,2.114-7.941,6.203-8.604c4.088-0.666,7.941,2.114,8.604,6.203l20.537,126.63c0.663,4.089-2.114,7.941-6.203,8.604    C80.794,176.053,80.39,176.084,79.991,176.084z"/>
	</g>
	<g>
		<path style="fill:#F5D264;" d="M114.659,147.44c-1.076,0-2.168-0.232-3.206-0.724c-3.744-1.773-5.341-6.245-3.568-9.988    l54.915-115.936c1.773-3.744,6.247-5.341,9.989-3.568c3.744,1.773,5.341,6.246,3.568,9.989l-54.915,115.936    C120.16,145.855,117.467,147.44,114.659,147.44z"/>
	</g>
	<g>
		<path style="fill:#F5D264;" d="M38.714,187.673c-3.398,0-6.477-2.325-7.292-5.776L1.917,57.052    C0.964,53.02,3.46,48.98,7.49,48.028c4.031-0.955,8.071,1.542,9.024,5.574l29.505,124.845c0.953,4.031-1.543,8.071-5.574,9.024    C39.865,187.608,39.285,187.673,38.714,187.673z"/>
	</g>
	<g>
		<path style="fill:#F5D264;" d="M43.502,170.221c-0.022,0-0.043,0-0.065,0c-4.142-0.035-7.471-3.421-7.436-7.563l0.845-99.999    c0.035-4.12,3.386-7.437,7.498-7.437c0.022,0,0.043,0,0.065,0c4.142,0.035,7.471,3.421,7.436,7.563L51,162.784    C50.965,166.905,47.614,170.221,43.502,170.221z"/>
	</g>
	<g>
		<path style="fill:#F5D264;" d="M98.197,149.283c-0.529,0-1.065-0.056-1.602-0.173c-4.048-0.881-6.615-4.876-5.734-8.924    l20.533-94.342c0.881-4.047,4.879-6.612,8.924-5.733c4.047,0.881,6.614,4.876,5.733,8.923l-20.533,94.342    C104.754,146.886,101.648,149.283,98.197,149.283z"/>
	</g>
	<g>
		<path style="fill:#F5D264;" d="M95.38,178.269c-0.862,0-1.739-0.15-2.595-0.466c-3.886-1.434-5.874-5.746-4.44-9.632    l44.407-120.354c1.434-3.886,5.747-5.872,9.632-4.44c3.886,1.434,5.874,5.746,4.44,9.632l-44.407,120.354    C101.3,176.393,98.431,178.269,95.38,178.269z"/>
	</g>
	<g>
		<path style="fill:#DA5B4F;" d="M121.712,240.479l-90.75-0.426c-6.209-0.029-11.461-4.597-12.351-10.742L0.132,101.715    c-1.095-7.562,4.769-14.337,12.41-14.337h132.106c7.808,0,13.717,7.059,12.344,14.745l-22.877,128.022    C133.042,236.147,127.809,240.508,121.712,240.479z"/>
	</g>
	<g>
		<ellipse style="fill:#F5D264;" cx="82.213" cy="163.097" rx="28.706" ry="44.932"/>
	</g>
</g>

      </g>
    </g>
</g>

<!-- ITEM 2 -->
<g>
    <defs>
        
        <clipPath id="clip-path-id-viewbox-item-2">
            <rect x="0.0" y="0.0" width="344.979" height="323.79"/>
        </clipPath>
    </defs>
    <g transform="translate(1005.0 263.0) rotate(0.0 149.0 140.0) scale(0.8638206963322406 0.8647580221748664)">
      <g clip-path="url(#clip-path-id-viewbox-item-2)" transform="translate(-0.0 -0.0)">
      <path d="M245.382,21.908C163.342-12.2,50.819,12.311,14.475,116.3c-6.951,19.887-7.713,41.416-6.5,62.451,3.485,60.494,39.442,107.75,96.288,128.124,83.944,30.085,198.679-14.018,225.17-102.209C356.8,113.536,310.778,49.1,245.382,21.908Z" fill="#f5d264"/><path d="M160.805,323.831a175.323,175.323,0,0,1-59.074-9.9C41.961,292.511,4.113,242.136.485,179.18c-.967-16.8-1.3-41.858,6.909-65.358C23.2,68.61,53.91,34.719,96.215,15.814,142.7-4.962,199.544-5.275,248.261,14.983c36.258,15.074,64.119,39.568,80.571,70.834,18.378,34.926,21.069,76.768,7.782,121-11.994,39.927-41.888,73.672-84.176,95.015A204.928,204.928,0,0,1,160.805,323.831Zm11.68-308.846a172.451,172.451,0,0,0-70.15,14.523c-38.441,17.18-66.375,48.046-80.78,89.263-5.579,15.96-7.515,34.881-6.094,59.546,1.62,28.121,10.83,54.063,26.634,75.022,15.74,20.875,38.112,36.946,64.7,46.473,42.61,15.271,94.53,11.021,138.889-11.367,38.578-19.472,65.771-49.993,76.568-85.94,27.665-92.1-23.055-150.1-79.746-173.673A183.108,183.108,0,0,0,172.485,14.985Z" fill="#f5d264"/><path d="M83.923,148.071a15,15,0,0,1-15-15V110.929a15,15,0,0,1,30,0v22.142A15,15,0,0,1,83.923,148.071Z" fill="#2a3e3d"/><path d="M261.056,148.071a15,15,0,0,1-15-15V110.929a15,15,0,0,1,30,0v22.142A15,15,0,0,1,261.056,148.071Z" fill="#2a3e3d"/><path d="M271.133,182.892a98.644,98.644,0,0,1-197.287,0Z" fill="#2a3e3d"/><path d="M172.49,289.023a105.335,105.335,0,0,1-62.023-20,106.475,106.475,0,0,1-44.12-86.13,7.5,7.5,0,0,1,7.5-7.5H271.133a7.5,7.5,0,0,1,7.5,7.5,106.476,106.476,0,0,1-44.123,86.131A105.327,105.327,0,0,1,172.49,289.023ZM81.659,190.392a91.5,91.5,0,0,0,37.584,66.465,91.164,91.164,0,0,0,106.491,0,91.493,91.493,0,0,0,37.587-66.466Z" fill="#2a3e3d"/><path d="M230.123,262.939a98.66,98.66,0,0,1-115.267,0c10.835-18.26,32.579-30.732,57.634-30.732S219.288,244.679,230.123,262.939Z" fill="#da5b4f"/><path d="M172.49,289.023a105.335,105.335,0,0,1-62.023-20,7.5,7.5,0,0,1-2.061-9.909c12.591-21.222,37.147-34.406,64.084-34.406s51.492,13.184,64.084,34.406a7.5,7.5,0,0,1-2.061,9.909A105.337,105.337,0,0,1,172.49,289.023Zm-47.117-28.1a91.258,91.258,0,0,0,94.233,0c-10.677-13.23-28.1-21.212-47.116-21.212S136.05,247.689,125.373,260.919Z" fill="#da5b4f"/>
      </g>
    </g>
</g>

<!-- ITEM 3 -->
<g>
    <defs>
        
        <clipPath id="clip-path-id-viewbox-item-3">
            <rect x="0.0" y="0.0" width="344.979" height="323.79"/>
        </clipPath>
    </defs>
    <g transform="translate(379.0 682.0) rotate(0.0 66.5 62.5) scale(0.3855307134637181 0.3860526884709225)">
      <g clip-path="url(#clip-path-id-viewbox-item-3)" transform="translate(-0.0 -0.0)">
      <path d="M245.382,21.908C163.342-12.2,50.819,12.311,14.475,116.3c-6.951,19.887-7.713,41.416-6.5,62.451,3.485,60.494,39.442,107.75,96.288,128.124,83.944,30.085,198.679-14.018,225.17-102.209C356.8,113.536,310.778,49.1,245.382,21.908Z" fill="#f5d264"/><path d="M160.805,323.831a175.323,175.323,0,0,1-59.074-9.9C41.961,292.511,4.113,242.136.485,179.18c-.967-16.8-1.3-41.858,6.909-65.358C23.2,68.61,53.91,34.719,96.215,15.814,142.7-4.962,199.544-5.275,248.261,14.983c36.258,15.074,64.119,39.568,80.571,70.834,18.378,34.926,21.069,76.768,7.782,121-11.994,39.927-41.888,73.672-84.176,95.015A204.928,204.928,0,0,1,160.805,323.831Zm11.68-308.846a172.451,172.451,0,0,0-70.15,14.523c-38.441,17.18-66.375,48.046-80.78,89.263-5.579,15.96-7.515,34.881-6.094,59.546,1.62,28.121,10.83,54.063,26.634,75.022,15.74,20.875,38.112,36.946,64.7,46.473,42.61,15.271,94.53,11.021,138.889-11.367,38.578-19.472,65.771-49.993,76.568-85.94,27.665-92.1-23.055-150.1-79.746-173.673A183.108,183.108,0,0,0,172.485,14.985Z" fill="#f5d264"/><path d="M83.923,148.071a15,15,0,0,1-15-15V110.929a15,15,0,0,1,30,0v22.142A15,15,0,0,1,83.923,148.071Z" fill="#2a3e3d"/><path d="M261.056,148.071a15,15,0,0,1-15-15V110.929a15,15,0,0,1,30,0v22.142A15,15,0,0,1,261.056,148.071Z" fill="#2a3e3d"/><path d="M271.133,182.892a98.644,98.644,0,0,1-197.287,0Z" fill="#2a3e3d"/><path d="M172.49,289.023a105.335,105.335,0,0,1-62.023-20,106.475,106.475,0,0,1-44.12-86.13,7.5,7.5,0,0,1,7.5-7.5H271.133a7.5,7.5,0,0,1,7.5,7.5,106.476,106.476,0,0,1-44.123,86.131A105.327,105.327,0,0,1,172.49,289.023ZM81.659,190.392a91.5,91.5,0,0,0,37.584,66.465,91.164,91.164,0,0,0,106.491,0,91.493,91.493,0,0,0,37.587-66.466Z" fill="#2a3e3d"/><path d="M230.123,262.939a98.66,98.66,0,0,1-115.267,0c10.835-18.26,32.579-30.732,57.634-30.732S219.288,244.679,230.123,262.939Z" fill="#da5b4f"/><path d="M172.49,289.023a105.335,105.335,0,0,1-62.023-20,7.5,7.5,0,0,1-2.061-9.909c12.591-21.222,37.147-34.406,64.084-34.406s51.492,13.184,64.084,34.406a7.5,7.5,0,0,1-2.061,9.909A105.337,105.337,0,0,1,172.49,289.023Zm-47.117-28.1a91.258,91.258,0,0,0,94.233,0c-10.677-13.23-28.1-21.212-47.116-21.212S136.05,247.689,125.373,260.919Z" fill="#da5b4f"/>
      </g>
    </g>
</g>

<!-- ITEM 4 -->
<g>
    <defs>
        
        <clipPath id="clip-path-id-viewbox-item-4">
            <rect x="0.0" y="0.0" width="280.715" height="276.756"/>
        </clipPath>
    </defs>
    <g transform="translate(384.0 702.0) rotate(0.0 20.5 20.5) scale(0.14605560800099746 0.1481449363338103)">
      <g clip-path="url(#clip-path-id-viewbox-item-4)" transform="translate(-0.0 -0.0)">
      <path d="M105.144,267.148c80.735,15.168,172.075-47.373,167.921-133.193-4.246-87.7-85.533-148.949-171.395-118.937C44.7,34.93,5.284,88.866,7.423,149.716,9.355,204.688,51.077,256.987,105.144,267.148Z" fill="#f5d264"/><path d="M129.576,276.884a139.839,139.839,0,0,1-25.817-2.365h0c-27.64-5.194-53.5-21.006-72.821-44.522C11.942,206.875.929,178.458-.073,149.98a141.31,141.31,0,0,1,26.335-87.3A149.117,149.117,0,0,1,99.2,7.937c41.444-14.487,85.27-9.275,120.241,14.3,36.611,24.677,58.887,65.266,61.119,111.36,1.9,39.177-14.663,76.092-46.629,103.944C204.946,262.788,166.713,276.884,129.576,276.884Zm-23.047-17.107c40.1,7.528,85.145-5.321,117.544-33.55,28.432-24.772,43.17-57.413,41.5-91.91-2-41.32-21.872-77.639-54.52-99.645C179.589,13.465,141.622,9,104.145,22.1A134.193,134.193,0,0,0,38.5,71.351a126.424,126.424,0,0,0-23.582,78.1c1.847,52.557,42.088,101.017,91.61,110.324Z" fill="#f5d264"/>
      </g>
    </g>
</g>

<!-- ITEM 5 -->
<g>
    <defs>
        
        <clipPath id="clip-path-id-viewbox-item-5">
            <rect x="0.0" y="0.0" width="280.715" height="276.756"/>
        </clipPath>
    </defs>
    <g transform="translate(466.0 702.0) rotate(0.0 20.0 20.0) scale(0.1424932760985341 0.14453164520371736)">
      <g clip-path="url(#clip-path-id-viewbox-item-5)" transform="translate(-0.0 -0.0)">
      <path d="M105.144,267.148c80.735,15.168,172.075-47.373,167.921-133.193-4.246-87.7-85.533-148.949-171.395-118.937C44.7,34.93,5.284,88.866,7.423,149.716,9.355,204.688,51.077,256.987,105.144,267.148Z" fill="#f5d264"/><path d="M129.576,276.884a139.839,139.839,0,0,1-25.817-2.365h0c-27.64-5.194-53.5-21.006-72.821-44.522C11.942,206.875.929,178.458-.073,149.98a141.31,141.31,0,0,1,26.335-87.3A149.117,149.117,0,0,1,99.2,7.937c41.444-14.487,85.27-9.275,120.241,14.3,36.611,24.677,58.887,65.266,61.119,111.36,1.9,39.177-14.663,76.092-46.629,103.944C204.946,262.788,166.713,276.884,129.576,276.884Zm-23.047-17.107c40.1,7.528,85.145-5.321,117.544-33.55,28.432-24.772,43.17-57.413,41.5-91.91-2-41.32-21.872-77.639-54.52-99.645C179.589,13.465,141.622,9,104.145,22.1A134.193,134.193,0,0,0,38.5,71.351a126.424,126.424,0,0,0-23.582,78.1c1.847,52.557,42.088,101.017,91.61,110.324Z" fill="#f5d264"/>
      </g>
    </g>
</g>

<!-- ITEM 6 -->
<g>
    <defs>
        
        <clipPath id="clip-path-id-viewbox-item-6">
            <rect x="0.0" y="0.0" width="31.575" height="30.018"/>
        </clipPath>
    </defs>
    <g transform="translate(387.0 718.0) rotate(0.0 9.5 9.0) scale(0.601741884402217 0.5996402158704777)">
      <g clip-path="url(#clip-path-id-viewbox-item-6)" transform="translate(-0.0 -0.0)">
      <path d="M16.566,30.009H15.009a15,15,0,0,1,0-30h1.557a15,15,0,0,1,0,30Z" fill="#da5b4f"/>
      </g>
    </g>
</g>

<!-- ITEM 7 -->
<g>
    <defs>
        
        <clipPath id="clip-path-id-viewbox-item-7">
            <rect x="0.0" y="0.0" width="31.575" height="30.018"/>
        </clipPath>
    </defs>
    <g transform="translate(484.0 719.0) rotate(0.0 9.5 9.0) scale(0.601741884402217 0.5996402158704777)">
      <g clip-path="url(#clip-path-id-viewbox-item-7)" transform="translate(-0.0 -0.0)">
      <path d="M16.566,30.009H15.009a15,15,0,0,1,0-30h1.557a15,15,0,0,1,0,30Z" fill="#da5b4f"/>
      </g>
    </g>
</g>

<!-- ITEM 8 -->
<g>
    <defs>
        
        <clipPath id="clip-path-id-viewbox-item-8">
            <rect x="0.0" y="0.0" width="281.727" height="84.344"/>
        </clipPath>
    </defs>
    <g transform="translate(398.0 693.0) rotate(317.7809196423425 14.5 4.5) scale(0.10293653075495073 0.10670587119415727)">
      <g clip-path="url(#clip-path-id-viewbox-item-8)" transform="translate(-0.0 -0.0)">
      <path d="M240.384,12.818c9.342,2.21,18.838,5.417,25.77,12.058s10.6,17.488,6.457,26.143c-12.957,27.1-55.252,22.793-79.053,22.682-40.925-.19-80.454,5.512-121.8,1.979-21.038-1.8-51.195.255-62.463-22.219C5,44.885,8.467,33.969,15.271,27.2S31.513,17.053,40.813,14.67C85.85,3.128,139.641,9.379,186.251,7.848A206.906,206.906,0,0,1,240.384,12.818Z" fill="#2a3e3d"/><path d="M100.944,84.332c-9.854,0-19.8-.323-29.821-1.18-2.948-.252-6.106-.426-9.451-.611C41.626,81.433,14.171,79.914,2.6,56.822-2.839,45.979.2,31.612,9.983,21.886,18.459,13.457,29.917,9.72,38.951,7.4,71.333-.893,107.519-.283,142.515.31c15.205.255,29.567.5,43.49.042a213.7,213.7,0,0,1,56.106,5.167h0c9.076,2.148,20.6,5.674,29.23,13.941,9.963,9.545,13.268,23.853,8.035,34.794-13.627,28.5-52.1,27.645-77.556,27.086-2.959-.066-5.754-.127-8.3-.139-15.741-.063-31.642.756-47.011,1.559C131.608,83.538,116.39,84.332,100.944,84.332ZM115.223,15c-25.183,0-50.148,1.191-72.548,6.933-7.193,1.842-16.206,4.711-22.116,10.587-4.323,4.3-7.39,11.92-4.555,17.579,7.128,14.216,23.768,16.205,46.5,17.462,3.459.191,6.727.372,9.9.643,24.7,2.11,49.424.819,73.329-.427,15.578-.814,31.659-1.67,47.863-1.579,2.674.013,5.532.075,8.56.143,22.893.507,54.244,1.2,63.691-18.561,2.73-5.71-.476-13.273-4.879-17.491-6.016-5.764-15.082-8.466-22.309-10.176A198.632,198.632,0,0,0,186.5,15.344c-14.3.467-29.517.211-44.236-.036C133.293,15.155,124.243,15,115.223,15Z" fill="#2a3e3d"/>
      </g>
    </g>
</g>

<!-- ITEM 9 -->
<g>
    <defs>
        
        <clipPath id="clip-path-id-viewbox-item-9">
            <rect x="0.0" y="0.0" width="281.727" height="84.344"/>
        </clipPath>
    </defs>
    <g transform="translate(397.0 680.0) rotate(24.89264613510157 14.5 4.5) scale(0.10293653075495073 0.10670587119415727)">
      <g clip-path="url(#clip-path-id-viewbox-item-9)" transform="translate(-0.0 -0.0)">
      <path d="M240.384,12.818c9.342,2.21,18.838,5.417,25.77,12.058s10.6,17.488,6.457,26.143c-12.957,27.1-55.252,22.793-79.053,22.682-40.925-.19-80.454,5.512-121.8,1.979-21.038-1.8-51.195.255-62.463-22.219C5,44.885,8.467,33.969,15.271,27.2S31.513,17.053,40.813,14.67C85.85,3.128,139.641,9.379,186.251,7.848A206.906,206.906,0,0,1,240.384,12.818Z" fill="#2a3e3d"/><path d="M100.944,84.332c-9.854,0-19.8-.323-29.821-1.18-2.948-.252-6.106-.426-9.451-.611C41.626,81.433,14.171,79.914,2.6,56.822-2.839,45.979.2,31.612,9.983,21.886,18.459,13.457,29.917,9.72,38.951,7.4,71.333-.893,107.519-.283,142.515.31c15.205.255,29.567.5,43.49.042a213.7,213.7,0,0,1,56.106,5.167h0c9.076,2.148,20.6,5.674,29.23,13.941,9.963,9.545,13.268,23.853,8.035,34.794-13.627,28.5-52.1,27.645-77.556,27.086-2.959-.066-5.754-.127-8.3-.139-15.741-.063-31.642.756-47.011,1.559C131.608,83.538,116.39,84.332,100.944,84.332ZM115.223,15c-25.183,0-50.148,1.191-72.548,6.933-7.193,1.842-16.206,4.711-22.116,10.587-4.323,4.3-7.39,11.92-4.555,17.579,7.128,14.216,23.768,16.205,46.5,17.462,3.459.191,6.727.372,9.9.643,24.7,2.11,49.424.819,73.329-.427,15.578-.814,31.659-1.67,47.863-1.579,2.674.013,5.532.075,8.56.143,22.893.507,54.244,1.2,63.691-18.561,2.73-5.71-.476-13.273-4.879-17.491-6.016-5.764-15.082-8.466-22.309-10.176A198.632,198.632,0,0,0,186.5,15.344c-14.3.467-29.517.211-44.236-.036C133.293,15.155,124.243,15,115.223,15Z" fill="#2a3e3d"/>
      </g>
    </g>
</g>

<!-- ITEM 10 -->
<g>
    <defs>
        
        <clipPath id="clip-path-id-viewbox-item-10">
            <rect x="0.0" y="0.0" width="281.727" height="84.344"/>
        </clipPath>
    </defs>
    <g transform="translate(463.0 681.0) rotate(328.6256520072033 15.0 4.5) scale(0.1064860662982249 0.10670587119415727)">
      <g clip-path="url(#clip-path-id-viewbox-item-10)" transform="translate(-0.0 -0.0)">
      <path d="M240.384,12.818c9.342,2.21,18.838,5.417,25.77,12.058s10.6,17.488,6.457,26.143c-12.957,27.1-55.252,22.793-79.053,22.682-40.925-.19-80.454,5.512-121.8,1.979-21.038-1.8-51.195.255-62.463-22.219C5,44.885,8.467,33.969,15.271,27.2S31.513,17.053,40.813,14.67C85.85,3.128,139.641,9.379,186.251,7.848A206.906,206.906,0,0,1,240.384,12.818Z" fill="#2a3e3d"/><path d="M100.944,84.332c-9.854,0-19.8-.323-29.821-1.18-2.948-.252-6.106-.426-9.451-.611C41.626,81.433,14.171,79.914,2.6,56.822-2.839,45.979.2,31.612,9.983,21.886,18.459,13.457,29.917,9.72,38.951,7.4,71.333-.893,107.519-.283,142.515.31c15.205.255,29.567.5,43.49.042a213.7,213.7,0,0,1,56.106,5.167h0c9.076,2.148,20.6,5.674,29.23,13.941,9.963,9.545,13.268,23.853,8.035,34.794-13.627,28.5-52.1,27.645-77.556,27.086-2.959-.066-5.754-.127-8.3-.139-15.741-.063-31.642.756-47.011,1.559C131.608,83.538,116.39,84.332,100.944,84.332ZM115.223,15c-25.183,0-50.148,1.191-72.548,6.933-7.193,1.842-16.206,4.711-22.116,10.587-4.323,4.3-7.39,11.92-4.555,17.579,7.128,14.216,23.768,16.205,46.5,17.462,3.459.191,6.727.372,9.9.643,24.7,2.11,49.424.819,73.329-.427,15.578-.814,31.659-1.67,47.863-1.579,2.674.013,5.532.075,8.56.143,22.893.507,54.244,1.2,63.691-18.561,2.73-5.71-.476-13.273-4.879-17.491-6.016-5.764-15.082-8.466-22.309-10.176A198.632,198.632,0,0,0,186.5,15.344c-14.3.467-29.517.211-44.236-.036C133.293,15.155,124.243,15,115.223,15Z" fill="#2a3e3d"/>
      </g>
    </g>
</g>

<!-- ITEM 11 -->
<g>
    <defs>
        
        <clipPath id="clip-path-id-viewbox-item-11">
            <rect x="0.0" y="0.0" width="281.727" height="84.344"/>
        </clipPath>
    </defs>
    <g transform="translate(463.0 694.0) rotate(36.37085864699216 14.5 4.5) scale(0.10293653075495073 0.10670587119415727)">
      <g clip-path="url(#clip-path-id-viewbox-item-11)" transform="translate(-0.0 -0.0)">
      <path d="M240.384,12.818c9.342,2.21,18.838,5.417,25.77,12.058s10.6,17.488,6.457,26.143c-12.957,27.1-55.252,22.793-79.053,22.682-40.925-.19-80.454,5.512-121.8,1.979-21.038-1.8-51.195.255-62.463-22.219C5,44.885,8.467,33.969,15.271,27.2S31.513,17.053,40.813,14.67C85.85,3.128,139.641,9.379,186.251,7.848A206.906,206.906,0,0,1,240.384,12.818Z" fill="#2a3e3d"/><path d="M100.944,84.332c-9.854,0-19.8-.323-29.821-1.18-2.948-.252-6.106-.426-9.451-.611C41.626,81.433,14.171,79.914,2.6,56.822-2.839,45.979.2,31.612,9.983,21.886,18.459,13.457,29.917,9.72,38.951,7.4,71.333-.893,107.519-.283,142.515.31c15.205.255,29.567.5,43.49.042a213.7,213.7,0,0,1,56.106,5.167h0c9.076,2.148,20.6,5.674,29.23,13.941,9.963,9.545,13.268,23.853,8.035,34.794-13.627,28.5-52.1,27.645-77.556,27.086-2.959-.066-5.754-.127-8.3-.139-15.741-.063-31.642.756-47.011,1.559C131.608,83.538,116.39,84.332,100.944,84.332ZM115.223,15c-25.183,0-50.148,1.191-72.548,6.933-7.193,1.842-16.206,4.711-22.116,10.587-4.323,4.3-7.39,11.92-4.555,17.579,7.128,14.216,23.768,16.205,46.5,17.462,3.459.191,6.727.372,9.9.643,24.7,2.11,49.424.819,73.329-.427,15.578-.814,31.659-1.67,47.863-1.579,2.674.013,5.532.075,8.56.143,22.893.507,54.244,1.2,63.691-18.561,2.73-5.71-.476-13.273-4.879-17.491-6.016-5.764-15.082-8.466-22.309-10.176A198.632,198.632,0,0,0,186.5,15.344c-14.3.467-29.517.211-44.236-.036C133.293,15.155,124.243,15,115.223,15Z" fill="#2a3e3d"/>
      </g>
    </g>
</g>

              </svg>