<?xml version="1.0" encoding="UTF-8"?><svg version="1.1" xmlns="http://www.w3.org/2000/svg" xmlns:xlink="http://www.w3.org/1999/xlink" viewBox="0 0 1200 1600" width="1200" height="1600" x="0px" y="0px">
              
              <!-- ITEM 0 -->
<g>
    <defs>
        
        <clipPath id="clip-path-id-viewbox-item-0">
            <rect x="0.0" y="0.0" width="270.6" height="592.5"/>
        </clipPath>
    </defs>
    <g transform="translate(76.0 293.0) rotate(0.0 246.0 537.5) scale(1.8181818181818181 1.8143459915611815)">
      <g clip-path="url(#clip-path-id-viewbox-item-0)" transform="translate(-0.0 -0.0)">
      

<title>cook</title>
<rect x="15.2" y="589.5" width="199.7" height="3" style="fill:#2B2B2B;"/>
<linearGradient id="SVGID_1_-i0" gradientUnits="userSpaceOnUse" x1="172.7242" y1="-708.55" x2="172.7242" y2="-1141.974" gradientTransform="matrix(1 0 0 -1 0 -576.524)">
	<stop offset="0" style="stop-color:#EA979A"/>
	<stop offset="0.41" style="stop-color:#F2D38B"/>
	<stop offset="0.5" style="stop-color:#7E9DAE"/>
	<stop offset="0.6" style="stop-color:#90979D"/>
	<stop offset="1" style="stop-color:#7EBDDB"/>
</linearGradient>
<path d="M246.2,169.9L207,272c-5.6,14.7-22.1,22-36.8,16.3c0,0,0,0,0,0c-6.6-2.6-12-7.5-15.2-13.8l-0.7-1.4l-51.6-103.6  c-7.6-14.2-2.2-31.9,12-39.5s31.9-2.2,39.5,12c0,0.1,0.1,0.2,0.1,0.3l0.6,1.2l25.7,51.6l22.8-45L246.2,169.9z" style="fill:url(#SVGID_1_-i0);"/>
<path d="M203.2,150.2l8.3-16.4c5.7-11.2,19.4-15.6,30.6-9.9c10.3,5.3,15,17.4,11,28.3l-6.9,17.7L203.2,150.2z" style="fill:#EA7068;"/>
<path d="M266.4,592.5h-85.5c-4.5-0.2-8.2-3.8-8.3-8.4l-0.2-10.8l54.1,0.7l40.9,10.3c2.2,0.5,3.6,2.7,3.1,5  C270.1,591.2,268.4,592.6,266.4,592.5z" style="fill:#2B2B2B;"/>
<linearGradient id="SVGID_2_-i0" gradientUnits="userSpaceOnUse" x1="161.7346" y1="-708.558" x2="161.7346" y2="-1141.974" gradientTransform="matrix(1 0 0 -1 0 -576.524)">
	<stop offset="0" style="stop-color:#EA979A"/>
	<stop offset="0.41" style="stop-color:#F2D38B"/>
	<stop offset="0.5" style="stop-color:#7E9DAE"/>
	<stop offset="0.6" style="stop-color:#90979D"/>
	<stop offset="1" style="stop-color:#7EBDDB"/>
</linearGradient>
<path d="M226.5,574l-53.9,0.9l-28.7-120.5l-12.2-51.1L95.3,216.2l61.5-7.3l15.3-1.8c0,0,10.7,44.2,20.3,84.2  c7.1,29.5,13.6,56.9,14.9,62.4c6.6,29.4,12.3,59,16.1,91.3C228.5,487.8,229.5,531,226.5,574z" style="fill:url(#SVGID_2_-i0);"/>
<path d="M167.2,412.4c-3.6,0.4-7.4,0.6-11.1,0.7c-1.8,0.1-3.6,0-5.4,0c-5.4,0.3-11,0.6-16.4,1.1l9.6,40.2  c6.1,1.2,12.3,1.7,18.5,1.7c7.4-0.1,14.7-0.7,22-1.7c13.1-2,26-5,38.6-9.1l0.6-0.2c-1.4-12.8-3.3-25.2-5.3-37.2  C201.3,410.9,184.1,411.7,167.2,412.4z" style="fill:#2B2B2B;"/>
<linearGradient id="SVGID_3_-i0" gradientUnits="userSpaceOnUse" x1="-102.5801" y1="-694.284" x2="-102.5801" y2="-1139.3761" gradientTransform="matrix(1 -9.000000e-02 -9.000000e-02 -1 111.616 -569.913)">
	<stop offset="0" style="stop-color:#EA979A"/>
	<stop offset="0.41" style="stop-color:#F2D38B"/>
	<stop offset="0.5" style="stop-color:#7E9DAE"/>
	<stop offset="0.6" style="stop-color:#90979D"/>
	<stop offset="1" style="stop-color:#7EBDDB"/>
</linearGradient>
<path d="M163.7,241.2c-2.9,65.9-14.4,131.2-34.2,194.1c-14.1,44.9-30.2,92.2-47.4,139.1l-53.4-1.2  c6.4-35,15.9-98.3,21.6-134.4c2.4-15.6,7.1-29.7,9.9-42c1.4-6.1,8.6-57,14.5-100.9c-28.5-20.5-26.1-61.6-26.1-61.6  s79.8-31.1,97.6-28.5C154.8,206.9,163.6,240.6,163.7,241.2z" style="fill:url(#SVGID_3_-i0);"/>
<path d="M129.8,380.3c-5.1,0.2-10.4,0.4-15.5,0.9c-17,2.1-34.7,3.3-51.8,1.8c-1.1,7.3-1.9,12.2-2.2,13.8  c-2.9,12.3-6.3,26.7-9.9,42c10-2.2,20.2-3.8,30.4-4.9c20.7-2.3,37.5-1.8,49,1.5c5.9-18.8,11-37.8,15.4-57  C140,379.4,134.9,380,129.8,380.3z" style="fill:#2B2B2B;"/>
<linearGradient id="SVGID_4_-i0" gradientUnits="userSpaceOnUse" x1="4992.312" y1="-666.0009" x2="4992.312" y2="-1099.4319" gradientTransform="matrix(-1 0.1 -0.1 -1 5040.1074 -1014.741)">
	<stop offset="0" style="stop-color:#EA979A"/>
	<stop offset="0.41" style="stop-color:#F2D38B"/>
	<stop offset="0.5" style="stop-color:#7E9DAE"/>
	<stop offset="0.6" style="stop-color:#90979D"/>
	<stop offset="1" style="stop-color:#7EBDDB"/>
</linearGradient>
<path d="M172.4,208.8c-5.1-27.4-23.8-22.7-20-42.5s-9.4-44.1-30.5-40.1c-16.2,3-29.7,4.2-36.6,5.5  c-21.7,4-18.2,38.2-15.6,94.5L172.4,208.8z" style="fill:url(#SVGID_4_-i0);"/>
<path d="M125.5,125.7c0,0,9.7-0.7,15.2,5.1l-15.4,10.7L125.5,125.7z" style="fill:#2B2B2B;"/>
<path d="M117.2,144.2l-17-3.8c-4.9-1.1-8.1-5.8-7.5-10.8l3.3-23.3l29.1-10.1l2.4,38.1c0.9,4.6-2.2,9.1-6.9,10  C119.5,144.5,118.3,144.5,117.2,144.2z" style="fill:#EA7068;"/>
<polygon points="128.4,117.6 112.6,117.2 127.5,134.2 " style="fill:#2B2B2B;"/>
<path d="M121.8,592.5l-85.2-0.4c-4.4,0-8-3.6-8.1-8c0,0,0-0.1,0-0.1l0,0l-0.1-10.8l53.7,1.2l41.2,10.7  C128.1,586.4,126.6,592.5,121.8,592.5z" style="fill:#2B2B2B;"/>
<path d="M69.9,192l15.6,1.7l-15.6,32.6C69.2,214.9,69.2,203.4,69.9,192z" style="fill:#2B2B2B;"/>
<path d="M116.8,368.1c-0.1,0-0.2,0-0.3-0.1c-0.6-0.1-0.9-0.7-0.7-1.3c0,0,0-0.1,0-0.1l14.9-50.7  c0.2-0.6,0.8-0.9,1.4-0.7c0.6,0.2,0.9,0.8,0.7,1.4l-14.9,50.7C117.7,367.7,117.3,368,116.8,368.1z" style="fill:#2B2B2B;"/>
<path d="M132.2,405.9c-0.3,0-0.5-0.1-0.7-0.3c-0.4-0.4-0.5-1.1-0.1-1.5l5.9-7.2c0.4-0.5,1.1-0.5,1.5-0.1  c0.5,0.4,0.5,1.1,0.1,1.5c0,0,0,0,0,0l-6,7.2C132.8,405.7,132.5,405.9,132.2,405.9z" style="fill:#2B2B2B;"/>
<path d="M155.7,73.5v1.3l-0.2,5.1l-0.3,6.5l-0.7,15.1c-0.6,11.3-10.2,20.1-21.5,19.6l-19.4-0.9  c-9.9-0.4-17.6-8.8-17.2-18.7c0-0.1,0-0.1,0-0.2l1.3-29.1c0.7-16,14.3-28.4,30.3-27.6C143.5,45.3,155.7,58,155.7,73.5L155.7,73.5z" style="fill:#EA7068;"/>
<path d="M153.1,96.6c0.2,3.7-2.7,6.8-6.4,7c0,0,0,0-0.1,0c-3.6,0-6.5-3-6.5-7H153.1z" style="fill:#FFFFFF;"/>
<path d="M155.4,80.1l-0.3,6.5c-1.7-0.4-2.8-2.2-2.3-3.9c0,0,0-0.1,0-0.1c0.3-1,1-1.8,1.9-2.2  C154.9,80.1,155.1,80,155.4,80.1z" style="fill:#2B2B2B;"/>
<path d="M147.6,93.1c-0.4,0-0.8-0.2-0.9-0.6c-0.3-0.5-0.1-1.1,0.3-1.4c0,0,0,0,0.1,0l2.7-1.4c0.2-0.2,0.4-0.4,0.4-0.7  c0.1-0.3-0.1-0.6-0.2-0.9l-3.8-5.1c-0.4-0.5-0.3-1.1,0.2-1.5s1.1-0.3,1.5,0.2c0,0,0,0,0,0l3.8,5.1c0.5,0.7,0.8,1.6,0.7,2.5  c-0.1,0.9-0.5,1.7-1.2,2.2l-0.2,0.1l-2.7,1.4C148.1,93,147.9,93.1,147.6,93.1z" style="fill:#2B2B2B;"/>
<circle cx="137.2" cy="82.5" r="3.3" style="fill:#2B2B2B;"/>
<path d="M152.8,60.9c2.2,7.3-14,4.4-23.5,0.1c-1.9-0.9-4.1-0.1-5,1.8c0,0,0,0,0,0.1c-0.1,0.3-0.2,0.7-0.3,1l-2.2,14.3  c-0.4,2.5-2.1,4.7-4.5,5.6l-5.9,2.2l-3.8,13.4c-1.5,5.4-6.6,9-12.2,8.5l0,0c0,0,1.7-27.3,2.7-39c0.9-11.7,11.7-24.8,30.1-24.2  S152.8,60.9,152.8,60.9z" style="fill:#2B2B2B;"/>
<path d="M111,91.6L111,91.6c-2.7-0.1-4.8-2.4-4.6-5.1c0,0,0,0,0-0.1l0.4-7.1c0.1-2.7,2.4-4.8,5.1-4.6c0,0,0,0,0.1,0l0,0  c2.7,0.1,4.8,2.4,4.6,5.1c0,0,0,0,0,0.1l-0.4,7.1C116,89.6,113.7,91.7,111,91.6z" style="fill:#EA7068;"/>
<path d="M227.5,421.1L197.3,281c-0.7-3.4-21.8-24.2-21.8-24.2l-32.9-126.3l-11.4-5.3l5.2,55.4l-34.4,2.8l-9.5-55.2  l-14.1,4.2l8.6,50c1.4,7.7,2,15.6,1.8,23.4l-5.7,53.1c0,0-37.2,21.7-38.1,24.9L30.9,419.2c-0.7,2.4-0.4,5.4,1.7,6.8  c8.9,6,48.5-17.2,88.7,2.1c11.1,5.3,22.9,12.3,41,12.3c7.4-0.1,14.7-0.7,22-1.7c13.1-2,26-5,38.6-9.1  C226.3,428.2,228.2,424.7,227.5,421.1z" style="fill:#FFFFFF;"/>
<path d="M222.8,430.6c-0.6,0-1.1-0.5-1.1-1.1c0-0.5,0.3-0.9,0.8-1c3-1,4.7-4.1,4-7.2l-29.4-137  c-0.1-0.6,0.3-1.2,0.9-1.3c0.6-0.1,1.2,0.3,1.3,0.9c0,0,0,0,0,0.1l29.4,137c0.9,4.1-1.4,8.3-5.4,9.7L222.8,430.6z" style="fill:#F5BBFF;"/>
<linearGradient id="SVGID_5_-i0" gradientUnits="userSpaceOnUse" x1="44.4773" y1="-708.74" x2="44.4773" y2="-1141.799" gradientTransform="matrix(1 0 0 -1 0 -576.524)">
	<stop offset="0" style="stop-color:#EA979A"/>
	<stop offset="0.41" style="stop-color:#F2D38B"/>
	<stop offset="0.5" style="stop-color:#7E9DAE"/>
	<stop offset="0.6" style="stop-color:#90979D"/>
	<stop offset="1" style="stop-color:#7EBDDB"/>
</linearGradient>
<path d="M78.8,133.9c-5,1-11.4,6.2-15.1,12.3L4.3,245.5L3.5,247c-3,4.9-4.1,10.6-3.2,16.2l13.6,92l47.3-3.3l-2.5-83.5  L88.8,218l0.1-9.7c0.1-9.4-0.6-18.7-2.2-27.9L78.8,133.9z" style="fill:url(#SVGID_5_-i0);"/>
<path d="M61.2,351.7l0.5,17.1c0.3,12.6-9.7,23-22.2,23.3c-11.4,0.3-21.3-8-23-19.3l-2.6-17.8L61.2,351.7z" style="fill:#EA7068;"/>
<path d="M140.5,92.5h12.8c2.8,0,5.1,2.3,5.1,5.1h-23.1C135.4,94.8,137.6,92.5,140.5,92.5z" style="fill:#2B2B2B;"/>
<circle cx="92.2" cy="31.4" r="16.7" style="fill:#FFFFFF;"/>
<path d="M92.2,49.2c-9.9,0-17.8-8-17.8-17.8c0-9.9,8-17.8,17.8-17.8s17.8,8,17.8,17.8c0,0,0,0,0,0  C110,41.2,102,49.2,92.2,49.2z M92.2,15.7c-8.7,0-15.7,7-15.7,15.7s7,15.7,15.7,15.7s15.7-7,15.7-15.7  C107.9,22.8,100.8,15.7,92.2,15.7z" style="fill:#F5BBFF;"/>
<path d="M143.7,50.4L143.7,50.4c-16.7-3.7-34.2,2-45.5,14.9l0,0l-8.8-26.8l45.5-14.9L143.7,50.4z" style="fill:#FFFFFF;"/>
<path d="M98.2,66.4H98c-0.4-0.1-0.7-0.4-0.8-0.7l-8.8-26.8c-0.1-0.3-0.1-0.6,0.1-0.8c0.1-0.3,0.4-0.4,0.7-0.5l45.5-14.9  c0.6-0.2,1.2,0.1,1.4,0.7c0,0,0,0,0,0l8.8,26.8c0.1,0.4,0,0.8-0.2,1.1c-0.3,0.3-0.6,0.4-1,0.4c-16.3-3.5-33.3,2-44.4,14.5  C99,66.3,98.6,66.3,98.2,66.4z M90.8,39.2l7.8,23.9c11.2-11.7,27.5-17,43.4-14.1l-7.8-24L90.8,39.2z" style="fill:#F5BBFF;"/>
<circle cx="126.1" cy="18.3" r="17.1" style="fill:#FFFFFF;"/>
<path d="M126.1,36.5c-10.1,0-18.3-8.2-18.2-18.3S116.1,0,126.2,0s18.3,8.2,18.2,18.3c0,0,0,0,0,0  C144.4,28.3,136.2,36.5,126.1,36.5C126.1,36.5,126.1,36.5,126.1,36.5z M126.1,2.1c-8.9,0-16,7.2-16,16s7.2,16,16,16s16-7.2,16-16  c0,0,0,0,0,0C142.2,9.3,135,2.1,126.1,2.1L126.1,2.1z" style="fill:#F5BBFF;"/>
<circle cx="101.4" cy="25.7" r="18.1" style="fill:#FFFFFF;"/>
<path d="M119,29.8c-2.3,9.7-12.1,15.7-21.9,13.4c-3.8-0.9-7.2-3-9.7-6" style="fill:#FFFFFF;"/>
<path d="M101.3,44.9c-1.5,0-2.9-0.1-4.3-0.5c-4.1-0.9-7.7-3.2-10.4-6.5c-0.4-0.4-0.3-1.1,0.1-1.5s1.1-0.3,1.5,0.1  c2.4,2.8,5.6,4.8,9.2,5.6c9.1,2.1,18.2-3.5,20.5-12.6c0.1-0.6,0.7-1,1.3-0.8c0.6,0.1,1,0.7,0.8,1.3c0,0,0,0,0,0.1  C118,38.7,110.2,44.8,101.3,44.9z" style="fill:#F5BBFF;"/>
<path d="M83.9,21.2c2.5-9.6,12.3-15.5,22-13.1c4.8,1.2,8.9,4.3,11.3,8.7" style="fill:#FFFFFF;"/>
<path d="M83.9,22.3h-0.3c-0.6-0.1-0.9-0.7-0.8-1.3c0,0,0,0,0,0c2.7-10.2,13.1-16.4,23.3-13.8c5.1,1.3,9.4,4.6,12,9.2  c0.3,0.5,0.1,1.1-0.3,1.4c0,0,0,0-0.1,0c-0.5,0.3-1.1,0.1-1.4-0.4c-2.3-4-6.1-7-10.6-8.2C96.6,6.8,87.4,12.3,85,21.4  c0,0,0,0.1,0,0.1C84.8,22,84.4,22.3,83.9,22.3z" style="fill:#F5BBFF;"/>
<path d="M59,276.5c-0.6,0-1.1-0.4-1.1-1c0,0,0-0.1,0-0.1l-0.2-7.2c0-0.2,0.1-0.4,0.1-0.6L85.6,221  c0.3-0.5,1-0.7,1.5-0.4c0.5,0.3,0.7,1,0.4,1.5l-27.7,46.3l0.2,6.9c0.1,0.6-0.3,1.1-0.8,1.2C59.1,276.5,59.1,276.5,59,276.5L59,276.5  z" style="fill:#2B2B2B;"/>
<path d="M138.2,419.8c-0.5,0-1-0.4-1.1-0.9l-8.5-38.4c-0.1-0.6,0.3-1.2,0.8-1.3c0.6-0.1,1.1,0.2,1.3,0.8l8.5,38.4  c0.1,0.6-0.2,1.2-0.8,1.3c0,0,0,0,0,0C138.4,419.8,138.3,419.8,138.2,419.8z" style="fill:#F5BBFF;"/>
<path d="M105.7,355.5L105.7,355.5c-0.7-0.1-1.1-0.6-1-1.2l3.3-25.6c0.1-0.6,0.6-1,1.2-0.9c0,0,0,0,0.1,0  c0.6,0.1,1,0.6,0.9,1.2l-3.3,25.6C106.7,355.1,106.2,355.5,105.7,355.5z" style="fill:#F5BBFF;"/>
<path d="M170.7,217.8c-0.1,0-0.3,0-0.4-0.1c-0.6-0.2-0.8-0.8-0.6-1.4c0,0,0,0,0,0l9.7-21.5c0.2-0.6,0.9-0.8,1.4-0.6  s0.8,0.9,0.6,1.4l-9.7,21.5C171.6,217.6,171.2,217.9,170.7,217.8z" style="fill:#2B2B2B;"/>
<circle cx="119" cy="141.7" r="7.6" style="fill:#4C7DE0;"/>
<ellipse transform="matrix(0.9327 -0.3606 0.3606 0.9327 -47.4047 45.4094)" cx="98" cy="149.7" rx="18.9" ry="6.8" style="fill:#4C7DE0;"/>
<ellipse transform="matrix(0.3224 -0.9466 0.9466 0.3224 -47.3374 228.865)" cx="136.2" cy="147.5" rx="6.5" ry="14.8" style="fill:#4C7DE0;"/>
<path d="M118.9,145.3c-28.1,0-31.5-13.3-31.8-14.8l7.2-1.3v-0.1c0,0.1,2.5,9,24.6,9h0.1c2,0,3.6,1.6,3.6,3.6  c0,0,0,0,0,0C122.6,143.7,120.9,145.3,118.9,145.3L118.9,145.3z" style="fill:#4C7DE0;"/>
<path d="M119.3,145.3c-2,0-3.7-1.7-3.7-3.7c0-1.8,1.4-3.4,3.2-3.6c9.9-1.2,9.3-11.4,9.2-12.5c-0.2-2,1.2-3.9,3.3-4.1  c2-0.2,3.9,1.2,4.1,3.3l0,0c0.3,3.1-0.2,6.2-1.2,9.1c-2.2,6.5-7.3,10.4-14.4,11.3C119.6,145.3,119.5,145.3,119.3,145.3z" style="fill:#4C7DE0;"/>

      </g>
    </g>
</g>

<!-- ITEM 1 -->
<g>
    <defs>
        
        <clipPath id="clip-path-id-viewbox-item-1">
            <rect x="0.0" y="0.0" width="180.37" height="164.761"/>
        </clipPath>
    </defs>
    <g transform="translate(572.0 883.0) rotate(0.0 263.0 241.5) scale(2.9162277540610964 2.9315189881100503)">
      <g clip-path="url(#clip-path-id-viewbox-item-1)" transform="translate(-0.0 -0.0)">
      <title>chair_1</title><g id="Layer_2-i1" data-name="Layer 2"><g id="Layer_1-2-i1" data-name="Layer 1"><path d="M176.682,7.387H3.687A3.652,3.652,0,0,1,0,3.7,3.651,3.651,0,0,1,3.687.012H176.682A3.652,3.652,0,0,1,180.37,3.7,3.653,3.653,0,0,1,176.682,7.387Z" fill="#f9d5ff"/><path d="M30.752,164.761a3.628,3.628,0,0,1-2.212-.737,3.671,3.671,0,0,1-.738-5.163L145.059,1.487a3.688,3.688,0,1,1,5.9,4.425L33.7,163.286A3.735,3.735,0,0,1,30.752,164.761Z" fill="#f9d5ff"/><path d="M148.009,164.761a3.735,3.735,0,0,1-2.95-1.475L27.8,5.912A3.737,3.737,0,0,1,28.54.749a3.736,3.736,0,0,1,5.162.738L150.959,158.861a3.737,3.737,0,0,1-.738,5.163A3.626,3.626,0,0,1,148.009,164.761Z" fill="#f9d5ff"/></g></g>
      </g>
    </g>
</g>

<!-- ITEM 2 -->
<g>
    <defs>
        
        <clipPath id="clip-path-id-viewbox-item-2">
            <rect x="0.0" y="0.0" width="76.751" height="76.684"/>
        </clipPath>
    </defs>
    <g transform="translate(723.0 616.0) rotate(0.0 138.0 138.0) scale(3.596044351213665 3.599186270930051)">
      <g clip-path="url(#clip-path-id-viewbox-item-2)" transform="translate(-0.0 -0.0)">
      <title>dinner</title><g id="Layer_2-i2" data-name="Layer 2"><g id="Layer_1-2-i2" data-name="Layer 1"><path d="M25.714,31.911c5.547,7.26,4.639,14.42-.5,17.849s-12.5,2.017-18.05-5.345C1.613,37.155.1,26.667,5.143,23.239S20.168,24.65,25.714,31.911Z" fill="#fff"/><path d="M19.462,52.684c-4.638,0-9.378-2.622-13.109-7.563C2.42,39.877.4,33.222,1.21,28.18a8.055,8.055,0,0,1,3.429-5.748c4.739-3.227,14.924-.4,22.084,8.874h0c3.025,4.134,4.437,8.47,3.832,12.3a10.019,10.019,0,0,1-4.639,7.059A11.612,11.612,0,0,1,19.462,52.684ZM9.378,23.239a6.81,6.81,0,0,0-3.529.907,6.468,6.468,0,0,0-2.521,4.336c-.706,4.337,1.21,10.488,4.739,15.227,4.841,6.454,11.5,8.471,16.538,5.143a8.131,8.131,0,0,0,3.63-5.647c.5-3.328-.706-6.958-3.428-10.689C20.571,26.97,14.118,23.239,9.378,23.239Z" fill="#f9d5ff"/><ellipse cx="17.647" cy="39.777" rx="6.958" ry="6.555" fill="#fdd668"/><rect x="32.182" y="17.562" width="42.254" height="2.219" transform="translate(9.813 54.707) rotate(-58.944)" fill="#fdd668"/><rect x="39.559" y="17.661" width="42.857" height="2.218" transform="translate(4.951 49.294) rotate(-45.685)" fill="#fdd668"/><ellipse cx="48.202" cy="42.398" rx="15.933" ry="15.126" fill="#fff"/><path d="M48.2,58.524c-9.337,0-16.933-7.234-16.933-16.126s7.6-16.126,16.933-16.126S65.135,33.506,65.135,42.4,57.539,58.524,48.2,58.524Zm0-30.252c-8.234,0-14.933,6.337-14.933,14.126s6.7,14.126,14.933,14.126S63.135,50.187,63.135,42.4,56.436,28.272,48.2,28.272Z" fill="#fdd668"/><ellipse cx="48.202" cy="42.398" rx="12.807" ry="12.101" fill="#fff"/><path d="M48.2,55.5C40.589,55.5,34.4,49.622,34.4,42.4S40.589,29.3,48.2,29.3s13.807,5.877,13.807,13.1S55.815,55.5,48.2,55.5Zm0-24.2c-6.511,0-11.807,4.98-11.807,11.1s5.3,11.1,11.807,11.1S60.009,48.52,60.009,42.4,54.712,31.3,48.2,31.3Z" fill="#fdd668"/><ellipse cx="48.202" cy="42.398" rx="9.277" ry="8.773" fill="#fff"/><path d="M48.2,52.171A10.046,10.046,0,0,1,37.925,42.4a10.29,10.29,0,0,1,20.554,0A10.046,10.046,0,0,1,48.2,52.171Zm0-17.546A8.046,8.046,0,0,0,39.925,42.4a8.293,8.293,0,0,0,16.554,0A8.046,8.046,0,0,0,48.2,34.625Z" fill="#fdd668"/><ellipse cx="48.202" cy="42.398" rx="5.849" ry="5.445" fill="#fff"/><path d="M48.2,48.844A6.664,6.664,0,0,1,41.353,42.4a6.862,6.862,0,0,1,13.7,0A6.664,6.664,0,0,1,48.2,48.844Zm0-10.891A4.665,4.665,0,0,0,43.353,42.4a4.867,4.867,0,0,0,9.7,0A4.665,4.665,0,0,0,48.2,37.953Z" fill="#fdd668"/><ellipse cx="38.924" cy="42.398" rx="11.294" ry="10.689" fill="#fff"/><path d="M38.925,54.087c-6.779,0-12.295-5.243-12.295-11.689s5.516-11.689,12.295-11.689S51.219,35.953,51.219,42.4,45.7,54.087,38.925,54.087Zm0-21.378c-5.677,0-10.295,4.347-10.295,9.689s4.618,9.689,10.295,9.689S49.219,47.741,49.219,42.4,44.6,32.709,38.925,32.709Z" fill="#fdd668"/><ellipse cx="38.924" cy="42.398" rx="8.269" ry="7.765" fill="#fff"/><path d="M38.925,51.163a9.038,9.038,0,0,1-9.27-8.765,9.037,9.037,0,0,1,9.27-8.764A9.037,9.037,0,0,1,48.193,42.4,9.038,9.038,0,0,1,38.925,51.163Zm0-15.529a7.038,7.038,0,0,0-7.27,6.764,7.039,7.039,0,0,0,7.27,6.765A7.038,7.038,0,0,0,46.193,42.4,7.037,7.037,0,0,0,38.925,35.634Z" fill="#fdd668"/><ellipse cx="38.924" cy="42.398" rx="4.941" ry="4.639" fill="#fff"/><path d="M38.925,48.037a5.646,5.646,0,1,1,5.94-5.639A5.8,5.8,0,0,1,38.925,48.037Zm0-9.277a3.65,3.65,0,1,0,3.94,3.638A3.8,3.8,0,0,0,38.925,38.76Z" fill="#fdd668"/><path d="M67.462,42.4H1.109c0,12.5,7.765,23.4,18.958,28.337v4.84H48.5v-4.84C59.8,65.692,67.462,54.9,67.462,42.4Z" fill="#fff"/><path d="M48.5,76.684H20.067a1.119,1.119,0,0,1-1.109-1.109V71.44A32.514,32.514,0,0,1,0,42.3a1.119,1.119,0,0,1,1.109-1.11H67.462a1.119,1.119,0,0,1,1.109,1.11c0,12.3-7.462,23.6-18.958,29.142v4.135A1.119,1.119,0,0,1,48.5,76.684ZM21.176,74.466H47.4V70.734a1.05,1.05,0,0,1,.706-1.008C58.891,64.886,65.95,54.6,66.454,43.508H2.319c.4,11.193,7.563,21.479,18.353,26.218a1.1,1.1,0,0,1,.706,1.008l-.2,3.732Z" fill="#f9d5ff"/><path d="M66.454,51.171H2.118a1.109,1.109,0,1,1,0-2.218H66.454a1.109,1.109,0,0,1,0,2.218Z" fill="#f9d5ff"/><path d="M64.134,57.222H4.437a1.11,1.11,0,0,1,0-2.219h59.7a1.11,1.11,0,1,1,0,2.219Z" fill="#f9d5ff"/><path d="M41.244,72.348s4.537-.2,7.26-1.614" fill="#fff"/><path d="M41.244,73.457a1.037,1.037,0,0,1-1.11-1.008,1.2,1.2,0,0,1,1.009-1.21c.1,0,4.336-.2,6.857-1.513a1.06,1.06,0,1,1,.908,1.916c-2.824,1.513-7.463,1.815-7.664,1.815Z" fill="#f9d5ff"/></g></g>
      </g>
    </g>
</g>

<!-- ITEM 3 -->
<g>
    <defs>
        
        <clipPath id="clip-path-id-viewbox-item-3">
            <rect x="603.58" y="904.821" width="86.923" height="40.454"/>
        </clipPath>
    </defs>
    <g transform="translate(756.0 589.0) rotate(0.0 77.5 36.0) scale(1.7831874187499281 1.779799278192515)">
      <g clip-path="url(#clip-path-id-viewbox-item-3)" transform="translate(-603.58 -904.821)">
      
<g>
	<path fill="#F9D5FF" d="M645.603,937.488c-0.553,0-1-0.447-1-1v-30.667c0-0.553,0.447-1,1-1s1,0.447,1,1v30.667   C646.603,937.041,646.156,937.488,645.603,937.488z"/>
</g>
<g>
	<path fill="#F9D5FF" d="M671.912,945.276c-0.198,0-0.398-0.059-0.572-0.181c-0.453-0.317-0.563-0.94-0.246-1.393l17.59-25.12   c0.317-0.453,0.941-0.563,1.393-0.246c0.453,0.317,0.563,0.94,0.246,1.393l-17.59,25.12   C672.538,945.127,672.228,945.276,671.912,945.276z"/>
</g>
<g>
	<path fill="#F9D5FF" d="M622.171,945.276c-0.315,0-0.626-0.148-0.82-0.427l-17.59-25.12c-0.316-0.452-0.207-1.075,0.246-1.393   c0.45-0.316,1.076-0.207,1.393,0.246l17.59,25.12c0.316,0.452,0.207,1.075-0.246,1.393   C622.57,945.217,622.369,945.276,622.171,945.276z"/>
</g>

      </g>
    </g>
</g>

              </svg>