<?xml version="1.0" encoding="utf-8"?>
<!-- Generator: Adobe Illustrator 23.0.2, SVG Export Plug-In . SVG Version: 6.00 Build 0)  -->
<svg version="1.1" id="Capa_1" xmlns="http://www.w3.org/2000/svg" xmlns:xlink="http://www.w3.org/1999/xlink" x="0px" y="0px" viewBox="0 0 800 561" style="enable-background:new 0 0 800 561;" xml:space="preserve">

<path d="M780.2,184.2C767,150,747,118.5,720.7,92.7C691,63.6,654.1,42.1,615.3,27.6C525-6.4,425.2-3,330.9,6.4
	c-87,8.7-180.5,30.8-241.2,98.8C74.5,122.3,62,141.6,51,161.6c-11.2,20.2-21.9,41.3-26.7,64.1c-7.8,37.4,3.8,77.2,29.7,105.2
	c4.6,4.9,9.7,9.4,15.1,13.5c-1.7,1.9-1.6,5.8,1.6,7.1c45.1,18,93.1-4.6,137.1-15.8c48-12.2,97.5-17.7,146.8-18.7
	c49.9-1,99.8,2.3,149.4,7.4c47.1,4.9,94.6,10.3,141.3,18.1c44.7,7.5,91.2,20.3,122.1,55.7c1.6,1.9,5.4,1.5,6.4-0.9
	C805.7,331,806.7,252.4,780.2,184.2z" style="fill:#B6C8E8;"/>
<g>
	<path d="M776.9,363.1c-9.9-11-24.2-14.4-37.1-17.6c-19-4.6-38-8.6-57.2-12c-36.8-6.7-74-11.6-111.3-15.4
		c-76.9-7.8-154.1-11.6-231.1-16.4c-37.6-2.3-75.3-5.5-113-6.8c-32.3-1.2-65.6,0.1-96.8,11.5c-28.9,10.6-54,30.3-73,57.7
		c-13.5,19.3-23.8,41.2-32.2,64.1c-1.9,3-3.6,6.1-5.4,9.1c-4.2,7.3-8.3,14.5-12.2,21.9c-2.9,5.2-5.8,11-6.7,17.1
		c-0.1,3.6,0.1,7.3,0.7,10.7c0.6,1.9,1.3,3.6,2.3,5.4c9.4,9.3,21.6,15.2,33.2,21.6c2.3,1.3,3.2,3.3,3.2,5.2
		c26.3,12,54.8,15.2,82.8,16.5c36.8,1.7,73.7,2,110.5,4.6c77.2,5.5,154.1,15.1,231.2,18.9c38,1.9,76,2.3,114,0.1
		c19.4-1.2,38.9-2.9,58.2-5.5c16.4-2.2,33.2-4.9,48-14.4c14.4-9.1,25.8-23.4,36.7-37.6c11.2-14.7,21.6-30.2,31.2-46.4
		c9.7-16.5,19-33.8,26.7-51.8C785.6,389.9,787.3,374.7,776.9,363.1z" style="fill:#F7D3BD;"/>
</g>
<g>
	<path d="M434.4,345c-0.4-8.1-0.9-16.2-1.3-24.4c-1-18.4-2-37-3-55.4c-0.4-7.8,0.4-17.3-2-24.8
		c-2.2-6.2-8.4-8.8-13.9-11.6c-29.9-14.9-61.4-26.5-93.6-35.1c0.4-23.9-0.6-48-3.9-71.7c-1.5-10.2-4.1-21.5-11.5-29
		c-8.7-9-18.7-3.3-28.6,0.7c-48.9,20.3-96.8,43.1-143.3,68.3c-24.2,13.2-49.8,26.1-69.3,46c-2.2-0.3-4.6,1-4.6,3.9
		c0.4,65.4-0.1,130.8,1.3,196.1c0.3,16,1,32.1,2.6,48c1,10,0,27,9.3,33.7c5.2,3.8,12.3,5.2,18.3,7.3c7.7,2.6,15.2,5.4,22.9,8
		c15.2,5.4,30.5,10.6,45.7,16c5.5,1.9,11.9,5.1,17.8,4.2c6.7-1,12.9-5.9,18.6-9.1c14.2-8,28.6-16,42.8-23.8
		c27.7-15.4,55.4-30.6,81.5-48.7c26.5-18.3,52.5-37.4,78.8-56.3c6.5-4.8,13.2-9.4,19.7-14.2c4.6-3.3,10.2-6.5,13.2-11.5
		C435.1,356.6,434.7,350.6,434.4,345z" style="fill:#F7D16F;"/>
	<path d="M255.8,382.4c-6.1,5.4-12.5,10.4-19.3,15.1c-1.5-9.3-2.2-18.7-2.2-28.1c0-1-0.3-1.7-0.7-2.3
		c0.1-2.5,0-5.1-0.9-7.7c-1.2-4.1-3.9-7.1-7.3-9.1c-0.1-0.6-0.4-1.2-0.9-1.7c-12.6-15.1-35.8-18.1-53.8-22.6c-1-0.3-2.2-0.6-3.2-0.7
		c8.8-5.9,17.3-12.6,24.8-20c4.1-3.9-2.2-10-6.1-6.1c-7.5,7.3-15.7,13.8-24.4,19.6c-1.9,1.2-2.3,3.2-1.7,4.8
		c-16-3.9-31.9-7.3-48-10.4c-7.3-31-8.4-63.2-14.9-94.4c30.9-11.9,54.3-36.3,83-52.2c4.9-2.8,0.6-10.3-4.4-7.5
		c-28.4,15.7-51.6,40.5-82.4,51.8c-0.4-0.1-1-0.3-1.5-0.3c-8.8,0.1-17.6-0.4-26.3-1.7c-5.5-0.7-7.8,7.5-2.3,8.4
		c8.3,1.2,16.7,1.9,25.1,1.9c6.5,30.5,7.8,61.7,14.5,92.1c-0.4-0.1-0.9-0.1-1.3-0.3c-5.5-1-7.8,7.4-2.3,8.4
		c21.5,3.9,42.6,8.4,63.8,13.6c10.2,2.5,20.3,5.1,30.3,8c6.1,1.7,11.9,3.8,17.1,7c-3.5,0.7-7,2-10.3,3.6c-0.1,0-0.3,0-0.6,0.1
		c-13.8,4.9-30.2,13.9-28,31.2c0.6,4.6,2.5,8.1,5.1,10.6c-28.7-5.7-57.9-9.7-87-11.9c-5.7-0.4-5.5,8.3,0,8.7
		c30.2,2.3,60.2,6.5,89.9,12.6c3.5,0.7,5.7-2.5,5.4-5.1c7.3,1.9,16,0.6,22.6-2.5c6.2-2.8,13.2-7.1,18.3-12.8c0.6,8,1.6,15.8,3,23.6
		c0.6,2.8,4.2,4.1,6.4,2.6c9.3-5.9,18.1-12.6,26.4-20C266.2,384.9,260,378.8,255.8,382.4z M205.6,386.6c-8.8,4.4-27.6,6.1-25-9
		c1.2-7,6.8-11.3,12.9-14.4c1,0.3,2.2,0.3,3.3-0.3c7.1-3.9,26.7-14.4,28,1.3C225.9,374.9,213.7,382.7,205.6,386.6z" style="fill:#C39A8A;"/>
	<path d="M424.6,264.8c-5.7,3.9-11.7,7.3-18.4,9.1c-4.1,1.2-10,2.6-11.9-2.3c-1-2.9,0.3-7,1.5-9.6
		c4.8-11.6,16.2-19.7,28.7-21c5.5-0.6,5.5-9.3,0-8.7c-17.8,1.9-37.1,15.4-38.9,34.5c-0.1,1.5-0.1,3,0,4.5c-2.3-1.2-4.8-2.2-7-3.3
		c-12.3-6.4-24.1-13.8-35.4-21.8c-4.6-3.2-9,4.4-4.4,7.5c9.1,6.5,18.7,12.6,28.6,18c4.5,2.5,9.4,4.5,13.8,7.3
		c5.2,3.3,4.2,10.3,4.8,16c0.3,2.8,0.6,5.7,0.9,8.4c0.4,3.9,0.7,4.6-1.5,7.5c-2.9,3.9-7.4,7.3-11,10.6c-8.6,7.7-17.6,14.8-27.1,21.2
		c-4.6,3.2-0.3,10.7,4.4,7.5c10.7-7.4,21.2-15.4,30.8-24.4c3.9-3.6,10.9-8.6,13.3-13.3c2.2-4.6-0.7-13.9-1.3-19
		c-0.3-3.2-0.3-7.3-0.9-10.9c1.2,0.4,2.3,0.9,3.8,1c10.7,1.3,23.2-5.7,31.6-11.6C433.6,269.1,429.3,261.6,424.6,264.8z" style="fill:#C39A8A;"/>
	<path d="M317.4,198c-1.3-2.2-3.8-2.6-5.9-1.6c-6.5,2.9-11.3,9.1-12.6,16.1c-1,5.5,7.4,7.8,8.4,2.3
		c1-5.1,3.9-8.8,8.6-10.9C318,203,318.6,199.9,317.4,198z" style="fill:#C39A8A;"/>
</g>
<path d="M647,350.5c-13.2-14.7-33.2-17.4-53.1-15.7c-52.9-4.1-101.5,21.6-139.7,51.2c-23.2,18.1-45,37.9-67,57
	c-9.4,8.1-20.2,16.2-24.8,27.3c-3.6,8.7-2.5,18.3,1.7,26.5c9.9,19.7,33.1,30,57.4,30.5c28.1,0.6,56-9.7,80.1-21.3
	c48.6-23.4,87.5-58.3,124.8-93C644.1,396.6,666.6,372.2,647,350.5z" style="fill:#F087B1;"/>
<g>
	<path d="M506.2,145.8c-1.2-12.3-2.3-24.7-3.5-36.8c-0.7-7.3,0.7-20.9-7.3-24.7c-4.4-2-10.7-0.9-15.4-0.9
		c-6.4,0.1-12.6,0.1-19,0.3c-8.1,0.1-24.5-3.3-27.7,7c-1.5,4.6-0.1,10,0.4,14.7c0.7,5.5,1.7,10.9,2.8,16.2l0.9,9
		c0.6,6.2,1.2,12.3,1.6,18.6c0.4,4.2,0,10,2.3,13.6c2.2,3.3,5.7,3.6,9.3,3.9c6.1,0.3,12.2,0.4,18.3,0.7c6.1,0.3,12.2,0.4,18.3,0.7
		c4.6,0.1,10.3,1.3,14.8-0.4C510.2,164.5,506.9,152.5,506.2,145.8z" style="fill:#C39A8A;"/>
	<path d="M624.8,191.2c-0.6-1.6-2.2-3-3.9-3c-44.2,1.9-88.6,3.9-132.9,5.8c-4.1,0.1-4.9,4.9-2.9,7.1
		c0.9,17.3,0.9,35,2.8,52.1c0.6,4.8,1.9,10,6.1,12.9c5.5,3.9,14.1,1.6,20.2,1.2c36.8-2.6,73.8-4.4,110.8-5.5c1.6,0,3.6-1.2,3.9-3
		C632.8,236.2,631.5,213.3,624.8,191.2z" style="fill:#74A3D7;"/>
	<path d="M628.9,113.7c-1.2-16.4-2.5-32.6-3.6-49c-0.1-2.2-1.7-4.1-4.1-4.1c-25-0.3-49.8,0.4-74.6,2.2
		c-2.6,0.1-3.9,2.3-3.9,4.4c-0.9,0.7-1.3,1.6-1.5,2.9c-0.6,14.9-0.6,30,0.1,45c0.4,7.5,0.9,14.9,1.6,22.5c0.6,6.2,0.1,14.4,2.6,20.2
		c1.7,4.5,5.9,4.6,10.2,4.8c7.5,0.4,15.1,0.6,22.6,0.7c15.5,0.3,31.2,0,46.7-0.9c1.7-0.1,3.6-1.2,3.9-3
		C632.1,144.4,629.9,129,628.9,113.7z" style="fill:#F087B1;"/>
	<path d="M486.7,132.5c-0.3-8.3,0-16.8-1-25.1c-0.7-5.7-4.2-8.3-9.6-9.1c-7.7-1.2-15.8-1-23.6-0.7
		c-2.5,0.1-3.8,2-3.9,3.9c-0.1,0.4-0.3,0.9-0.1,1.5c0.4,9,0.9,18,1.2,27c0.1,4.8-1.2,13.6,3,17.4c3.8,3.3,11.9,2.5,16.5,2.8
		c4.8,0.4,12.2,2.5,16.1-1.5C488.9,144.8,486.9,137.1,486.7,132.5z" style="fill:#FFFFFF;"/>
	<path d="M610.5,84.7c-2.5-8.8-11.2-7.3-18.6-7c-11.5,0.4-23.1,0.9-34.5,1.5c-4.1,0.1-4.9,5.1-2.8,7.3l0,0
		c1.3,11.3,2.6,22.6,3.8,33.9c0.6,5.2,1.2,10.4,1.7,15.7c0.4,3.2,0.4,6.8,2.8,9.4c4.9,5.2,17.8,3.8,24.2,4.1
		c6.4,0.1,19.9,2.6,23.1-4.9c1.6-3.6,1.2-8.3,1.3-12.2c0.3-5.8,0.3-11.6,0.3-17.4C611.9,105.3,613.1,93.9,610.5,84.7z" style="fill:#FFFFFF;"/>
	<path d="M611.3,207.5c-0.1-2.2-1.7-4.1-4.1-4.1c-32.5,0.6-65,1.3-97.5,1.9c-2.9,0-4.2,2.6-3.9,4.9
		c-0.9,0.7-1.5,1.6-1.5,2.9c-0.3,6.7-0.4,13.3-0.1,20c0.3,4.8,0,10.4,1.3,15.1c2.9,10,13.5,7,21.3,5.9l79.6-9.4
		c2.5-0.3,3.8-1.6,4.1-4.1C612.1,229.5,612.4,218.5,611.3,207.5z" style="fill:#FFFFFF;"/>
	<path d="M601.6,110.1c0-2-0.1-3.9-0.6-5.9c-2.6-11.5-18.4-20.7-26.5-8.7c-6.4,9.4-8.8,32.5,2.6,39.5
		c13.3,8.1,24.4-10.4,24.8-21.6C601.9,112.4,601.8,111.3,601.6,110.1z" style="fill:#F7D16F;"/>
	<path d="M597,227c0.3-0.1-4.2-7-5.1-7.7c-1.9-1.6-4.2-2.5-6.7-2.8c-5.5-0.6-8.7,2.8-12.2,6.5c-2.3,2.6-2.8,3.9-5.1,1
		c-1.5-1.9-2.2-4.4-3.6-6.2c-2.3-3.2-5.9-5.4-10-4.5c-3.8,0.9-6.1,4.1-7.8,7.3c-0.9,1.5-2,5.2-3.8,5.9c-2.3,1-4.2-2.2-5.7-3.8
		c-3-3.2-6.4-6.1-11-5.2c-6.2,1.2-6.8,7.8-11.5,10.9c-4.4,2.9-0.3,10,4.1,7.1c3.6-2.5,7.1-11.2,11.2-8.6c3.8,2.5,5.2,7,10,8
		c3.9,0.9,7.4-1,9.9-3.9c1.9-2.2,4.5-10.4,7.4-9.1c2.9,1.2,4.4,8.1,7.1,10.3c3.2,2.6,7.4,2.6,10.9,0.4c2-1.3,3-3.3,4.6-4.9
		c1.3-1.3,3.2-3.5,5.4-2.9c2,0.6,3.2,4.2,4.1,5.8c2.6,4.2,7.3,6.1,11.6,3.3C605.5,231.2,601.3,224.1,597,227z" style="fill:#56597A;"/>
	<path d="M480.5,133.9c-0.4-1.3-1.6-2.6-3-2.9c-0.6-1.3-2.2-3.8-2.5-4.1l-1.7-2.8l4.4-5.4c3.2-4.1-2.5-9.9-5.8-5.8
		c-1,1.3-2.2,2.6-3.2,4.1c-1.5-2.2-2.9-4.5-4.4-6.7c-2.9-4.4-10-0.3-7.1,4.1l6.1,9.3c-2,2.5-4.1,4.9-5.9,7.5
		c-3.2,4.1,2.5,9.9,5.8,5.8c1.6-2,3.2-4.1,4.9-6.1c1.9,3.3,4.1,7.8,7.5,8.7c1.9,0.4,3.6-0.3,4.6-1.9
		C480.8,136.7,480.9,135.2,480.5,133.9z" style="fill:#F087B1;"/>
</g>
<g>
	<path d="M604.2,365.3c-5.4,0.7-10.3,2.5-14.7,4.8c2.5-4.9,4.4-10.2,5.5-15.5c0.6-3-3.3-5.4-6.2-3
		c-6.2,4.8-12.3,9.7-18.4,14.8c3.8-7.4,6.7-15.2,8.6-23.4c0.6-2.2-1.7-4.6-4.5-3.9c-10.7,2.9-18.7,9.4-26.1,16.4
		c-8.4,7.8-16.8,15.4-26.4,22.2c-19.4,14.1-41.8,25.4-65.6,33.5c-0.1-0.3-0.3-0.6-0.3-0.9c-1.9-4.5-5.1-8.1-9.1-11.3
		c-1.6-1.3-4.8-1.3-5.8,0.6c-6.1,11.2-10,22.8-11.9,35c-16.4,9.6-30.2,21.8-40.9,36.1c-1.7,2.3,1.2,5.4,4.2,4.6
		c13.9-3.2,24.4-11.3,36.7-17.1c9.6-4.5,23.4-7.1,32.3-0.9c-9.6,8.3-17.3,17.8-22.6,28.4c-1.5,2.8,1.6,5.9,5.1,4.4
		c62.8-30.6,118.5-71.2,163.9-119.2C610.2,367.9,608,364.7,604.2,365.3z" style="fill:#56597A;"/>
	<path d="M494.1,423.5c-0.4,0.1-0.7,0.1-1.2,0.3c-0.6-3.8-1.3-7.5-1.9-11.3c-0.6-3.6-0.9-7.5-2.6-10.9
		c-0.7-1.3-2.3-2.2-3.8-2.2c-8.7-0.1-13.6,13.9-22.8,8.4c-4.8-2.9-9.1,4.6-4.4,7.5c4.1,2.5,9,4.2,13.5,2.2c2.6-1.2,4.9-3.2,7.3-4.8
		c1.3-0.9,2.5-1.6,3.8-2.5c0,0,0.1,0,0.1-0.1c0.4,2.3,0.6,4.8,0.9,6.7c0.4,2.9,1,5.7,1.5,8.6c-2.3,0.4-4.6,1-7,1.5
		c0-2.2-1.3-4.4-4.2-4.4c-5.7,0-5.7,8.7,0,8.7c0.3,0,0.6,0,0.9-0.1c0.3,2.5,2.3,4.9,5.4,4.2c5.7-1.2,11.2-2.3,16.8-3.5
		C502,430.7,499.6,422.3,494.1,423.5z" style="fill:#57455E;"/>
	<path d="M467.3,440.7c-2-3.9-4.5-12-10.3-10.6c-2.5,0.7-4.2,3-5.7,4.9c-1.9,2.2-3.5,4.5-5.1,6.8
		c-3.2,4.6,4.4,9,7.5,4.4c1.2-1.7,2.5-3.6,3.9-5.4c0.7,1.3,1.5,2.8,2,4.1C462.4,450,469.9,445.6,467.3,440.7z" style="fill:#57455E;"/>
	<path d="M489.2,442c-3-1-5.9-2-8.8-3.3c-2.2-0.9-4.6-0.6-5.9,1.6c-1,1.9-0.6,5.1,1.6,5.9c3.6,1.6,7.3,2.9,10.9,4.2
		c2.2,0.7,4.8-0.9,5.4-3C492.8,445.1,491.4,442.7,489.2,442z" style="fill:#57455E;"/>
	<path d="M442.6,420.4c-5.7,0-5.7,8.7,0,8.7C448.1,429.1,448.1,420.4,442.6,420.4z" style="fill:#57455E;"/>
	<path d="M436.7,430.6c-2.2-1.2-4.5-2.6-6.1-4.1c-1.7-1.5-4.4-1.7-6.1,0c-1.6,1.6-1.9,4.6,0,6.1c1,0.7,1.9,1.6,2.9,2.2
		c-0.3,0-0.4-0.1-0.7-0.1c-2.6-0.1-4.9-0.9-7.3-1.9c-2.2-0.9-4.8,1-5.4,3c-0.7,2.5,0.9,4.5,3,5.4c3,1.3,6.2,1.9,9.6,2.2
		c2.3,0.1,4.4-2.2,4.4-4.4c0-0.9-0.3-1.6-0.7-2.3c0.6,0.4,1.3,0.7,2,1.2c2,1,4.8,0.6,5.9-1.6C439.3,434.5,438.9,431.7,436.7,430.6z" style="fill:#57455E;"/>
	<path d="M561,364.4c-0.6,2-4.2,4.2-5.8,5.5c-2.3,2-4.6,4.1-7,6.1c-4.4,3.8-8.8,7.7-13.2,11.5c-4.2,3.6,1.9,9.9,6.1,6.1
		l16.2-14.2c4.2-3.6,10.3-7.3,11.9-12.8C571,361.4,562.6,359,561,364.4z" style="fill:#57455E;"/>
	<path d="M586.8,364.7c-12.2,10-24.5,19.6-37.1,29c-4.5,3.3-0.1,10.9,4.4,7.5c13.2-9.9,26.3-20,39-30.5
		C597.3,367.3,591,361.1,586.8,364.7z" style="fill:#57455E;"/>
</g>
<g>
	<path d="M306.1,129.4c-2.9-6.5-14.7-8.3-20.6-10.4c-1.6-0.6-3.9,0.3-4.6,1.9c-7.3,16.4-13.1,33.4-17.1,50.8
		c-0.1,0.4-0.1,0.9-0.1,1.3c0,1.7,0.7,3.3,2.9,3.9c6.7,2,18.1,5.5,24.8,1.9c3.5-1.9,4.2-5.2,5.2-8.7c1.5-4.9,2.8-9.9,4.2-14.8
		c1.5-4.9,2.8-9.9,4.2-14.8C306,137,307.7,132.9,306.1,129.4z" style="fill:#56597A;"/>
</g>
<g>
	<path d="M354.1,225c4.2-5.5,9.4-15.8,2.8-21.6c-6.8-5.8-16.4,2.8-22.3,5.9c-10.9,5.9-25,14.7-37.7,14.7
		c-12,0-21.2-9.3-29.2-17.4c6.2-6.7,11.6-14.2,14.2-22.9c3.3-11.3-6.1-15.4-14.8-9c-2.8,2-5.5,4.2-8.1,6.4
		c-5.5-18-14.1-38.4-35-41.5c-0.4,0-0.9,0-1.3,0c0-0.7-0.1-1.5-0.3-2.2c8.3-5.1,11.8-18.3,11.3-27.4c-0.3-6.7-4.5-23.4-12.2-26.1
		c-9.4-5.8-19.7,11.6-22.3,19.9c-3.5,11-3.8,28.9,8.1,34.4c-0.1,0.3-0.1,0.6-0.1,1v2.5c-28.4,2.5-33.7,39.7-38.2,61.9
		c-2.9,14.4-7,30.2-5.1,45c0.7,5.2,2.2,10.7,7.4,13.1c3.9,1.7,8.7,1,13.2,0c4.9,23.2,12.6,60.6,40.5,65.3
		c23.9,4.1,45.8-10.3,64.4-24.7c-5.4,35.2-15.4,69.5-24.1,104c-2.3,9.1-4.5,18.1-6.5,27.4c-1.7,8.3-4.5,17.1-4.8,25.7
		c-0.3,7.3,5.1,10.2,10.7,13.1c8.1,4.4,16.7,7.8,25.5,10.9c2.9,1,6.1-2.2,5.1-5.1c-1-2.9-2.5-5.2-4.6-7.5c-3.8-4.2-5.8-5.7-4.5-11.9
		c1.5-7.1,3.6-14.4,5.8-21.5c1.5,5.7,4.5,10.3,11.8,9.6c12.5-1.2,26.1-8,37.1-13.6c3.6-1.9,1.9-7.7-2-7.5
		c-16.8,0.6-11.6-22-8.7-31.6c3.6-12,7.8-23.8,11.6-35.7c6.5-20.7,12.6-43.4,9.6-65.3c-2.5-17.7-12-33.8-30.5-38
		c-5.8-1.3-11.9-1.7-18-1.6c8.8-2.5,17.6-6.1,25.8-10C338,239.1,347.6,233.4,354.1,225z M266.8,262.1c-1.5-4.1-3-8-4.9-11.9
		c6.8,3.9,14.8,5.7,23.1,5.7C278.6,257.5,272.5,259.7,266.8,262.1z" style="fill:#C39A8A;"/>
	<path d="M252.8,88.8c2.2-8-3.3-15.7-10.9-19.3c-4.1-1.9-10.7-4.2-15.5-3.2c-3.8-4.1-10.7-5.5-16-5.2
		c-7.8,0.6-14.2,4.8-17.3,11.3c-7.1-3.2-15.8-2.3-21.6,3.6c-5.4,5.7-5.8,14.2-2.6,20.9c-2,2.2-3.5,5.5-3.8,8.6
		c-0.4,5.1,1.3,9.7,4.5,12.8c-1.2,2-1.6,4.5-0.7,7c1,3,3.5,4.9,6.2,5.7c1.5,7,9.4,11.8,16.7,9.3c4.6-1.6,10.2-7.7,11.2-13.3
		c1.2-0.3,2.3-0.7,3.3-1.5c0.7,0.7,1.6,1.2,2.9,1.2c4.5,0,5.4-5.7,2.6-7.8c1.2-2.3,2-4.9,2.5-7.4c2.8,0,5.5-1,7.7-2.6
		c1.7,2.6,4.1,4.8,7.4,5.5c2.6,0.6,5.2,0.3,7.5-0.7c4.4,4.4,12.9,3.2,17.6-2.3C260.7,104,259.7,93.9,252.8,88.8z" style="fill:#57455E;"/>
	<path d="M259.1,175.1c-3.3-12.8-11.3-25-21.8-32.9c-4.6-3.5-9-3.6-13.3,0.4c-5.8,5.5-13.2,8.3-19.6,1.6
		c-1.3-1.3-2.8-1.5-3.9-1c-1.3-0.6-2.9-0.4-4.2,0.7c-8.6,6.8-15.4,15.2-20.3,24.8c-7,12.3-11.2,26.3-12.2,40.8
		c-0.1,2.3,2,4.1,4.1,4.1c6.8,0.3,13.3-0.4,19.7-2c-0.4,7.1-0.9,14.2-1.3,21.3c-0.1,3,3.6,5.2,6.1,3.5c14.1-9.3,27.9-19.1,41.2-29.6
		c6.7-5.2,13.3-10.6,19.7-16.1C259.1,185.7,261.2,182.5,259.1,175.1z" style="fill:#FFFFFF;"/>
	<path d="M300.9,481.2c-0.9-4.6-4.8-7.8-7.7-11.2c-5.2-5.9-4.5-12.3-3-19.7c0.6-2.8-1.2-4.9-3.9-5.2
		c-8.6-0.7-16.7-3-24.4-7c-1.5-0.7-2.8-0.6-3.8,0c-1.5,0.1-2.8,1-3.2,2.9c-1.6,6.5-4.4,13.6-4.9,20.3c-0.4,5.1,1.9,7.7,5.5,10.9
		c8.8,7.3,19,12.9,29.7,16.7C292.1,491.2,302.9,491.8,300.9,481.2z" style="fill:#56597A;"/>
	<path d="M345.3,423.6c-2.8-1-10-2.3-11.9-4.5c-1.5-1.7-0.9-4.4-2.9-6.2c-4.6-4.4-10.3-1.7-15.4,0
		c-10.2,3.3-30.6,3-27.3,19.3c0.1,0.4,0.3,0.9,0.4,1.3c1.6,4.6,3.3,12.3,7.1,15.4c4.4,3.5,10.9-0.7,15.2-2.3
		c7.3-2.8,14.5-5.5,21.6-8.4c5.2-2,12.3-3.5,15.5-8.4C349.4,427.2,347.6,424.5,345.3,423.6z" style="fill:#56597A;"/>
	<path d="M352.3,282.6c-5.4-14.4-17.6-24.7-31.9-29.7c-17.1-5.9-33.2-2.9-49.5,4.1c-25.4,11-51.9,15.4-79.2,18.9
		c-4.2,0.6-5.1,6.2-2.2,7.8c1,19.9,13.8,37,32.5,42.5c19.1,5.7,41.6-1.5,58.3-11.7c-13.1,43.2-23.9,87.2-32.2,131.6
		c-0.4,2,0.6,4.6,2.9,5.1c6.8,1.3,13.6,2.6,20.5,3.8c3.8,0.7,7.5,1.7,11.2,0.1c3.6-1.5,5.1-4.6,6.2-8c1.3-3.5,2.3-7.1,3.5-10.6
		c1,0.3,2,0.1,3.2-0.3c10.2-5.5,20.9-9.3,32.2-11.8c1.3-0.3,2.6-1.6,2.9-2.9c5.4-24.1,10.9-48,16.2-72.1
		C351.7,328.3,360.1,303.9,352.3,282.6z" style="fill:#74A3D7;"/>
	<path d="M188.2,294.5c5.5-1,10.9-2.2,16.4-3.2c19.1-7.3,37.9-17.3,56.7-25.7c4.5-2,6.5-7.1,4.8-11.6
		c-3.8-9.9-8.8-22-12.3-29.6c-1-2.2-4.9-2.8-6.4-0.9c-14.4,18.6-36.3,27.4-57.6,35.2c-2-0.7-4.5-0.1-5.1,2.6
		c-1.9,9.6-2.5,19.3-1.7,29C183.3,293.2,185.6,295.1,188.2,294.5z" style="fill:#FFFFFF;"/>
	<path d="M228.5,117.5c-2.3,0.1-4.4,1.9-4.4,4.4v0.6c0,2.3,2,4.5,4.4,4.4c2.3-0.1,4.4-1.9,4.4-4.4v-0.6
		C232.9,119.5,230.8,117.4,228.5,117.5z" style="fill:#57455E;"/>
	<path d="M228.5,130c-0.6-2.2-3-3.8-5.4-3c-2.3,0.7-3.9,1-6.2,0.9c-2.3,0-4.4,2-4.4,4.4c0,2.3,2,4.4,4.4,4.4
		c2.9,0,5.8-0.4,8.6-1.3C227.8,134.8,229.1,132.3,228.5,130z" style="fill:#57455E;"/>
	<path d="M194.6,198.5c0.4-5.7-8.3-5.5-8.7,0c-1,13.8-1.5,27.6-1,41.5c0.1,5.7,8.8,5.7,8.7,0
		C193.3,226,193.6,212.2,194.6,198.5z" style="fill:#57455E;"/>
	<path d="M269.1,252.4c-2.5-11.2-5.5-22.2-8.8-33.1c-1.6-5.4-10-3-8.4,2.3c3.3,10.9,6.4,21.9,8.8,33.1
		C262,260.3,270.4,257.9,269.1,252.4z" style="fill:#57455E;"/>
	<path d="M317.9,261.9c-14.9-14.4-41.9-0.6-57.7,5.4c-5.2,2-2.9,10.4,2.3,8.4c9.6-3.6,19.1-7.3,29-9.7
		c4.5-1,9.4-2.3,14.1-1.3c5.7,1.3,9,6.4,12,10.9c11.9,17.6,9.7,36,6.4,55.8c-6.1,37.7-15.7,75.1-33.4,109.4c-1,2-0.4,3.9,0.7,5.1
		c-1.6-0.6-3.2-0.1-4.6,1c-2.8,2.2-5.5,4.6-8.1,7c-1.7,1.6-1.6,4.5,0,6.1c1.7,1.7,4.4,1.6,6.1,0c2.6-2.5,5.4-4.8,8.1-7
		c1.7-1.5,1.6-4.5,0.1-6.1c1.7,0.7,3.9,0.4,5.1-1.9c20.3-39.6,31.5-84,36.6-128.1C337.2,297,333.1,276.5,317.9,261.9z" style="fill:#57455E;"/>
	<path d="M293.5,458.8c-1.6-1.5-4.6-1.9-6.1,0c-0.3,0.4-0.6,0.7-1,1c0,0,0,0-0.1,0.1c-0.1,0.1-0.3,0.1-0.4,0.3
		c-0.1,0.1-0.3,0.1-0.4,0.3h-0.1c-0.3,0-1.7,0.3-0.6,0.1c-2.3,0.3-4.5,1.9-4.4,4.4c0.1,2.2,1.9,4.6,4.4,4.4c3.3-0.3,6.7-1.7,8.8-4.5
		C295,463.2,295.4,460.6,293.5,458.8z" style="fill:#57455E;"/>
	<path d="M338.8,416.3c-1.9-1.7-4.4-1.6-6.1,0c-2.3,2-4.4,4.5-5.9,7.1c-1.2,2-0.6,4.8,1.6,5.9c2,1.2,4.8,0.6,5.9-1.6
		c0.3-0.6,0.6-1,1-1.6c0.1-0.3,0.3-0.4,0.4-0.7c0-0.1,0.3-0.3,0.3-0.4c0.9-1,1.7-1.9,2.8-2.8C340.5,421.1,340.4,417.9,338.8,416.3z" style="fill:#57455E;"/>
	<path d="M183.7,422.6c-0.7-5.5-9.4-5.5-8.7,0c3.9,32.1,5.4,64.4,4.4,96.6c-0.1,5.7,8.6,5.7,8.7,0
		C189.1,487,187.6,454.6,183.7,422.6z" style="fill:#C39A8A;"/>
	<path d="M293.2,95.8c-17,11.7-33.9,23.5-50.9,35.2c-4.6,3.2-0.3,10.7,4.4,7.5c17-11.7,33.9-23.5,50.9-35.2
		C302.2,100.1,297.9,92.6,293.2,95.8z" style="fill:#C39A8A;"/>
</g>
<path d="M399,173.4c-3.9-5.7-11.3-6.7-17.1-3.3c-0.3,0.1-0.6,0.3-0.7,0.4v-0.1c0.1-2-2-4.2-4.1-4.1
	c-11.9,0.9-23.8,1.6-35.8,2.5c-2,0.1-3.2,1.5-3.6,2.9c-0.9,0.6-1.5,1.7-1.3,3c1,14.8,1.5,35,19.3,38.3c11.2,2,23.2-4.4,24.4-15.2
	C391.7,197.4,406.7,184.4,399,173.4z M387.8,186.6c-2.6,2.2-5.4,3.5-8.3,3.2c0.4-2.3,0.9-4.8,1.9-7c1.3-2.9,6.4-10,10.3-5.4
	C394.2,180.3,390,184.7,387.8,186.6z" style="fill:#FFFFFF;"/>
</svg>
