<?xml version="1.0" encoding="UTF-8"?><svg version="1.1" xmlns="http://www.w3.org/2000/svg" xmlns:xlink="http://www.w3.org/1999/xlink" viewBox="0 0 1500 1500" width="1500" height="1500" x="0px" y="0px">
              
              <!-- ITEM 0 -->
<g>
    <defs>
        
        <clipPath id="clip-path-id-viewbox-item-0">
            <rect x="0.0" y="0.0" width="82.0" height="117.3"/>
        </clipPath>
    </defs>
    <g transform="translate(23.0 451.0) rotate(356.18790477319646 331.0 476.5) scale(8.073170731707316 8.124467178175617)">
        <g clip-path="url(#clip-path-id-viewbox-item-0)" transform="translate(-0.0 -0.0)">


<g>
	<path d="M75.5,112H15l27.2-13.4V58.7C28.3,58.3,12,51.6,12,34.3c0-4.1,0.8-8.2,2.2-12.1c9.4,6.2,25.8,6.7,39.4,5   c4.3,9.3,3.8,20.9-5.2,31.3v40.1L75.5,112z M46.4,39.6c0-1.8-1.5-3.3-3.3-3.3s-3.3,1.5-3.3,3.3c0,1.8,1.5,3.3,3.3,3.3   C45,42.9,46.4,41.4,46.4,39.6C46.4,39.6,46.4,39.6,46.4,39.6z M34.9,49.2c0-1.4-1.2-2.6-2.6-2.6c-1.4,0-2.6,1.2-2.6,2.6   c0,1.4,1.2,2.6,2.6,2.6C33.7,51.8,34.9,50.7,34.9,49.2C34.9,49.2,34.9,49.2,34.9,49.2z M29.3,35.1c0-1.5-1.2-2.7-2.7-2.7   s-2.7,1.2-2.7,2.7c0,1.5,1.2,2.7,2.7,2.7c0,0,0,0,0,0C28.1,37.8,29.3,36.6,29.3,35.1C29.3,35.1,29.3,35.1,29.3,35.1z" style="fill:#E64337;"/>
	<path d="M72.9,22.6c1.3,3.8,2,7.7,2.1,11.7c0,15.9-13.7,22.8-26.7,24.2c9.1-10.4,9.6-22,5.2-31.3   C61.7,26.2,68.9,24.4,72.9,22.6z" style="fill:#F46A3D;"/>
	<path d="M64.2,7.7c3.9,4.3,6.8,9.4,8.8,14.9c-8-4.5-18-6.2-27.7-6.2c-13.9-0.1-26.9,3.2-31.1,5.8   C16.1,16.9,19,12,22.8,7.7H64.2z" style="fill:#5499AF;"/>
	<path d="M72.9,22.6c-4,1.8-11.2,3.6-19.4,4.6c-1.9-4.2-4.8-7.9-8.3-10.8C54.9,16.4,65,18.1,72.9,22.6z" style="fill:#E64337;"/>
	<path d="M45.2,16.4c3.5,3,6.4,6.7,8.3,10.8c-13.6,1.7-29.9,1.2-39.4-5C18.4,19.5,31.3,16.3,45.2,16.4z" style="fill:#F85750;"/>
	<path d="M43.1,36.3c1.8,0,3.3,1.5,3.3,3.3c0,1.8-1.5,3.3-3.3,3.3c-1.8,0-3.3-1.5-3.3-3.3c0,0,0,0,0,0   C39.8,37.8,41.3,36.3,43.1,36.3z" style="fill:#FF736B;"/>
	<circle cx="32.3" cy="49.2" r="2.6" style="fill:#FF736B;"/>
	<circle cx="26.6" cy="35.1" r="2.7" style="fill:#FF736B;"/>
</g>
<path d="M40.3,28.2c-8.8,0-19.1-1.2-26.2-5.9c0,0-0.1-0.1-0.1-0.1c0,0,0-0.1,0.1-0.1c4.5-2.8,17.4-5.8,30.7-5.8c0.2,0,0.3,0,0.5,0  c11.1,0.1,20.7,2.2,27.7,6.3c0,0,0.1,0.1,0.1,0.1c0,0,0,0.1-0.1,0.1c-4.3,1.9-11.7,3.7-19.4,4.6C50.5,27.7,45.7,28.2,40.3,28.2z   M14.4,22.2c11.4,7.4,31.1,5.9,39.1,4.9c7.6-0.9,14.8-2.6,19.1-4.5c-7-3.9-16.5-6-27.4-6.1c-0.2,0-0.3,0-0.5,0  C31.8,16.5,19,19.4,14.4,22.2z"/>
<path d="M75.5,112.4H15c-0.2,0-0.3-0.1-0.4-0.3c0-0.2,0-0.3,0.2-0.4l26.9-13.3V59.1c-14-0.5-30.2-7.3-30.2-24.8  c0-4.2,0.8-8.3,2.2-12.2c2-5.4,4.9-10.3,8.7-14.6c0.1-0.1,0.2-0.1,0.3-0.1h41.4c0.1,0,0.2,0,0.3,0.1c3.9,4.4,6.9,9.4,8.8,15  c1.4,3.8,2.1,7.8,2.1,11.8c0,15.9-13.7,23.1-26.7,24.5v39.5l27,13.3c0.2,0.1,0.2,0.3,0.2,0.4C75.8,112.2,75.6,112.4,75.5,112.4z   M16.6,111.6h57.2L48.1,98.9c-0.1-0.1-0.2-0.2-0.2-0.3V58.5c0-0.2,0.1-0.4,0.3-0.4c12.7-1.3,26.3-8.3,26.3-23.8  c0-3.9-0.7-7.8-2-11.6c-1.9-5.4-4.8-10.3-8.6-14.6H23c-3.7,4.2-6.5,9-8.4,14.2c0,0,0,0,0,0c-1.4,3.8-2.2,7.9-2.2,12  c0,17.1,16.1,23.7,29.8,24.1c0.2,0,0.4,0.2,0.4,0.4v39.8c0,0.1-0.1,0.3-0.2,0.3L16.6,111.6z M14.2,22.2L14.2,22.2L14.2,22.2z"/>

        </g>
    </g>
</g>

<!-- ITEM 1 -->
<g>
    <defs>
        
        <clipPath id="clip-path-id-viewbox-item-1">
            <rect x="0.0" y="0.0" width="57.6" height="170.5"/>
        </clipPath>
    </defs>
    <g transform="translate(847.0 41.0) rotate(6.431427049457308 238.5 703.5) scale(8.28125 8.252199413489736)">
        <g clip-path="url(#clip-path-id-viewbox-item-1)" transform="translate(-0.0 -0.0)">


<g>
	<path d="M56.8,99.2V161c0-2.8-4.2-5.3-10.8-6.9v-46c0-6.3-0.2-11.4-0.5-15.7c3.4-1.1,7-1.2,10.5-0.5   C56.6,94.3,56.8,96.7,56.8,99.2z" style="fill:#E64337;"/>
	<path d="M46.2,73.8c5,4.9,8.5,11.2,9.9,18.1c-3.5-0.7-7.1-0.6-10.5,0.5c-1.1-13.7-3.8-18.8-6.3-25.4L46.2,73.8z" style="fill:#38798F;"/>
	<path d="M46.1,167.8V154c6.5,1.6,10.8,4.1,10.8,6.9c0,2.8-4.2,5.3-10.7,6.9L46.1,167.8z" style="fill:#F46A3D;"/>
	<path d="M46.1,167.8l0,0.1c-5.7,1.3-11.5,1.9-17.3,1.9c-15.5,0-28-3.9-28-8.8s12.6-8.8,28-8.8   c5.8-0.1,11.6,0.6,17.3,1.9V167.8z" style="fill:#E64337;"/>
	<path d="M46.1,108.1v46c-5.7-1.3-11.5-1.9-17.3-1.9c-15.5,0-28,3.9-28,8.8v-19.3c11.2,5.8,34.6,2.5,34.6,2.5V117   c-12.9,3.5-29.3-0.7-34.5-1.9H0.8V99.2c0-2.6,0.3-5.2,0.9-7.8c4.1,5.2,10.1,9,20.7,9c9.9,0,15.7-5.7,23.3-8   C45.9,96.7,46.1,101.8,46.1,108.1z" style="fill:#F85750;"/>
	<path d="M39.2,67c2.5,6.6,5.2,11.7,6.3,25.4c-7.6,2.3-13.3,8-23.3,8c-10.6,0-16.6-3.8-20.7-9   c1.5-6.7,4.9-12.8,9.8-17.6l7-6.8V25H39v42H39.2z" style="fill:#5499AF;"/>
	<path d="M39,11.1V25H18.4V11.1c0-5.7,4.6-10.3,10.3-10.3C34.4,0.8,39,5.4,39,11.1z" style="fill:#F9BABA;"/>
	<path d="M35.3,117v27.2c0,0-23.4,3.4-34.6-2.5v-26.6h0.1C6,116.3,22.4,120.5,35.3,117z" style="fill:#F9BABA;"/>
</g>
<path d="M29.5,170.2c-0.2,0-0.5,0-0.7,0c-15.9,0-28.4-4-28.4-9.2c0-0.2,0.2-0.4,0.4-0.4s0.4,0.2,0.4,0.4c0,4.6,12.7,8.4,27.7,8.4  c5.8,0,11.6-0.6,17.2-1.9c6.5-1.6,10.4-4.1,10.4-6.6c0-0.2,0.2-0.4,0.4-0.4s0.4,0.2,0.4,0.4c0,2.9-4,5.6-11,7.3  C40.7,169.5,35.1,170.2,29.5,170.2z"/>
<path d="M56.8,161.2c-0.1,0-0.3-0.1-0.3-0.3c0-2.6-3.9-5.1-10.6-6.7c-5.6-1.3-11.4-1.9-17.2-1.9C13.5,152.4,1,156.2,1,161  c0,0.1-0.1,0.3-0.3,0.3s-0.3-0.1-0.3-0.3c0-5.1,12.4-9.1,28.3-9.1c5.8-0.1,11.7,0.6,17.3,1.9c7,1.7,10.9,4.3,10.9,7.2  C57.1,161.1,57,161.2,56.8,161.2z"/>
<path d="M56.8,161.3c-0.2,0-0.4-0.2-0.4-0.4V99.2c0-2.4-0.2-4.9-0.7-7.2c-1.4-6.8-4.8-13-9.8-17.9L39,67.4c-0.2,0-0.4-0.2-0.4-0.4  V11.1c0-5.5-4.5-9.9-9.9-9.9c-5.5,0-9.9,4.5-9.9,9.9V67c0,0.1,0,0.2-0.1,0.3l-7,6.8C5,80.6,1.1,89.8,1.1,99.2V161  c0,0.2-0.2,0.4-0.4,0.4s-0.4-0.2-0.4-0.4V99.2c0-9.6,3.9-18.9,10.8-25.7l6.9-6.7V11.1c0-5.9,4.8-10.7,10.7-10.7s10.7,4.8,10.7,10.7  v55.6c0,0,0,0,0.1,0.1l7,6.8c5.1,5,8.6,11.3,10,18.3c0.5,2.4,0.8,4.9,0.8,7.4V161C57.2,161.2,57,161.3,56.8,161.3z"/>
<path d="M42.6,25.5H14.8c-0.3,0-0.5-0.2-0.5-0.5s0.2-0.5,0.5-0.5h27.8c0.3,0,0.5,0.2,0.5,0.5S42.9,25.5,42.6,25.5z"/>
<path d="M22.3,100.7C22.3,100.7,22.3,100.7,22.3,100.7c-9.4,0-16-2.9-20.9-9.1c-0.1-0.1-0.1-0.3,0-0.4c0.1-0.1,0.3-0.1,0.4,0  c4.8,6.1,11.3,8.9,20.5,8.9c0,0,0,0,0,0c6.3,0,10.9-2.4,15.4-4.6c2.6-1.3,5-2.6,7.7-3.4c3.4-1.1,7.1-1.2,10.7-0.5  c0.1,0,0.2,0.2,0.2,0.3c0,0.1-0.2,0.2-0.3,0.2c-3.5-0.7-7.1-0.6-10.4,0.5c-2.7,0.8-5.1,2-7.7,3.4C33.4,98.3,28.7,100.7,22.3,100.7z"/>
<path d="M20.7,145.3c-7,0-14.9-0.7-20.1-3.4c-0.1-0.1-0.2-0.2-0.1-0.3c0.1-0.1,0.2-0.2,0.3-0.1c10.4,5.4,31.8,2.8,34.2,2.5v-26.6  c-12.3,3.2-27.7-0.4-33.5-1.8l-0.8-0.2c-0.1,0-0.2-0.2-0.2-0.3c0-0.1,0.2-0.2,0.3-0.2l0.8,0.2c5.8,1.4,21.4,5.1,33.6,1.8  c0.1,0,0.2,0,0.2,0c0.1,0,0.1,0.1,0.1,0.2v27.2c0,0.1-0.1,0.2-0.2,0.2C35.2,144.4,28.6,145.3,20.7,145.3z"/>

        </g>
    </g>
</g>

<!-- ITEM 2 -->
<g>
    <defs>
        
        <clipPath id="clip-path-id-viewbox-item-2">
            <rect x="0.0" y="0.0" width="138.115" height="80.409"/>
        </clipPath>
    </defs>
    <g transform="translate(53.0 624.0) rotate(354.19725362659295 143.0 83.0) scale(2.0707381529884517 2.0644455222674076)">
        <g clip-path="url(#clip-path-id-viewbox-item-2)" transform="translate(-0.0 -0.0)">

<g>
	<path d="M101.935,7.225c-0.144,0-0.282-0.084-0.343-0.225c-1.529-3.49-3.814-6.954-9.12-6.13c-0.207,0.039-0.396-0.109-0.428-0.314   c-0.032-0.204,0.109-0.396,0.313-0.428c5.847-0.896,8.373,3.039,9.92,6.571c0.083,0.189-0.003,0.411-0.193,0.494   C102.036,7.215,101.985,7.225,101.935,7.225z"/>
	<g>
		<path style="fill:#FFE4E9;" d="M137.115,58.429c-13.07-1.71-27.1,0.22-40.01,2.89c-3.01,0.62-6.01,1.28-9.02,1.93v-0.01    c5.13-1.64,9.44-5.09,11.94-9.85c2.5-4.77,3.04-10.53,1.48-15.68l0.03-0.11C114.785,41.159,127.995,48.569,137.115,58.429z"/>
		<path style="fill:#1A4D81;" d="M106.025,22.509c15.26,5.91,28.08,19.83,31.09,35.92c-7.76-15.79-24.31-26.36-41.73-28.83    c-17.41-2.47-35.4,2.58-50.28,11.96c-7.07,4.46-13.54,9.87-20.89,13.84c-4.38,2.37-9.22,4.2-14.13,4.85    c17.17-7.68,29.61-23.57,45.95-33.02c0.81-0.48,1.64-0.93,2.48-1.37c2.71-1.42,5.54-2.63,8.44-3.62    C79.565,17.909,93.615,17.709,106.025,22.509z"/>
		<path style="fill:#010100;" d="M55.545,40.479c-1.27,0.51-2.52,1.07-3.76,1.66c-8.75,4.18-16.58,10.11-25.32,14.31    c-2.08,1-4.14,1.9-6.21,2.65c-6.62,2.42-13.21,3.28-20.13,0.68c3.27,0.83,6.63,0.93,9.96,0.47c4.91-0.65,9.75-2.48,14.13-4.85    c7.35-3.97,13.82-9.38,20.89-13.84c14.88-9.38,32.87-14.43,50.28-11.96c17.42,2.47,33.97,13.04,41.73,28.83    c-9.12-9.86-22.33-17.27-35.58-20.83c-1.27-0.35-2.53-0.65-3.8-0.93c-0.49-0.1-0.97-0.2-1.46-0.29c-3.52-0.67-7.09-1.08-10.67-1.2    c-2.77-0.11-5.55-0.06-8.32,0.16c-5.5,0.43-10.95,1.48-16.21,3.14C59.205,39.069,57.355,39.729,55.545,40.479z"/>
		<path style="fill:#008211;" d="M60.635,43.019c0.07,2.43,0.62,4.79,1.57,6.95c1.3,2.96,3.35,5.56,5.9,7.48    c0.43,0.32,0.87,0.63,1.33,0.91c2.31,1.43,4.93,2.29,7.62,2.6c0.71,0.09,1.43,0.13,2.14,0.14c4.06,0.04,8.14-1.14,11.43-3.52    c0.23-0.17,0.46-0.35,0.69-0.54c2.41-1.94,4.34-4.62,5.58-7.62c1.01-2.44,1.57-5.1,1.57-7.75c0-1.69-0.24-3.37-0.73-4.99v-0.01    c1.27,0.28,2.53,0.58,3.8,0.93l-0.03,0.11c1.56,5.15,1.02,10.91-1.48,15.68c-2.5,4.76-6.81,8.21-11.94,9.85v0.01    c-2.88,0.61-5.76,1.22-8.64,1.79c-0.02,0-0.03,0.01-0.05,0.01c-8.12,1.2-13.77-2.32-18-7.03c-4.24-4.72-6.41-11.23-5.85-17.54    c1.81-0.75,3.66-1.41,5.53-2C60.735,39.999,60.595,41.529,60.635,43.019z"/>
		<path style="fill:#FF564F;" d="M98.465,41.669c0,2.65-0.56,5.31-1.57,7.75l-0.06-0.02c-3.74-0.82-7.26-1.88-11-2.7h-0.01    c0.35-2.22,0.47-4.53,0.34-6.89h0.06c4.22,0.66,7.93,1.06,12.02,1.86H98.465z"/>
		<path style="fill:#FF564F;" d="M98.465,41.669h-0.22c-4.09-0.8-7.8-1.2-12.02-1.86h-0.06c-0.07-1.53-0.26-3.07-0.56-4.63    c3.58,0.12,7.15,0.53,10.67,1.2c0.49,0.09,0.97,0.19,1.46,0.29v0.01C98.225,38.299,98.465,39.979,98.465,41.669z"/>
		<path style="fill:#F46A3D;" d="M96.835,49.399l0.06,0.02c-1.24,3-3.17,5.68-5.58,7.62l-0.1-0.12c-2.28-1.1-4.95-2.39-7.24-3.49    c0.87-2.1,1.49-4.36,1.85-6.73h0.01C89.575,47.519,93.095,48.579,96.835,49.399z"/>
		<path style="fill:#010100;" d="M92.415,0.499c5.4-0.83,7.89,2.63,9.52,6.35c-12.56,0.22-37.21,9.99-37.81,7.53    c-0.59-1.6,2.71-3.42,4.6-4.54C76.055,5.489,84.095,2.329,92.415,0.499z"/>
		<path style="fill:#F46A3D;" d="M91.215,56.919l0.1,0.12c-0.23,0.19-0.46,0.37-0.69,0.54c-3.29,2.38-7.37,3.56-11.43,3.52    c1.99-2.17,3.61-4.77,4.78-7.67C86.265,54.529,88.935,55.819,91.215,56.919z"/>
		<path style="fill:#010100;" d="M86.165,39.809c0.13,2.36,0.01,4.67-0.34,6.89c-0.36,2.37-0.98,4.63-1.85,6.73    c-1.17,2.9-2.79,5.5-4.78,7.67c-0.71-0.01-1.43-0.05-2.14-0.14l0.02-0.19c-1.22-2.49-2.04-5.17-2.46-7.91    c-0.33-2.12-0.42-4.27-0.27-6.41c0.13-2,0.47-3.99,1.02-5.92c0.49-1.7,1.13-3.35,1.94-4.93l-0.02-0.26    c2.77-0.22,5.55-0.27,8.32-0.16C85.905,36.739,86.095,38.279,86.165,39.809z"/>
		<path style="fill:#FFE4E9;" d="M75.545,65.769c-5.76,1.04-11.55,1.86-17.39,2.16c-13.17,0.67-26.91-1.46-37.88-8.77l-0.02-0.06    c2.07-0.75,4.13-1.65,6.21-2.65c8.74-4.2,16.57-10.13,25.32-14.31c1.24-0.59,2.49-1.15,3.76-1.66    c-0.56,6.31,1.61,12.82,5.85,17.54c4.23,4.71,9.88,8.23,18,7.03C78.115,65.299,76.825,65.539,75.545,65.769z"/>
		<path style="fill:#FF564F;" d="M77.285,35.339l0.02,0.26c-0.81,1.58-1.45,3.23-1.94,4.93l-0.29-0.08    c-2.25,0.01-11.72,1.97-14.44,2.57c-0.04-1.49,0.1-3.02,0.44-4.54C66.335,36.819,71.785,35.769,77.285,35.339z"/>
		<path style="fill:#F46A3D;" d="M77.075,60.769l-0.02,0.19c-2.69-0.31-5.31-1.17-7.62-2.6c-0.46-0.28-0.9-0.59-1.33-0.91l0.12-0.17    c2.05-1.46,4.1-2.92,6.14-4.38l0.25-0.04C75.035,55.599,75.855,58.279,77.075,60.769z"/>
		<path style="fill:#FF564F;" d="M75.075,40.449l0.29,0.08c-0.55,1.93-0.89,3.92-1.02,5.92c-3.42,0.86-10.17,2.95-12.14,3.52    c-0.95-2.16-1.5-4.52-1.57-6.95C63.355,42.419,72.825,40.459,75.075,40.449z"/>
		<path style="fill:#F46A3D;" d="M74.615,52.859l-0.25,0.04c-2.04,1.46-4.09,2.92-6.14,4.38l-0.12,0.17    c-2.55-1.92-4.6-4.52-5.9-7.48c1.97-0.57,8.72-2.66,12.14-3.52C74.195,48.589,74.285,50.739,74.615,52.859z"/>
		<path d="M65.195,15.15c-0.478,0-0.83-0.065-1.063-0.203c-0.245-0.143-0.337-0.339-0.371-0.479    c-0.049-0.201,0.074-0.404,0.275-0.453c0.196-0.051,0.4,0.071,0.452,0.27c0.586,0.689,7.019-1.101,12.696-2.677    c8.053-2.235,18.075-5.017,24.745-5.134c0.217-0.014,0.378,0.162,0.381,0.368c0.003,0.207-0.161,0.378-0.369,0.382    c-6.574,0.115-16.545,2.883-24.557,5.106C71.056,14.087,67.116,15.15,65.195,15.15z"/>
		<path d="M64.125,14.755c-0.152,0-0.296-0.094-0.352-0.245c-0.664-1.802,2.273-3.529,4.418-4.791l0.343-0.201    c7.37-4.375,15.377-7.532,23.8-9.385c0.202-0.048,0.402,0.083,0.447,0.286c0.044,0.202-0.083,0.401-0.286,0.446    c-8.345,1.836-16.278,4.964-23.579,9.297l-0.345,0.203c-1.587,0.934-4.542,2.672-4.095,3.885c0.071,0.194-0.028,0.41-0.222,0.481    C64.212,14.747,64.168,14.755,64.125,14.755z"/>
		<path d="M79.444,66.039c-0.468,0-0.886-0.33-0.98-0.806c-0.107-0.542,0.245-1.068,0.787-1.176    c2.875-0.568,5.751-1.178,8.626-1.787l2.118-0.458c2.303-0.499,4.603-0.998,6.908-1.473c10.399-2.149,25.895-4.793,40.342-2.901    c0.547,0.071,0.933,0.573,0.862,1.121c-0.072,0.547-0.577,0.93-1.122,0.861c-14.145-1.849-29.419,0.756-39.678,2.878    c-2.299,0.474-4.592,0.971-6.888,1.468l-2.124,0.46c-2.888,0.612-5.772,1.224-8.657,1.794    C79.574,66.033,79.508,66.039,79.444,66.039z"/>
		<path d="M53.661,69.045c-13.343,0-25.005-3.099-33.941-9.054c-0.459-0.307-0.583-0.927-0.277-1.387    c0.305-0.46,0.927-0.583,1.387-0.277c9.577,6.382,22.466,9.359,37.274,8.604c5.129-0.263,10.614-0.944,17.263-2.146    c1.275-0.229,2.561-0.468,3.835-0.717c0.545-0.112,1.067,0.248,1.173,0.79c0.106,0.542-0.248,1.067-0.79,1.173    c-1.285,0.251-2.58,0.491-3.864,0.723c-6.734,1.216-12.3,1.906-17.516,2.175C56.671,69.007,55.156,69.045,53.661,69.045z"/>
		<path d="M34.736,79.529c-0.082,0-0.164-0.01-0.247-0.031c-0.535-0.136-0.859-0.68-0.723-1.215l3.02-11.921    c0.136-0.534,0.682-0.856,1.216-0.722c0.535,0.136,0.859,0.68,0.723,1.216l-3.02,11.919    C35.589,79.228,35.182,79.529,34.736,79.529z"/>
		<path d="M59.925,80.409c-0.546,0-0.992-0.438-1-0.986l-0.15-10.88c-0.007-0.552,0.434-1.006,0.986-1.014c0.004,0,0.009,0,0.014,0    c0.546,0,0.992,0.438,1,0.986l0.15,10.88c0.007,0.552-0.434,1.006-0.986,1.014C59.934,80.409,59.929,80.409,59.925,80.409z"/>
		<path d="M82.954,76.899c-0.472,0-0.892-0.335-0.982-0.815l-0.288-1.529c-0.574-3.052-1.149-6.108-1.732-9.158    c-0.104-0.542,0.252-1.066,0.795-1.17c0.547-0.099,1.066,0.252,1.17,0.795c0.583,3.052,1.158,6.11,1.732,9.163l0.288,1.53    c0.102,0.542-0.255,1.065-0.798,1.167C83.077,76.893,83.015,76.899,82.954,76.899z"/>
		<path d="M107.855,73.22c-0.412,0-0.797-0.256-0.942-0.665c-1.395-3.928-2.779-7.864-4.164-11.801l-0.047-0.133    c-0.183-0.521,0.09-1.092,0.611-1.275c0.522-0.186,1.092,0.09,1.275,0.611l0.047,0.133c1.384,3.936,2.769,7.87,4.162,11.795    c0.185,0.521-0.087,1.093-0.608,1.277C108.079,73.201,107.966,73.22,107.855,73.22z"/>
		<path d="M8.777,61.486c-3.01,0-5.879-0.531-8.696-1.59c-0.064-0.024-0.097-0.097-0.073-0.161c0.024-0.063,0.095-0.098,0.161-0.073    c6.118,2.3,12.486,2.084,20.043-0.68c1.9-0.688,3.928-1.555,6.199-2.646c4.339-2.086,8.525-4.642,12.573-7.112    c4.101-2.504,8.341-5.093,12.748-7.197c1.37-0.652,2.603-1.196,3.768-1.664c1.716-0.711,3.58-1.385,5.539-2.003    c5.243-1.654,10.706-2.713,16.238-3.146c2.734-0.217,5.537-0.271,8.334-0.16c3.528,0.118,7.124,0.523,10.689,1.202    c0.416,0.076,0.825,0.16,1.24,0.244l0.221,0.046c1.461,0.322,2.671,0.618,3.808,0.933c13.817,3.712,26.807,11.316,35.639,20.865    c0.047,0.051,0.044,0.13-0.007,0.177c-0.05,0.049-0.129,0.044-0.177-0.007c-8.8-9.515-21.748-17.094-35.521-20.794    c-1.134-0.313-2.339-0.608-3.794-0.93l-0.219-0.045c-0.414-0.084-0.821-0.167-1.236-0.243c-3.553-0.678-7.137-1.08-10.652-1.198    c-2.786-0.11-5.581-0.058-8.306,0.16c-5.513,0.431-10.958,1.484-16.182,3.134c-1.952,0.615-3.809,1.287-5.52,1.996    c-1.161,0.467-2.389,1.009-3.754,1.658c-4.395,2.099-8.629,4.685-12.725,7.185c-4.053,2.475-8.245,5.034-12.595,7.124    c-2.278,1.096-4.313,1.964-6.222,2.655C16.156,60.731,12.366,61.486,8.777,61.486z"/>
		<path d="M6.207,60.646c-2.111,0-4.156-0.249-6.113-0.746c-0.067-0.017-0.107-0.085-0.09-0.151c0.017-0.066,0.086-0.11,0.152-0.091    c3.108,0.788,6.444,0.946,9.912,0.467c4.524-0.598,9.263-2.225,14.088-4.836c4.404-2.378,8.565-5.327,12.589-8.179    c2.686-1.903,5.463-3.871,8.293-5.656c15.969-10.066,33.856-14.32,50.365-11.979c18.314,2.597,34.34,13.67,41.825,28.899    c0.03,0.062,0.005,0.137-0.057,0.167c-0.061,0.03-0.136,0.006-0.167-0.058c-7.448-15.155-23.402-26.176-41.635-28.761    c-16.45-2.336-34.277,1.907-50.196,11.941c-2.824,1.782-5.599,3.748-8.282,5.649c-4.03,2.856-8.197,5.809-12.615,8.195    c-4.852,2.625-9.62,4.261-14.173,4.863C8.783,60.555,7.483,60.646,6.207,60.646z"/>
		<path d="M7.935,61.909c-0.298,0-0.58-0.179-0.697-0.473c-0.153-0.386,0.035-0.821,0.42-0.975c0.719-0.285,1.419-0.581,2.118-0.896    c9.459-4.23,17.653-11.133,25.577-17.809c6.391-5.384,13-10.951,20.306-15.177c0.705-0.418,1.48-0.847,2.507-1.385    c2.718-1.424,5.593-2.657,8.546-3.666c13.274-4.559,27.332-4.459,39.583,0.281c16.197,6.271,28.584,20.592,31.557,36.481    c0.076,0.407-0.192,0.799-0.6,0.875c-0.403,0.075-0.799-0.193-0.875-0.6c-2.835-15.153-15.142-29.363-30.624-35.358    c-11.921-4.612-25.614-4.704-38.556-0.261c-2.881,0.984-5.686,2.187-8.335,3.575c-1.002,0.526-1.757,0.942-2.445,1.352    c-7.199,4.163-13.757,9.688-20.098,15.029c-8.003,6.742-16.28,13.714-25.929,18.029c-0.718,0.324-1.438,0.628-2.179,0.923    C8.121,61.893,8.027,61.909,7.935,61.909z"/>
		<path d="M79.395,61.476c-0.068,0-0.135,0-0.204-0.001c-0.8-0.011-1.514-0.058-2.184-0.144c-2.798-0.322-5.487-1.239-7.77-2.652    c-0.413-0.252-0.844-0.547-1.357-0.929c-2.608-1.964-4.689-4.602-6.019-7.63c-0.992-2.257-1.531-4.642-1.602-7.09    c-0.042-1.556,0.109-3.114,0.449-4.633c0.045-0.203,0.244-0.325,0.448-0.284c0.202,0.046,0.329,0.246,0.284,0.448    c-0.326,1.458-0.471,2.955-0.431,4.448c0.067,2.35,0.585,4.641,1.538,6.809c1.278,2.911,3.278,5.445,5.782,7.331    c0.492,0.366,0.905,0.649,1.3,0.89c2.192,1.357,4.774,2.237,7.468,2.548c0.646,0.082,1.332,0.127,2.103,0.138    c4.1,0.062,8.074-1.185,11.205-3.449c0.222-0.164,0.446-0.34,0.671-0.525c2.337-1.881,4.228-4.465,5.472-7.475    c1.009-2.436,1.542-5.065,1.542-7.606c0-1.672-0.24-3.313-0.714-4.881c-0.06-0.198,0.052-0.407,0.25-0.468    c0.199-0.059,0.408,0.054,0.467,0.251c0.495,1.638,0.746,3.353,0.746,5.098c0,2.639-0.553,5.368-1.599,7.894    c-1.292,3.125-3.26,5.812-5.691,7.769c-0.232,0.192-0.468,0.376-0.703,0.55C87.637,60.203,83.578,61.476,79.395,61.476z"/>
		<path d="M77.075,60.894c-0.046,0-0.09-0.025-0.112-0.07c-1.21-2.47-2.042-5.144-2.471-7.946c-0.331-2.122-0.422-4.288-0.271-6.438    c0.131-2.02,0.476-4.02,1.024-5.945c0.502-1.743,1.158-3.409,1.949-4.952c0.032-0.063,0.106-0.086,0.168-0.055    c0.062,0.031,0.085,0.106,0.054,0.168c-0.784,1.529-1.434,3.181-1.931,4.907c-0.544,1.909-0.885,3.892-1.016,5.894    c-0.149,2.132-0.059,4.279,0.269,6.383c0.426,2.778,1.25,5.428,2.449,7.875c0.03,0.062,0.005,0.137-0.057,0.167    C77.112,60.891,77.094,60.894,77.075,60.894z"/>
		<path d="M79.195,61.225c-0.03,0-0.061-0.011-0.084-0.033c-0.051-0.046-0.054-0.125-0.008-0.177    c1.987-2.166,3.587-4.733,4.756-7.632c0.864-2.086,1.484-4.341,1.842-6.702c0.353-2.237,0.467-4.546,0.338-6.864    c-0.068-1.492-0.255-3.044-0.558-4.613c-0.013-0.067,0.031-0.133,0.099-0.146c0.068-0.011,0.133,0.032,0.146,0.1    c0.305,1.581,0.494,3.145,0.563,4.647c0.129,2.335,0.014,4.661-0.341,6.915c-0.361,2.381-0.987,4.655-1.858,6.759    c-1.18,2.925-2.796,5.518-4.803,7.707C79.262,61.211,79.229,61.225,79.195,61.225z"/>
		<path d="M76.251,65.532c-5.679,0-10.622-2.424-15.042-7.346c-4.266-4.749-6.477-11.377-5.913-17.729    c0.012-0.134,0.124-0.222,0.26-0.237c0.133,0.006,0.239,0.105,0.239,0.239v0.021c-0.553,6.239,1.61,12.726,5.786,17.373    c5.109,5.688,10.924,7.963,17.777,6.95c0.159-0.058,0.337,0.071,0.337,0.236c0,0.138-0.112,0.25-0.25,0.25    C78.355,65.451,77.291,65.532,76.251,65.532z"/>
		<path d="M88.085,63.489c-0.106,0-0.204-0.067-0.238-0.174c-0.042-0.132,0.031-0.272,0.162-0.314    c5.181-1.655,9.37-5.11,11.795-9.728c2.479-4.729,3.011-10.376,1.462-15.492c-0.04-0.132,0.035-0.271,0.167-0.312    c0.132-0.036,0.271,0.034,0.312,0.167c1.587,5.24,1.042,11.023-1.498,15.869c-2.486,4.734-6.778,8.275-12.085,9.972    C88.136,63.485,88.11,63.489,88.085,63.489z"/>
		<path d="M60.625,43.144c-0.069,0-0.125-0.056-0.125-0.125s0.056-0.125,0.125-0.125h0.01c3.069-0.681,12.25-2.561,14.439-2.57h0    c0.069,0,0.125,0.056,0.125,0.124c0,0.069-0.055,0.126-0.125,0.126c-2.169,0.01-11.324,1.885-14.414,2.567    C60.653,43.143,60.634,43.144,60.625,43.144z"/>
		<path d="M62.205,50.095c-0.054,0-0.104-0.035-0.12-0.09c-0.019-0.066,0.019-0.136,0.085-0.155c0.523-0.151,1.384-0.41,2.43-0.725    c2.867-0.862,7.201-2.165,9.715-2.797c0.069-0.023,0.135,0.024,0.151,0.091c0.017,0.066-0.023,0.135-0.091,0.151    c-2.508,0.631-6.838,1.933-9.704,2.794c-1.047,0.315-1.908,0.574-2.432,0.726C62.228,50.093,62.216,50.095,62.205,50.095z"/>
		<path d="M68.225,57.404c-0.039,0-0.078-0.019-0.102-0.053c-0.04-0.056-0.027-0.134,0.03-0.174c2.05-1.46,4.1-2.92,6.14-4.38    c0.055-0.041,0.134-0.028,0.174,0.029c0.04,0.056,0.027,0.134-0.029,0.174c-2.04,1.46-4.09,2.92-6.141,4.38    C68.275,57.396,68.25,57.404,68.225,57.404z"/>
		<path d="M91.215,57.044c-0.018,0-0.037-0.004-0.054-0.013l-1.798-0.867c-1.813-0.874-3.733-1.801-5.442-2.622    c-0.062-0.029-0.088-0.104-0.059-0.166s0.104-0.088,0.167-0.059c1.709,0.82,3.63,1.747,5.442,2.622l1.798,0.867    c0.063,0.029,0.088,0.104,0.059,0.167C91.306,57.018,91.262,57.044,91.215,57.044z"/>
		<path d="M96.835,49.524c-0.009,0-0.018-0.001-0.027-0.003c-1.872-0.41-3.718-0.889-5.503-1.351    c-1.784-0.462-3.629-0.939-5.497-1.35c-0.067-0.015-0.11-0.081-0.095-0.148s0.08-0.11,0.149-0.096    c1.873,0.411,3.72,0.889,5.506,1.352c1.783,0.462,3.627,0.939,5.494,1.349c0.067,0.015,0.11,0.081,0.095,0.148    C96.944,49.484,96.892,49.524,96.835,49.524z"/>
		<path d="M98.245,41.794c-0.008,0-0.016-0.001-0.024-0.002c-2.645-0.518-5.101-0.863-7.701-1.229    c-1.389-0.195-2.826-0.397-4.315-0.631c-0.068-0.01-0.115-0.074-0.104-0.143c0.011-0.067,0.071-0.127,0.143-0.104    c1.487,0.232,2.922,0.434,4.311,0.629c2.604,0.366,5.063,0.713,7.713,1.23c0.068,0.014,0.112,0.079,0.099,0.147    C98.356,41.753,98.304,41.794,98.245,41.794z"/>
	</g>
</g>

        </g>
    </g>
</g>

<!-- ITEM 3 -->
<g>
    <defs>
        
        <clipPath id="clip-path-id-viewbox-item-3">
            <rect x="0.0" y="0.0" width="56.745" height="29.981"/>
        </clipPath>
    </defs>
    <g transform="translate(942.0 644.0) rotate(12.28366706417836 117.0 61.5) scale(4.123711340206186 4.102598312264434)">
        <g clip-path="url(#clip-path-id-viewbox-item-3)" transform="translate(-0.0 -0.0)">

<g>
	<path style="fill:#010101;" d="M55.718,0.125c2.349,6.061-0.05,13.775-5.358,17.156c-5.308,3.37-12.654,2.458-16.602-2.596   c-1.409-2.066-2.259-4.631-2.069-7.184c0.19-2.543,1.499-5.044,3.598-6.305s4.958-1.102,6.757,0.593   c1.899,1.801,2.519,4.98,4.788,6.188c1.829,0.964,4.148,0.212,5.597-1.314C53.869,5.137,55.258,2.234,55.718,0.125z"/>
	<path style="fill:#010101;" d="M24.872,8.973c0.98,3.889,0.46,9.674-2.689,14.697c-3.139,5.033-9.726,7.788-14.853,5.192   c-2.939-1.494-5.058-4.482-6.087-7.757c-1.04-3.285-1.349-7.047-0.95-10.469c0.68,2.48,1.479,5.044,3.209,6.877   c1.719,1.823,4.648,2.639,6.637,1.134c1.909-1.441,2.209-4.249,2.789-6.665c0.48-2.024,1.299-4.005,2.719-5.457   c1.409-1.452,3.458-2.056,5.398-1.717C24.502,5.391,24.872,8.973,24.872,8.973z"/>
	<path d="M33.759,14.809c-0.04,0-0.079-0.019-0.104-0.055c-1.53-2.242-2.272-4.822-2.091-7.264c0.202-2.715,1.604-5.169,3.659-6.403   c2.215-1.332,5.119-1.076,6.907,0.61c0.824,0.782,1.413,1.822,1.982,2.828c0.776,1.371,1.509,2.665,2.777,3.34   c1.659,0.873,3.898,0.343,5.448-1.29c1.346-1.426,2.776-4.272,3.258-6.479c0.016-0.067,0.086-0.11,0.148-0.095   c0.067,0.015,0.11,0.081,0.096,0.149c-0.489,2.245-1.948,5.143-3.32,6.597c-1.628,1.713-3.99,2.264-5.747,1.338   c-1.333-0.709-2.118-2.097-2.878-3.438c-0.561-0.99-1.14-2.014-1.937-2.77c-1.707-1.609-4.486-1.851-6.606-0.578   c-1.986,1.193-3.342,3.572-3.538,6.208c-0.179,2.385,0.549,4.909,2.048,7.104c0.039,0.057,0.024,0.135-0.033,0.173   C33.807,14.803,33.783,14.809,33.759,14.809z"/>
	<path d="M43.449,19.409c-3.751,0-7.418-1.612-9.789-4.648c-0.042-0.055-0.033-0.133,0.021-0.176   c0.056-0.042,0.133-0.033,0.176,0.021c3.807,4.875,11.027,6.001,16.436,2.568c5.263-3.351,7.644-10.98,5.31-17.005   c-0.025-0.064,0.007-0.137,0.071-0.162c0.065-0.022,0.138,0.007,0.161,0.072c2.376,6.13-0.05,13.894-5.407,17.306   C48.277,18.751,45.846,19.409,43.449,19.409z"/>
	<path d="M11.575,29.97c-1.498,0-2.966-0.32-4.302-0.996c-2.79-1.418-5.031-4.272-6.149-7.831   c-1.028-3.251-1.367-6.988-0.954-10.521c0.007-0.068,0.068-0.114,0.139-0.109c0.068,0.008,0.117,0.07,0.109,0.139   c-0.409,3.499-0.074,7.198,0.944,10.417c1.099,3.495,3.294,6.295,6.024,7.683c4.814,2.437,11.402,0.126,14.69-5.147   c3.344-5.335,3.53-11.2,2.674-14.601c-0.017-0.067,0.023-0.135,0.091-0.152c0.065-0.019,0.135,0.024,0.151,0.09   c0.869,3.449,0.682,9.393-2.704,14.794C19.844,27.658,15.602,29.97,11.575,29.97z"/>
	<path d="M7.726,19.556c-1.584,0-3.22-0.796-4.315-1.957c-1.741-1.846-2.554-4.436-3.237-6.93c-0.019-0.067,0.021-0.136,0.087-0.154   c0.064-0.019,0.136,0.021,0.153,0.087c0.676,2.464,1.478,5.02,3.179,6.824c1.63,1.726,4.493,2.615,6.472,1.12   c1.565-1.182,2.028-3.331,2.477-5.408c0.086-0.401,0.172-0.799,0.266-1.187c0.56-2.365,1.485-4.221,2.75-5.515   c1.412-1.453,3.469-2.109,5.509-1.752c3.512,0.592,3.927,4.238,3.931,4.275c0.008,0.068-0.043,0.13-0.111,0.137   c-0.07,0-0.13-0.043-0.137-0.112c-0.004-0.035-0.402-3.494-3.725-4.054c-1.953-0.34-3.934,0.286-5.287,1.681   c-1.233,1.262-2.137,3.078-2.687,5.399c-0.093,0.386-0.179,0.783-0.265,1.182c-0.457,2.122-0.931,4.316-2.57,5.554   C9.47,19.311,8.605,19.556,7.726,19.556z"/>
</g>

        </g>
    </g>
</g>

<!-- ITEM 4 -->
<g>
    <defs>
        
        <clipPath id="clip-path-id-viewbox-item-4">
            <rect x="0.0" y="0.0" width="104.332" height="81.108"/>
        </clipPath>
    </defs>
    <g transform="translate(1382.0 380.0) rotate(0.0 -123.5 96.5) scale(-2.3674423954299737 2.37954332494945)">
        <g clip-path="url(#clip-path-id-viewbox-item-4)" transform="translate(-0.0 -0.0)">

<g>
	<path style="fill:#FFE4E9;" d="M102.842,39.115c0.16,0.26,0.33,0.52,0.49,0.79c-5.52,8.57-12.04,17.01-19.55,23.92   c-3.14,2.89-6.53,5.53-10.15,7.81c-5.02,3.17-10.46,5.63-16.22,7.04c-2.07,0.51-4.17,0.88-6.29,1.11l-0.09-0.9   c5.35-0.55,10.62-2.98,14.57-6.69c6.59-6.16,9.88-15.24,10.58-24.24c0.6-7.68-1.04-16.35-7.29-20.86l0.03-0.26   c12.18,1.18,24.06,5.51,34.02,12.63C102.912,39.345,102.872,39.235,102.842,39.115z M94.282,40.405c0.52-2.64-1.43-5.25-4.35-5.83   c-2.92-0.58-5.71,1.09-6.23,3.74c-0.52,2.64,1.42,5.25,4.34,5.83C90.962,44.725,93.752,43.045,94.282,40.405z"/>
	<path style="fill:#010100;" d="M37.262,31.155c-14.75,5.77-27.53,16.6-35.41,30.35l-0.06,0.07c-0.13-0.12-0.26-0.24-0.39-0.36   l-0.02-0.13c-0.02-0.13-0.04-0.26-0.06-0.39l0.2-0.03c5.46-13.18,14.44-25.04,26.25-33.05c11.82-8.01,26.51-11.98,40.65-10.01   c13.82,1.93,26.91,9.76,34.42,21.51c0.03,0.12,0.07,0.23,0.1,0.35c-9.96-7.12-21.84-11.45-34.02-12.63   c-7.15-0.7-14.4-0.32-21.42,1.21C44.012,28.805,40.582,29.855,37.262,31.155z"/>
	<path style="fill:#FFFFFF;" d="M89.932,34.575c2.92,0.58,4.87,3.19,4.35,5.83c-0.53,2.64-3.32,4.32-6.24,3.74   c-2.92-0.58-4.86-3.19-4.34-5.83C84.222,35.665,87.012,33.995,89.932,34.575z"/>
	<path style="fill:#5499AF;" d="M67.522,2.785c16.69,4.92,30.46,19.62,35.32,36.33c-7.51-11.75-20.6-19.58-34.42-21.51   c-14.14-1.97-28.83,2-40.65,10.01c-11.81,8.01-20.79,19.87-26.25,33.05l-0.2,0.03c-2.64-17.19,4-35.52,17.04-47.02   c7.47-6.58,16.9-10.8,26.74-12.3C52.572,0.225,60.272,0.645,67.522,2.785z"/>
	<path style="fill:#FF564F;" d="M68.892,27.095c6.25,4.51,7.89,13.18,7.29,20.86c-0.7,9-3.99,18.08-10.58,24.24   c-3.95,3.71-9.22,6.14-14.57,6.69c-3.56,0.37-7.16-0.09-10.44-1.57c-8.14-3.67-12.9-12.88-12.92-21.81   c-0.02-8.89,4.04-17.4,9.59-24.35c3.32-1.3,6.75-2.35,10.24-3.11c7.02-1.53,14.27-1.91,21.42-1.21L68.892,27.095z M63.372,51.955   c0.39-1.99,0.47-3.95,0.25-5.78c-0.61-5.4-3.68-9.72-8.06-10.58c-5.88-1.17-11.9,4.28-13.46,12.15c-0.48,2.44-0.48,4.83-0.07,7   c0.91,4.83,3.83,8.57,7.88,9.37C55.782,65.275,61.812,59.835,63.372,51.955z"/>
	<path style="fill:#008211;" d="M63.622,46.175c0.22,1.83,0.14,3.79-0.25,5.78c-1.56,7.88-7.59,13.32-13.46,12.16   c-4.05-0.8-6.97-4.54-7.88-9.37c2.22-4.89,5.28-8.23,9.39-10.1C55.522,42.775,60.512,42.905,63.622,46.175z"/>
	<path style="fill:#010100;" d="M63.622,46.175c-3.11-3.27-8.1-3.4-12.2-1.53c-4.11,1.87-7.17,5.21-9.39,10.1   c-0.41-2.17-0.41-4.56,0.07-7c1.56-7.87,7.58-13.32,13.46-12.15C59.942,36.455,63.012,40.775,63.622,46.175z"/>
	<path style="fill:#FFE4E9;" d="M51.032,78.885l0.09,0.9c-8,0.9-16.21-0.11-23.86-2.67c-9.51-3.17-18.15-8.68-25.47-15.54l0.06-0.07   c7.88-13.75,20.66-24.58,35.41-30.35c-5.55,6.95-9.61,15.46-9.59,24.35c0.02,8.93,4.78,18.14,12.92,21.81   C43.872,78.795,47.472,79.255,51.032,78.885z"/>
	<path d="M1.381,61.834c-0.364,0-0.683-0.265-0.74-0.636l-0.06-0.39c-2.667-17.363,4.119-36.085,17.285-47.697   c7.388-6.507,17.02-10.939,27.124-12.479c7.691-1.184,15.558-0.69,22.745,1.432c16.686,4.919,30.75,19.379,35.828,36.84   l0.046,0.163c0.022,0.071,0.043,0.142,0.062,0.217c0.1,0.402-0.146,0.809-0.547,0.908s-0.809-0.146-0.909-0.548l-0.04-0.14   c-0.021-0.068-0.042-0.136-0.059-0.207C97.259,22.604,83.269,8.208,67.31,3.504c-6.977-2.06-14.618-2.54-22.094-1.388   c-9.824,1.498-19.185,5.802-26.359,12.122C6.065,25.519-0.527,43.71,2.063,60.581l0.06,0.389c0.063,0.409-0.218,0.792-0.627,0.855   C1.457,61.832,1.419,61.834,1.381,61.834z"/>
	<path d="M1.852,61.63c-0.021,0-0.042-0.005-0.062-0.017c-0.06-0.034-0.081-0.111-0.046-0.171   c7.873-13.738,20.471-24.536,35.473-30.404c3.366-1.318,6.818-2.366,10.259-3.115c6.961-1.517,14.182-1.924,21.458-1.213   c12.397,1.201,24.182,5.577,34.081,12.653c0.056,0.04,0.069,0.118,0.029,0.175c-0.041,0.056-0.119,0.068-0.174,0.029   c-9.863-7.051-21.606-11.411-33.959-12.607c-7.251-0.711-14.446-0.304-21.381,1.208c-3.429,0.747-6.868,1.791-10.222,3.104   C22.358,37.119,9.805,47.878,1.96,61.567C1.937,61.607,1.895,61.63,1.852,61.63z"/>
	<path d="M1.522,60.79c-0.016,0-0.032-0.003-0.048-0.01c-0.064-0.026-0.094-0.1-0.068-0.163   C7.08,46.921,16.419,35.164,27.702,27.511c12.218-8.279,27.067-11.934,40.737-10.03c14.249,1.99,27.149,10.052,34.508,21.566   c0.061,0.1,0.123,0.198,0.185,0.296c0.103,0.164,0.207,0.329,0.307,0.498c0.035,0.059,0.016,0.136-0.043,0.171   c-0.059,0.034-0.136,0.016-0.171-0.044c-0.099-0.167-0.202-0.33-0.304-0.492c-0.063-0.099-0.125-0.198-0.186-0.296   c-7.319-11.452-20.153-19.472-34.331-21.452c-13.613-1.897-28.396,1.745-40.562,9.99C16.599,35.344,7.292,47.061,1.637,60.712   C1.618,60.76,1.571,60.79,1.522,60.79z"/>
	<path d="M45.338,81.105c-6.114,0-12.376-1.029-18.394-3.042C17.785,75.01,8.85,69.561,1.108,62.304l-0.385-0.355   c-0.406-0.375-0.431-1.007-0.057-1.413c0.375-0.406,1.007-0.431,1.413-0.057l0.391,0.361c7.538,7.065,16.218,12.362,25.107,15.325   c7.698,2.576,15.802,3.483,23.432,2.625c2.075-0.225,4.147-0.591,6.163-1.087c5.392-1.32,10.75-3.646,15.925-6.915   c3.449-2.172,6.816-4.763,10.007-7.7c6.687-6.152,13.209-14.135,19.387-23.726c0.299-0.464,0.918-0.598,1.382-0.299   c0.464,0.299,0.598,0.918,0.299,1.382c-6.27,9.734-12.903,17.847-19.714,24.115c-3.28,3.019-6.744,5.684-10.294,7.92   c-5.357,3.383-10.914,5.794-16.515,7.165c-2.101,0.517-4.261,0.899-6.42,1.133C49.29,80.997,47.322,81.105,45.338,81.105z"/>
	<path d="M48.729,79.38c-2.938,0-5.768-0.584-8.292-1.723c-7.838-3.534-13.119-12.436-13.141-22.151   c-0.023-10.28,5.247-19.043,9.672-24.585c0.125-0.157,0.386-0.233,0.55-0.114c0.162,0.119,0.237,0.3,0.125,0.467   c-0.007,0.011-0.05,0.066-0.059,0.076c-4.38,5.486-9.56,14.092-9.538,24.154c0.021,9.426,5.125,18.053,12.699,21.469   c3.068,1.385,6.609,1.918,10.247,1.539c5.235-0.538,10.466-2.94,14.352-6.59c5.979-5.588,9.694-14.11,10.463-23.996   c0.342-4.377,0.331-15.139-7.135-20.527c-0.168-0.121-0.206-0.356-0.085-0.524c0.121-0.168,0.354-0.206,0.523-0.085   c7.775,5.61,7.796,16.69,7.445,21.194c-0.784,10.073-4.583,18.769-10.698,24.485c-4.003,3.76-9.393,6.234-14.788,6.789   C50.285,79.339,49.503,79.38,48.729,79.38z"/>
	<path d="M51.496,64.645c-0.551,0-1.104-0.053-1.657-0.162c-4.071-0.804-7.204-4.509-8.176-9.668   c-0.427-2.264-0.403-4.733,0.071-7.142c0.771-3.888,2.627-7.322,5.227-9.671c2.632-2.378,5.711-3.363,8.674-2.774   c4.427,0.869,7.708,5.149,8.359,10.904c0.227,1.891,0.141,3.874-0.254,5.896C62.288,59.36,57.003,64.644,51.496,64.645z    M53.95,35.811c-2.237,0-4.493,0.946-6.487,2.747c-2.48,2.241-4.254,5.53-4.994,9.26c-0.455,2.315-0.479,4.687-0.069,6.857   c0.914,4.852,3.82,8.328,7.584,9.072c5.663,1.121,11.502-4.204,13.02-11.865c0.38-1.944,0.463-3.849,0.245-5.663   c0-0.001,0-0.002,0-0.002c-0.613-5.424-3.659-9.449-7.76-10.254C54.98,35.861,54.465,35.811,53.95,35.811z"/>
	<path d="M42.032,54.995c-0.035,0-0.07-0.007-0.104-0.022c-0.125-0.057-0.181-0.205-0.124-0.331c2.27-5,5.382-8.344,9.514-10.224   c4.65-2.121,9.55-1.499,12.485,1.585c0.095,0.1,0.091,0.258-0.009,0.354c-0.1,0.094-0.258,0.091-0.354-0.009   c-2.784-2.927-7.461-3.506-11.916-1.475c-4.017,1.828-7.048,5.091-9.266,9.976C42.217,54.94,42.126,54.995,42.032,54.995z"/>
</g>

        </g>
    </g>
</g>

<!-- ITEM 5 -->
<g>
    <defs>
        
        <clipPath id="clip-path-id-viewbox-item-5">
            <rect x="0.0" y="0.0" width="19.885" height="39.01"/>
        </clipPath>
    </defs>
    <g transform="translate(1342.0 692.0) rotate(352.201101560796 39.5 79.0) scale(3.9728438521498615 4.050243527300692)">
        <g clip-path="url(#clip-path-id-viewbox-item-5)" transform="translate(-0.0 -0.0)">

<g>
	<path style="fill:#82CABE;" d="M18.18,23.36c0.85,2.57,1.46,5.29,1.1,7.97c-0.35,2.68-1.83,5.32-4.26,6.52   c-2.95,1.45-6.71,0.38-9.04-1.94c-2.34-2.31-3.44-5.63-3.8-8.9s-0.06-6.58-0.02-9.87C2.22,12.13,2.34,6.56,0.5,0.5   C8.75,5.82,15.1,14.03,18.18,23.36z M13.48,23.08c1.11-0.8,1.01-2.47,0.63-3.79c-0.64-2.19-1.4-3.98-3.74-6.56   c-1.27-1.4-2.79-1.25-3.67-0.44c-1.01,0.93-0.8,2.55-0.45,3.88c0.71,2.66,1.84,5.5,4.26,6.81C11.43,23.48,12.63,23.69,13.48,23.08z   "/>
	<path style="fill:#CDE8E3;" d="M14.11,19.29c0.38,1.32,0.48,2.99-0.63,3.79c-0.85,0.61-2.05,0.4-2.97-0.1   c-2.42-1.31-3.55-4.15-4.26-6.81c-0.35-1.33-0.56-2.95,0.45-3.88c0.88-0.81,2.4-0.96,3.67,0.44C12.71,15.31,13.47,17.1,14.11,19.29   z"/>
	<path d="M12.1,38.996c-2.285,0-4.699-0.965-6.473-2.731c-2.718-2.683-3.645-6.484-3.944-9.199c-0.262-2.382-0.179-4.806-0.098-7.15   c0.032-0.927,0.064-1.855,0.075-2.781l0.005-0.394C1.724,11.928,1.791,6.473,0.021,0.645c-0.061-0.201,0.01-0.418,0.177-0.544   C0.366-0.025,0.595-0.034,0.771,0.08C9.169,5.495,15.52,13.707,18.655,23.203c1.093,3.304,1.438,5.832,1.121,8.193   c-0.401,3.073-2.138,5.719-4.534,6.902C14.283,38.769,13.207,38.996,12.1,38.996z M1.35,1.668   C2.783,7.143,2.72,12.227,2.665,16.753L2.66,17.146c-0.011,0.933-0.043,1.868-0.076,2.803c-0.08,2.309-0.162,4.696,0.093,7.007   c0.281,2.554,1.143,6.12,3.654,8.599c2.342,2.332,5.904,3.108,8.468,1.847c2.099-1.036,3.626-3.388,3.985-6.136   c0.296-2.206-0.036-4.595-1.079-7.748C14.783,14.664,9,6.953,1.35,1.668z"/>
</g>

        </g>
    </g>
</g>

<!-- ITEM 6 -->
<g>
    <defs>
        
        <clipPath id="clip-path-id-viewbox-item-6">
            <rect x="0.0" y="0.0" width="92.645" height="30.097"/>
        </clipPath>
    </defs>
    <g transform="translate(929.0 792.0) rotate(0.0 123.5 41.5) scale(2.6660909924982463 2.75774994185467)">
        <g clip-path="url(#clip-path-id-viewbox-item-6)" transform="translate(-0.0 -0.0)">

<g>
	<path style="fill:#FFE7E6;" d="M90.052,5.671c0.9,1.68,1.64,5.01,1.59,8.68h-0.28c-3.94,0.15-7.89,0.26-11.86,0.35   c0.05-4.37,0.11-9.06,0.16-13.67c0.57,0,1.13-0.01,1.69-0.01C81.352,1.021,87.232,0.421,90.052,5.671z"/>
	<path style="fill:#FFE7E6;" d="M91.362,14.351h0.28c-0.04,3.63-0.84,7.59-3,10.59c-1.7,2.38-4.04,2.93-8.1,3.43   c-0.36,0.01-0.72,0.02-1.08,0.03v-0.13c-0.05-3.62-0.02-8.37,0.04-13.57C83.472,14.611,87.422,14.501,91.362,14.351z"/>
	<path style="fill:#FFE7E6;" d="M79.662,1.031c-0.05,4.61-0.11,9.3-0.16,13.67c-4.71,0.12-9.44,0.2-14.18,0.27   c-0.04-5.15-0.09-10.27-0.19-13.84v-0.1C70.182,1.041,75.052,1.051,79.662,1.031z"/>
	<path style="fill:#FFE7E6;" d="M79.462,28.271v0.13c-4.79,0.15-9.44,0.27-14.02,0.37l-0.01-0.3c-0.05-3.69-0.08-8.61-0.11-13.5   c4.74-0.07,9.47-0.15,14.18-0.27C79.442,19.901,79.412,24.651,79.462,28.271z"/>
	<path style="fill:#FFE7E6;" d="M65.432,28.471l0.01,0.3c-5.38,0.12-10.67,0.2-15.95,0.26v-0.05c0.09-2.62,0.04-8.3-0.04-13.84   c5.3-0.05,10.59-0.1,15.87-0.17C65.352,19.861,65.382,24.781,65.432,28.471z"/>
	<path style="fill:#FFE7E6;" d="M65.132,1.131c0.1,3.57,0.15,8.69,0.19,13.84c-5.28,0.07-10.57,0.12-15.87,0.17   c-0.1-7.07-0.26-13.91-0.26-13.91v-0.22c5.47,0,10.8,0.01,15.94,0.02V1.131z"/>
	<path style="fill:#FFE7E6;" d="M49.452,15.141c0.08,5.54,0.13,11.22,0.04,13.84v0.05c-5.71,0.05-11.42,0.08-17.25,0.06v-0.01   c-0.05-4.26-0.07-9-0.1-13.77C37.902,15.241,43.672,15.191,49.452,15.141z"/>
	<path style="fill:#FFE7E6;" d="M49.452,15.141c-5.78,0.05-11.55,0.1-17.31,0.17c-0.02-4.89-0.05-9.8-0.1-14.18v-0.06   c5.81-0.05,11.55-0.06,17.15-0.06v0.22C49.192,1.231,49.352,8.071,49.452,15.141z"/>
	<path style="fill:#FFE7E6;" d="M32.242,29.081v0.01c-5.43-0.01-10.98-0.05-16.73-0.13v-0.29c-0.04-4.19-0.05-8.64-0.06-13.1   c5.54-0.12,11.11-0.2,16.69-0.26C32.172,20.081,32.192,24.821,32.242,29.081z"/>
	<path style="fill:#FFE7E6;" d="M32.042,1.131c0.05,4.38,0.08,9.29,0.1,14.18c-5.58,0.06-11.15,0.14-16.69,0.26   c-0.01-4.84-0.02-9.69-0.06-14.24c5.58-0.13,11.15-0.21,16.65-0.26V1.131z"/>
	<path style="fill:#FFE7E6;" d="M15.512,28.671v0.29c-0.14,0-0.28,0-0.42,0c-5.96,0.22-8.98-0.49-11-3.11   c-2.09-2.72-3.03-5.05-3.09-9.87c4.79-0.17,9.61-0.31,14.45-0.41C15.462,20.031,15.472,24.481,15.512,28.671z"/>
	<path style="fill:#FFE7E6;" d="M15.392,1.331c0.04,4.55,0.05,9.4,0.06,14.24c-4.84,0.1-9.66,0.24-14.45,0.41v-0.01   c-0.04-3.26,0.47-6.65,2.21-9.41C4.942,3.801,8.122,1.231,15.392,1.331z"/>
	<path d="M15.392,2.331c-0.542,0-0.987-0.433-1-0.977c-0.013-0.553,0.425-1.011,0.977-1.023c5.162-0.12,10.613-0.205,16.664-0.26   C38.298,0.017,44.494,0.01,49.192,0.01c5.181,0,10.236,0.01,15.124,0.019l0.999,0.002c4.982,0.01,9.79,0.019,14.343,0l1.694-0.01   c0.553,0,1,0.447,1,1s-0.447,1-1,1l-1.69,0.01c-4.554,0.018-9.363,0.01-14.351,0l-0.999-0.002c-4.887-0.009-9.94-0.019-15.12-0.019   c-4.694,0-10.885,0.007-17.142,0.061c-6.041,0.055-11.482,0.14-16.635,0.26C15.408,2.331,15.4,2.331,15.392,2.331z"/>
	<path d="M36.056,30.097c-1.296,0-2.563-0.002-3.818-0.007c-5.723-0.011-11.198-0.053-16.739-0.13h-0.406c-0.553,0-1-0.447-1-1   s0.447-1,1-1h0.42c5.547,0.077,11.015,0.119,16.731,0.13c5.13,0.02,10.449,0,17.239-0.06c5.883-0.067,11.097-0.152,15.937-0.26   c4.577-0.101,9.225-0.221,14.012-0.37l1.056-0.029c0.523-0.018,1.025,0.421,1.04,0.973c0.016,0.552-0.406,1.011-0.958,1.026   l-1.076,0.03c-4.792,0.149-9.445,0.27-14.029,0.37c-4.847,0.107-10.067,0.192-15.96,0.26   C44.364,30.076,40.067,30.097,36.056,30.097z"/>
	<path d="M80.541,29.371c-0.498,0-0.929-0.371-0.991-0.878c-0.067-0.548,0.322-1.047,0.87-1.114c4.062-0.5,5.988-1.03,7.409-3.019   c1.771-2.46,2.77-6.018,2.813-10.02c0.05-3.672-0.703-6.763-1.472-8.198c-2.456-4.573-7.504-4.148-7.72-4.126   c-0.547,0.047-1.038-0.348-1.092-0.896c-0.055-0.549,0.344-1.037,0.892-1.094c0.265-0.028,6.581-0.602,9.683,5.171   c1.087,2.03,1.757,5.628,1.709,9.168c-0.034,3.118-0.615,7.587-3.188,11.16c-2.004,2.805-4.907,3.36-8.79,3.838   C80.623,29.369,80.581,29.371,80.541,29.371z"/>
	<path d="M13.124,30.001c-4.525,0-7.662-0.736-9.823-3.539c-2.089-2.718-3.232-5.19-3.299-10.468   c-0.048-4.052,0.747-7.4,2.365-9.966c2.4-3.832,6.533-5.7,12.622-5.7c0.138,0,0.276,0.001,0.417,0.003   c0.553,0.008,0.994,0.462,0.986,1.014c-0.008,0.553-0.479,0.977-1.014,0.986C7.957,2.205,5.371,5,4.06,7.092   c-1.41,2.236-2.103,5.218-2.059,8.866c0.06,4.754,1.018,6.855,2.884,9.283c1.712,2.221,4.373,2.931,10.17,2.72   c0.546-0.059,1.016,0.41,1.036,0.962s-0.41,1.016-0.962,1.036C14.432,29.986,13.763,30.001,13.124,30.001z"/>
	<path d="M0.772,16.116c-0.069,0-0.125-0.056-0.125-0.125s0.056-0.125,0.125-0.125c0.037,0,0.072-0.002,0.107-0.005   c0.04-0.002,0.08-0.005,0.122-0.005c5.091-0.181,9.818-0.314,14.447-0.41c4.988-0.108,10.448-0.193,16.692-0.26   c5.519-0.067,11.144-0.117,16.584-0.164l0.726-0.007c5.194-0.049,10.566-0.1,15.869-0.17c4.187-0.062,9.146-0.142,14.179-0.27   c4.407-0.1,8.286-0.214,11.858-0.35c0.082-0.007,0.128,0.051,0.13,0.12c0.003,0.069-0.052,0.127-0.12,0.13   c-3.574,0.136-7.454,0.25-11.862,0.35c-5.034,0.128-9.993,0.208-14.181,0.27c-5.305,0.07-10.676,0.121-15.871,0.17l-0.725,0.007   c-5.44,0.047-11.065,0.097-16.584,0.164c-6.243,0.066-11.702,0.151-16.689,0.26c-4.629,0.096-9.354,0.229-14.448,0.41   c-0.041,0-0.076,0.002-0.11,0.005C0.855,16.113,0.815,16.116,0.772,16.116z"/>
	<path d="M15.512,28.796c-0.068,0-0.124-0.056-0.125-0.124c-0.039-4.064-0.05-8.454-0.06-12.7l-0.001-0.4   c-0.01-4.771-0.02-9.693-0.06-14.239c-0.001-0.069,0.055-0.125,0.124-0.126h0.001c0.068,0,0.124,0.056,0.125,0.124   c0.04,4.547,0.05,9.47,0.06,14.23l0.001,0.411c0.01,4.245,0.021,8.635,0.06,12.698C15.638,28.738,15.583,28.795,15.512,28.796   L15.512,28.796z"/>
	<path d="M32.242,29.206c-0.068,0-0.124-0.055-0.125-0.124c-0.038-3.228-0.058-6.67-0.079-10.314l-0.021-3.455   c-0.024-5.884-0.057-10.39-0.101-14.181c-0.001-0.068,0.055-0.125,0.124-0.126h0.001c0.068,0,0.124,0.055,0.125,0.124   c0.044,3.791,0.076,8.297,0.101,14.181l0.021,3.455c0.021,3.645,0.041,7.087,0.079,10.314   C32.368,29.148,32.312,29.205,32.242,29.206L32.242,29.206z"/>
	<path d="M49.492,29.106c-0.001,0-0.003,0-0.004,0c-0.069-0.002-0.123-0.061-0.121-0.129c0.076-2.207,0.063-6.732-0.04-13.835   c-0.099-6.988-0.258-13.84-0.26-13.908c-0.002-0.069,0.053-0.126,0.122-0.128c0.07-0.006,0.126,0.053,0.128,0.122   c0.002,0.068,0.161,6.921,0.26,13.91c0.103,7.106,0.116,11.636,0.04,13.847C49.615,29.053,49.559,29.106,49.492,29.106z"/>
	<path d="M65.432,28.595c-0.068,0-0.124-0.055-0.125-0.123c-0.05-3.666-0.08-8.616-0.109-13.404l-0.001-0.097   c-0.039-5.075-0.09-10.265-0.189-13.837c-0.002-0.069,0.053-0.127,0.121-0.129c0.002,0,0.003,0,0.004,0   c0.067,0,0.123,0.054,0.125,0.121c0.1,3.576,0.15,8.767,0.189,13.843l0.001,0.098c0.029,4.787,0.06,9.737,0.109,13.401   c0.001,0.069-0.055,0.126-0.123,0.127C65.433,28.595,65.433,28.595,65.432,28.595z"/>
	<path d="M79.463,28.396c-0.068,0-0.124-0.055-0.125-0.123c-0.044-3.16-0.032-7.347,0.039-13.573l0.058-4.821   c0.035-2.912,0.07-5.897,0.103-8.849c0.001-0.069,0.057-0.124,0.125-0.124h0.001c0.069,0.001,0.125,0.058,0.124,0.126   c-0.032,2.952-0.067,5.938-0.103,8.85l-0.058,4.82c-0.071,6.226-0.083,10.41-0.039,13.567c0.001,0.069-0.055,0.126-0.123,0.127   C79.464,28.396,79.464,28.396,79.463,28.396z"/>
</g>

        </g>
    </g>
</g>

<!-- ITEM 7 -->
<g>
    <defs>
        
        <clipPath id="clip-path-id-viewbox-item-7">
            <rect x="0.0" y="0.0" width="143.3" height="131.2"/>
        </clipPath>
    </defs>
    <g transform="translate(490.0 808.0) rotate(354.1951357032217 -94.0 86.5) scale(-1.3119330076762037 1.3185975609756098)">
        <g clip-path="url(#clip-path-id-viewbox-item-7)" transform="translate(-0.0 -0.0)">


<path d="M96.5,120.2c-4.7,2-9.7,3.4-14.8,4c-4.2,0.5-8.4,0.5-12.4,0.2l0-0.2c9.9,0,21.6-2.7,27.4-11  c5.8-8.3,5.7-20.4-0.2-28.7l0-0.1c4.6-0.9,9.2-2.1,13.7-3.5v0c8.3-2.6,16.5-5.9,24.3-10c-4.5,12.5-9.9,25.6-18.8,35.4  c-2.5,2.7-5.2,5.2-8.1,7.4C104.3,116.3,100.5,118.4,96.5,120.2z" style="fill:#1a4d81;"/>
<path d="M108.1,16.4c13.6,15.6,21.4,34.3,26.6,54.5c-7.6-4.2-15.7-7.4-24.1-9.8c-7-2-14.1-3.3-21.3-3.9  c-5.3-0.5-10.7-0.6-16-0.3c-2.5,0.1-4.9,0.3-7.3,0.6c-6.9,0.8-13.8,2.3-20.4,4.4c-5.2,1.6-10.2,3.6-15.1,5.9  c-5.8,2.7-11.4,5.9-16.6,9.6l-0.4-0.1c2.9-17.7,7.2-35.2,14.9-51.3c1.4-2.4,3.4-6.3,4.9-7.8c1.8-1.7,4-2.9,6.5-2.9  c3.4,0,6.6,2,8.6,4.7c5.8,8.1,9.6,16.3,13.5,26.3l0.5,0c0.5-3,1.2-6,2-8.9c2.5-8.4,6.7-16.3,12.2-23.1c2.9-3.5,6.3-6.9,10.7-8  c4-1,8.2,0,11.8,2C102.4,10.4,105.4,13.3,108.1,16.4z M115,44.6c4.4-2.9,2.6-13.4-4-23.5c-6.6-10.1-15.4-15.9-19.8-13  c-4.4,2.9-2.6,13.4,4,23.5C101.7,41.7,110.6,47.5,115,44.6z" style="fill:#336099;"/>
<path d="M111,21.1c6.6,10.1,8.4,20.6,4,23.5c-4.4,2.9-13.3-2.9-19.8-13c-6.6-10.1-8.4-20.6-4-23.5  C95.5,5.3,104.4,11.1,111,21.1z" style="fill:#FF9B19;"/>
<path d="M134.6,70.9c-7.9,4.1-16,7.4-24.3,10l-0.1-0.2c0.1-6.3,0.1-12.7,0.2-19l0.2-0.6C118.9,63.4,127,66.7,134.6,70.9  z" style="fill:#FFE4E9;"/>
<path d="M110.6,61.1l-0.2,0.6c-0.1,6.3-0.1,12.7-0.2,19l0.1,0.2v0c-4.5,1.4-9.1,2.6-13.7,3.5c-2.6,0.6-5.3,1-8,1.4  l-0.1-0.6c0,0,0.7-18.7,0.7-27.7l0-0.3C96.5,57.8,103.6,59.1,110.6,61.1z" style="fill:#FFE4E9;"/>
<path d="M32.2,83.7c5.5,1.2,11,2.2,16.5,2.8c6.5,0.8,13.1,1.1,19.6,1c6.8-0.1,13.6-0.7,20.3-1.7v0  c2.7-0.4,5.3-0.9,8-1.4l0,0.1c5.9,8.3,6,20.3,0.2,28.7c-5.8,8.4-17.5,11-27.4,11l0,0.2C51.7,122.8,37,113.7,29,103.5  c-6.1-7.7-11.3-16-15.6-24.9l0.1-0.3C19.6,80.5,25.8,82.3,32.2,83.7z" style="fill:#337db5;"/>
<path d="M89.3,57.2l0,0.3c0,9-0.7,27.7-0.7,27.7l0.1,0.6v0c-6.7,1-13.5,1.6-20.3,1.7L66,57.8l0-0.3  c2.4-0.3,4.9-0.5,7.3-0.6C78.6,56.6,84,56.7,89.3,57.2z" style="fill:#FFE4E9;"/>
<path d="M66,57.8l2.3,29.7c-6.6,0.1-13.1-0.2-19.6-1l0.1-0.5c-1-7.8-2-15.7-3-23.5l-0.2-0.6c6.7-2.1,13.5-3.5,20.4-4.4  L66,57.8z" style="fill:#FFE4E9;"/>
<path d="M64.2,37.5L64.2,37.5c-0.9,2.9-1.6,5.8-2,8.9l-0.5,0c-3.9-10-7.7-18.2-13.5-26.3c-2-2.7-5.2-4.7-8.6-4.7  c-2.4,0-4.7,1.3-6.5,2.9c-1.5,1.4-3.5,5.4-4.9,7.8c1-2.1,2-4.1,3.1-6.1c7-12.9,17.3-10.1,24.1-0.2C59.2,25.2,64.2,37.5,64.2,37.5z" style="fill:#1a4d81;"/>
<path d="M45.7,62.5c1,7.8,2,15.7,3,23.5l-0.1,0.5c-5.6-0.6-11.1-1.6-16.5-2.8l-1.7-15.9l0,0c4.9-2.3,9.9-4.3,15.1-5.9  L45.7,62.5z" style="fill:#FFE4E9;"/>
<path d="M30.4,67.8l1.7,15.9c-6.3-1.4-12.6-3.2-18.7-5.4c-0.1,0-0.2-0.1-0.4-0.1l0.2-0.6c0-0.1,0-0.1,0-0.2l0.4,0.1  C19,73.7,24.6,70.5,30.4,67.8L30.4,67.8z" style="fill:#FFE4E9;"/>
<path d="M13.3,79c-0.1,0-0.1,0-0.2,0c-0.8-0.1-1.4-0.9-1.3-1.7c0-0.1,0-0.2,0.1-0.3c3.4-20.9,8.2-37.3,15-51.6  c1-2.1,2.1-4.2,3.2-6.2c4.1-7.5,8.9-9.3,12.2-9.4c5-0.2,10.3,3.1,14.4,9.1c3.8,5.6,8.6,17.5,8.8,18c0.3,0.8-0.1,1.6-0.8,2  c-0.8,0.3-1.6-0.1-2-0.8c0-0.1-4.9-12.2-8.5-17.5c-3.5-5.1-7.8-8-11.8-7.8c-3.6,0.2-7,2.9-9.7,7.9c-1.1,2-2.1,4-3.1,6.1  c-6.7,14-11.4,30.2-14.8,50.9c0,0.1,0,0.1,0,0.2C14.7,78.5,14,79,13.3,79z"/>
<path d="M134.6,72.4c-0.7,0-1.3-0.5-1.5-1.1c-5.8-22.9-14.2-40-26.2-53.8c-2.2-2.5-5.2-5.7-8.8-7.7c-3.6-2-7.4-2.7-10.7-1.9  c-4.3,1.1-7.5,4.6-9.9,7.5c-5.3,6.6-9.5,14.4-11.9,22.6c-0.9,2.8-1.5,5.7-2,8.6c-0.1,0.8-0.9,1.4-1.7,1.3c-0.8-0.1-1.4-0.9-1.3-1.7  c0.5-3.1,1.2-6.1,2.1-9.1c2.6-8.6,6.9-16.7,12.5-23.6c2.5-3,6.3-7.2,11.5-8.5c4-1,8.6-0.3,12.9,2.1c4,2.3,7.2,5.7,9.6,8.4  c12.4,14.2,20.9,31.7,26.9,55.1c0.2,0.8-0.3,1.6-1.1,1.8C134.9,72.3,134.8,72.4,134.6,72.4z"/>
<path d="M13.8,78.4c-0.3,0-0.6-0.1-0.8-0.4c-0.3-0.5-0.2-1.1,0.2-1.4c5.2-3.7,10.9-6.9,16.8-9.7c4.9-2.3,10-4.3,15.2-5.9  c6.8-2.1,13.7-3.6,20.6-4.4c2.5-0.3,5-0.5,7.4-0.6c5.3-0.3,10.7-0.2,16.1,0.3c7.3,0.6,14.5,2,21.5,3.9c8.5,2.4,16.6,5.7,24.3,9.9  c0.5,0.3,0.7,0.9,0.4,1.4c-0.3,0.5-0.9,0.7-1.4,0.4c-7.5-4.1-15.5-7.4-23.8-9.7c-6.9-1.9-14-3.2-21.1-3.9  c-5.3-0.5-10.6-0.6-15.8-0.3c-2.3,0.1-4.8,0.3-7.3,0.6c-6.8,0.8-13.6,2.3-20.3,4.3c-5.1,1.6-10.1,3.5-15,5.8  c-5.8,2.7-11.4,5.9-16.5,9.5C14.2,78.3,14,78.4,13.8,78.4z"/>
<path d="M66,88.5c-5.8,0-11.7-0.3-17.4-1c-5.5-0.6-11.1-1.6-16.7-2.8c-6.4-1.4-12.7-3.3-18.8-5.5l-0.3-0.1c-0.5-0.2-0.8-0.7-0.6-1.3  c0.2-0.5,0.7-0.8,1.3-0.6l0.4,0.1c6,2.2,12.3,4,18.6,5.4c5.5,1.2,11,2.2,16.4,2.8c6.4,0.7,13,1.1,19.5,1c6.7-0.1,13.5-0.6,20-1.6  c0,0,0.1,0,0.1,0c2.6-0.4,5.1-0.8,7.9-1.4c4.6-0.9,9.1-2.1,13.5-3.5c0,0,0.1,0,0.1,0c8.4-2.6,16.5-5.9,24.2-10  c0.5-0.3,1.1-0.1,1.3,0.4c0.3,0.5,0.1,1.1-0.4,1.3c-7.7,4.1-15.9,7.4-24.4,10.1c0,0-0.1,0-0.1,0c-4.5,1.4-9.1,2.6-13.8,3.5  c-2.7,0.6-5.3,1-7.9,1.4c0,0-0.1,0-0.1,0c-6.7,1-13.6,1.6-20.5,1.7C67.6,88.5,66.8,88.5,66,88.5z"/>
<path d="M74.6,126.1c-1.8,0-3.6-0.1-5.4-0.2c-19.4-1.7-34.1-12.2-41.4-21.4C21.7,96.8,16.4,88.3,12,79.3c-0.4-0.7-0.1-1.6,0.7-2  c0.7-0.4,1.6-0.1,2,0.7c4.3,8.8,9.5,17.1,15.4,24.6c6.9,8.8,20.9,18.7,39.3,20.3c4,0.4,8,0.3,12.1-0.2c4.9-0.6,9.8-1.9,14.4-3.9  c3.9-1.7,7.5-3.8,10.9-6.3c2.9-2.1,5.5-4.6,7.9-7.2c8.7-9.7,14-22.5,18.5-34.9c0.3-0.8,1.1-1.2,1.9-0.9c0.8,0.3,1.2,1.1,0.9,1.9  c-4.5,12.7-10,25.8-19,35.9c-2.5,2.8-5.3,5.3-8.3,7.6c-3.6,2.7-7.5,4.9-11.5,6.7c-4.9,2.1-10,3.5-15.2,4.1  C79.5,126,77,126.1,74.6,126.1z"/>
<path d="M110.2,80.9C110.2,80.9,110.2,80.9,110.2,80.9c-0.1,0-0.3-0.1-0.3-0.3l0.2-19c0-0.1,0.1-0.2,0.3-0.2c0,0,0,0,0,0  c0.1,0,0.2,0.1,0.2,0.3l-0.2,19C110.5,80.8,110.4,80.9,110.2,80.9z"/>
<path d="M88.5,85.5C88.5,85.5,88.5,85.5,88.5,85.5c-0.1,0-0.3-0.1-0.3-0.3c0-0.2,0.7-18.8,0.7-27.7c0-0.1,0.1-0.2,0.3-0.2l0,0  c0.1,0,0.3,0.1,0.3,0.3c0,8.9-0.7,27.5-0.7,27.7C88.8,85.4,88.7,85.5,88.5,85.5z"/>
<path d="M68.3,87.5h-0.3l-2.3-29.7c0-0.1,0.1-0.3,0.2-0.3c0.1,0,0.3,0.1,0.3,0.2l2.3,29.7L68.3,87.5z"/>
<path d="M48.8,86.3c-0.1,0-0.2-0.1-0.2-0.2c-1-7.8-2-15.7-3-23.5c0-0.1,0.1-0.3,0.2-0.3c0.1,0,0.3,0.1,0.3,0.2c1,7.8,2,15.7,3,23.5  C49,86.1,48.9,86.3,48.8,86.3C48.8,86.3,48.8,86.3,48.8,86.3z"/>
<path d="M32.2,84c-0.1,0-0.2-0.1-0.2-0.2l-1.7-15.9c0-0.1,0.1-0.3,0.2-0.3c0.1,0,0.3,0.1,0.3,0.2l1.7,15.9  C32.4,83.8,32.3,84,32.2,84z"/>

        </g>
    </g>
</g>

<!-- ITEM 8 -->
<g>
    <defs>
        
        <clipPath id="clip-path-id-viewbox-item-8">
            <rect x="0.0" y="0.0" width="146.1" height="100.0"/>
        </clipPath>
    </defs>
    <g transform="translate(221.0 324.0) rotate(0.0 120.0 81.5) scale(1.642710472279261 1.63)">
        <g clip-path="url(#clip-path-id-viewbox-item-8)" transform="translate(-0.0 -0.0)">


<path d="M124.7,67.1l1.4,6.4c0,0-14.2-11.5-53.6-8.9C33,67.2,22.5,81.2,22.5,81.2v-6.4c0,0,17.1-13.2,50.7-15.3  c31.5-2,51.2,7.6,51.2,7.6L124.7,67.1z" style="fill:#FF9B19;"/>
<path d="M117.1,31.6l7.6,35.4l-0.2,0.1c0,0-19.8-9.6-51.2-7.6c-33.6,2.1-50.7,15.3-50.7,15.3V41.1l17.1,20.5L53,31.6  l16.8,22.1l14.2-25l12.9,22.9L117.1,31.6z" style="fill:#FF9B19;"/>
<circle cx="118" cy="21.4" r="6.5" style="fill:#FF9B19;"/>
<path d="M126.1,73.4c0,0-18.4,10.2-54.1,12.3c-31.3,1.8-49.4-4.5-49.4-4.5s10.5-14,49.9-16.7  C111.8,61.9,126.1,73.4,126.1,73.4z" style="fill:#F46A3D;"/>
<circle cx="84.8" cy="17" r="6.5" style="fill:#FF9B19;"/>
<circle cx="50.9" cy="20.2" r="6.5" style="fill:#FF9B19;"/>
<path d="M20,23.5c3.6,0,6.5,2.9,6.5,6.5s-2.9,6.5-6.5,6.5s-6.5-2.9-6.5-6.5S16.4,23.5,20,23.5z" style="fill:#FF9B19;"/>
<path d="M22.5,82.2c-0.1,0-0.2,0-0.3-0.1c-0.4-0.1-0.7-0.5-0.7-0.9V41.1c0-0.4,0.3-0.8,0.7-0.9c0.4-0.1,0.8,0,1.1,0.3l16.1,19.3  l12.7-28.5c0.1-0.3,0.4-0.5,0.8-0.6c0.4,0,0.7,0.1,0.9,0.4l15.9,20.9l13.4-23.6c0.2-0.3,0.5-0.5,0.9-0.5c0,0,0,0,0,0  c0.4,0,0.7,0.2,0.9,0.5L97.1,50l19.3-19c0.3-0.3,0.6-0.4,1-0.2c0.4,0.1,0.6,0.4,0.7,0.7l8.9,41.8c0.1,0.4-0.1,0.8-0.5,1.1  c-0.4,0.2-0.8,0.2-1.2-0.1c-0.1-0.1-14.5-11.2-52.9-8.7c-38.5,2.6-49,16.1-49.1,16.3C23.2,82,22.9,82.2,22.5,82.2z M23.5,43.9v34.8  c4.4-4,17.6-13.1,48.8-15.2c31.4-2.1,47,4.7,52.2,7.7l-8-37.6L97.6,52.3c-0.2,0.2-0.5,0.3-0.8,0.3c-0.3,0-0.6-0.2-0.7-0.5L84,30.8  L70.7,54.2c-0.2,0.3-0.5,0.5-0.8,0.5c-0.3,0-0.7-0.1-0.9-0.4L53.2,33.6L40.5,62c-0.1,0.3-0.4,0.5-0.8,0.6c-0.3,0-0.7-0.1-0.9-0.3  L23.5,43.9z"/>
<path d="M61,87c-24.4,0-38.6-4.8-38.7-4.9c-0.5-0.2-0.8-0.8-0.6-1.3c0.2-0.5,0.8-0.8,1.3-0.6c0.2,0.1,18.3,6.2,49,4.5  c35-2,53.5-12.1,53.7-12.2c0.5-0.3,1.1-0.1,1.4,0.4c0.3,0.5,0.1,1.1-0.4,1.4c-0.2,0.1-19,10.4-54.5,12.4C68.1,86.9,64.4,87,61,87z"/>
<path d="M22.5,74.9C22.5,74.9,22.5,74.9,22.5,74.9c-0.1-0.1-0.1-0.2-0.1-0.2c0.2-0.1,17.5-13.2,50.8-15.3c31.1-2,51.1,7.5,51.3,7.6  c0.1,0,0.1,0.1,0.1,0.2c0,0.1-0.1,0.1-0.2,0.1c-0.2-0.1-20.1-9.6-51.2-7.6C40.1,61.7,22.8,74.7,22.5,74.9  C22.6,74.9,22.6,74.9,22.5,74.9z"/>
<path d="M20,37.5c-4.1,0-7.5-3.4-7.5-7.5c0-4.1,3.4-7.5,7.5-7.5s7.5,3.4,7.5,7.5C27.5,34.1,24.1,37.5,20,37.5z M20,24.5  c-3,0-5.5,2.5-5.5,5.5c0,3,2.5,5.5,5.5,5.5s5.5-2.5,5.5-5.5C25.5,27,23,24.5,20,24.5z"/>
<path d="M50.9,27.7c-4.1,0-7.5-3.4-7.5-7.5s3.4-7.5,7.5-7.5s7.5,3.4,7.5,7.5S55,27.7,50.9,27.7z M50.9,14.7c-3,0-5.5,2.5-5.5,5.5  s2.5,5.5,5.5,5.5s5.5-2.5,5.5-5.5S53.9,14.7,50.9,14.7z"/>
<path d="M84.8,24.5c-4.1,0-7.5-3.4-7.5-7.5s3.4-7.5,7.5-7.5s7.5,3.4,7.5,7.5S88.9,24.5,84.8,24.5z M84.8,11.5c-3,0-5.5,2.5-5.5,5.5  s2.5,5.5,5.5,5.5s5.5-2.5,5.5-5.5S87.8,11.5,84.8,11.5z"/>
<path d="M118,28.9c-4.1,0-7.5-3.4-7.5-7.5s3.4-7.5,7.5-7.5s7.5,3.4,7.5,7.5S122.1,28.9,118,28.9z M118,15.9c-3,0-5.5,2.5-5.5,5.5  s2.5,5.5,5.5,5.5s5.5-2.5,5.5-5.5S121,15.9,118,15.9z"/>

        </g>
    </g>
</g>

<!-- ITEM 9 -->
<g>
    <defs>
        
        <clipPath id="clip-path-id-viewbox-item-9">
            <rect x="0.0" y="0.0" width="31.309" height="23.289"/>
        </clipPath>
    </defs>
    <g transform="translate(988.0 375.0) rotate(330.9247155723969 -48.5 36.5) scale(-3.0981506914944585 3.134527029928292)">
        <g clip-path="url(#clip-path-id-viewbox-item-9)" transform="translate(-0.0 -0.0)">

<g>
	<path style="fill:#FFE6E7;" d="M27.149,3.239c1.15,1.75,0.73,4.19-0.49,5.9c-1.22,1.7-3.09,2.82-4.95,3.79   c-3.2,1.68-6.55,3.09-10,4.2c-1.53,0.5-3.14,0.94-4.74,0.96c-0.26,0-0.53-0.01-0.79-0.03c-1.88-0.16-3.79-1.09-4.67-2.76   c-0.93-1.77-0.5-4.01,0.59-5.68c3.45-5.31,11.84-7.74,17.74-8.49C22.499,0.789,25.679,0.999,27.149,3.239z M19.729,9.669   c1.24-0.48,1.94-2.04,1.48-3.29c-0.1-0.11-0.2-0.22-0.29-0.33l0.23,0.19c-0.54-1.22-2.13-1.85-3.35-1.33   c-1.23,0.52-1.88,2.1-1.38,3.33C16.919,9.479,18.489,10.149,19.729,9.669z"/>
	<path d="M21.209,6.379c0.46,1.25-0.24,2.81-1.48,3.29c-1.24,0.48-2.81-0.19-3.31-1.43c-0.5-1.23,0.15-2.81,1.38-3.33   c1.22-0.52,2.81,0.11,3.35,1.33l-0.23-0.19C21.009,6.159,21.109,6.269,21.209,6.379z"/>
	<path d="M6.979,19.089c-0.296,0-0.591-0.011-0.875-0.032c-2.422-0.206-4.519-1.467-5.479-3.292   c-1.026-1.953-0.782-4.518,0.637-6.692C5.593,2.407,16.48,0.548,19.713,0.137c3.978-0.51,6.842,0.374,8.271,2.554   c1.491,2.269,0.818,5.165-0.511,7.029c-0.001,0.001-0.002,0.002-0.002,0.003c-1.343,1.868-3.341,3.071-5.301,4.093   c-3.257,1.711-6.675,3.146-10.156,4.266c-1.485,0.485-3.249,0.986-5.034,1.008C6.981,19.089,6.98,19.089,6.979,19.089z    M21.751,2.002c-0.657,0-1.276,0.054-1.784,0.119c-6.22,0.79-13.959,3.318-17.028,8.043c-1.009,1.546-1.222,3.378-0.543,4.67   C3.168,16.3,4.9,16.947,6.264,17.064c0.226,0.017,0.47,0.025,0.705,0.025c1.503-0.019,3.083-0.471,4.43-0.91   c3.376-1.086,6.687-2.477,9.846-4.136c1.742-0.908,3.504-1.958,4.602-3.485c0.902-1.267,1.434-3.299,0.467-4.77   C25.374,2.357,23.437,2.002,21.751,2.002z M26.66,9.14h0.01H26.66z"/>
	<path d="M7.659,23.289c-0.455,0-0.866-0.313-0.974-0.775c-0.141-0.608-0.253-1.413-0.362-2.191   c-0.103-0.731-0.208-1.488-0.328-2.01c-0.124-0.538,0.212-1.074,0.751-1.198c0.535-0.123,1.075,0.213,1.198,0.751   c0.14,0.605,0.251,1.405,0.359,2.18c0.104,0.735,0.21,1.496,0.331,2.02c0.124,0.538-0.212,1.075-0.75,1.199   C7.809,23.281,7.733,23.289,7.659,23.289z"/>
	<path d="M15.719,21.629c-0.391,0-0.763-0.23-0.923-0.614c-0.269-0.645-0.556-1.388-0.842-2.131   c-0.279-0.722-0.557-1.443-0.818-2.07c-0.213-0.509,0.028-1.095,0.538-1.308c0.505-0.212,1.095,0.028,1.308,0.538   c0.268,0.641,0.553,1.381,0.838,2.12c0.28,0.726,0.56,1.451,0.822,2.079c0.213,0.51-0.027,1.096-0.537,1.309   C15.979,21.605,15.848,21.629,15.719,21.629z"/>
	<path d="M23.3,18.829c-0.354,0-0.696-0.188-0.878-0.52l-2.4-4.39c-0.266-0.483-0.088-1.092,0.396-1.357   c0.484-0.267,1.093-0.088,1.357,0.396l2.4,4.39c0.266,0.484,0.088,1.092-0.396,1.357C23.628,18.79,23.462,18.829,23.3,18.829z"/>
	<path d="M30.309,14.029c-0.271,0-0.54-0.109-0.736-0.324c-0.559-0.607-1.112-1.188-1.663-1.767   c-0.666-0.699-1.329-1.395-1.992-2.129c-0.37-0.409-0.338-1.042,0.072-1.412c0.409-0.369,1.042-0.339,1.412,0.072   c0.65,0.72,1.302,1.402,1.955,2.089c0.561,0.587,1.122,1.178,1.688,1.795c0.374,0.406,0.347,1.039-0.061,1.412   C30.794,13.943,30.551,14.029,30.309,14.029z"/>
</g>

        </g>
    </g>
</g>

<!-- ITEM 10 -->
<g>
    <defs>
        
        <clipPath id="clip-path-id-viewbox-item-10">
            <rect x="0.0" y="0.0" width="25.289" height="11.421"/>
        </clipPath>
    </defs>
    <g transform="translate(860.0 305.0) rotate(351.8402902233075 70.0 32.5) scale(5.536003796116889 5.691270466684179)">
        <g clip-path="url(#clip-path-id-viewbox-item-10)" transform="translate(-0.0 -0.0)">

<g>
	<path style="fill:#FF9B19;" d="M7.476,6.078c-0.99-0.67-1.23-2.17-0.64-3.23c0.62-1.09,1.94-1.66,3.19-1.61   c1.25,0.06,2.42,0.68,3.37,1.5c0.95,0.81,1.71,1.83,2.45,2.83c-0.62-1.4-0.79-3.71,0.78-4.65c1.56-0.93,3.67-0.6,5.13,0.49   c1.47,1.09,2.36,2.8,2.86,4.55c0.42,1.44,0.52,3.19-0.53,4.25c-1.33,1.34-3.56,0.79-5.38,0.28c-4.78-1.32-9.83-1.65-14.75-0.95   c-0.97,0.14-2.06,0.29-2.85-0.29c-0.94-0.7-0.94-2.24-0.19-3.14c0.76-0.89,2.03-1.21,3.2-1.08c1.17,0.12,2.25,0.62,3.32,1.11   L7.476,6.078z"/>
	<path d="M21.769,11.425c-1.111,0-2.262-0.323-3.165-0.576c-4.716-1.302-9.763-1.626-14.596-0.94   c-0.981,0.143-2.203,0.318-3.125-0.358c-0.481-0.358-0.788-0.915-0.865-1.57c-0.09-0.758,0.138-1.548,0.608-2.113   c0.785-0.919,2.105-1.373,3.529-1.212c1.212,0.124,2.319,0.631,3.39,1.121c0.188,0.086,0.294,0.319,0.208,0.507   C7.668,6.472,7.467,6.564,7.28,6.479L7.235,6.458C6.22,5.994,5.17,5.514,4.077,5.401C2.911,5.272,1.812,5.636,1.201,6.352   c-0.333,0.4-0.502,0.992-0.437,1.541C0.817,8.341,1.018,8.715,1.33,8.948c0.672,0.493,1.682,0.348,2.572,0.219   c4.935-0.701,10.087-0.371,14.903,0.96c1.915,0.537,3.877,0.964,5.014-0.183c1.094-1.104,0.669-3.082,0.436-3.881   c-0.554-1.938-1.496-3.443-2.723-4.354c-1.439-1.074-3.376-1.266-4.715-0.469c-1.427,0.854-1.143,3.015-0.629,4.176   c0.084,0.189-0.001,0.411-0.191,0.495c-0.189,0.084-0.411-0.001-0.495-0.191c-0.618-1.396-0.913-4.021,0.93-5.124   c1.592-0.949,3.873-0.739,5.547,0.511c1.361,1.009,2.397,2.651,2.996,4.748c0.335,1.148,0.701,3.279-0.624,4.617   C23.64,11.189,22.72,11.425,21.769,11.425z"/>
	<path d="M7.56,6.528c-0.046,0-0.094-0.011-0.142-0.035c-0.076-0.038-0.15-0.092-0.209-0.152C6.152,5.635,5.804,3.93,6.508,2.666   c0.658-1.156,2.04-1.869,3.533-1.802c1.538,0.074,2.806,0.906,3.6,1.591c0.994,0.847,1.797,1.933,2.506,2.891   c0.124,0.167,0.088,0.401-0.078,0.524c-0.167,0.124-0.402,0.087-0.524-0.078c-0.719-0.971-1.462-1.975-2.392-2.768   c-0.707-0.609-1.824-1.347-3.145-1.411C8.824,1.565,7.673,2.136,7.162,3.034C6.65,3.953,6.894,5.232,7.686,5.767   C7.871,5.86,7.98,6.113,7.887,6.298C7.819,6.436,7.695,6.528,7.56,6.528z"/>
</g>

        </g>
    </g>
</g>

<!-- ITEM 11 -->
<g>
    <defs>
        
        <clipPath id="clip-path-id-viewbox-item-11">
            <rect x="0.0" y="0.0" width="81.3" height="33.7"/>
        </clipPath>
    </defs>
    <g transform="translate(1140.0 272.0) rotate(0.0 163.0 67.5) scale(4.009840098400984 4.00593471810089)">
        <g clip-path="url(#clip-path-id-viewbox-item-11)" transform="translate(-0.0 -0.0)">


<path d="M57.8,17.6L57.8,17.6c4.6-2.7,10-3.8,15.3-3c2.6,0.4,5.6,1.5,6.3,4.1c0.2,0.6,0.2,1.2,0.1,1.8  c-0.8,1.5-3.4,3-5,2.8c-1.7-0.2-3.3-0.9-4.9-1.3c-1.7-0.4-3.6-0.3-4.8,0.9c-0.7,0.7-1.1,1.8-2.1,2.1c-1.8,0.6-3.5-2-5.3-1.6  c-0.9,0.2-1.5,1-2.1,1.7c-0.6,0.7-1.5,1.4-2.4,1.1c-7.3-2.8-14.9-4.6-22.7-5.3l0-0.1c0-1.4,1.3-2.5,2.7-2.8c1.4-0.3,2.8,0,4.2,0  c1.4,0,3-0.4,3.8-1.5c0.6-0.8,0.7-1.9,1.5-2.6c0.9-0.8,2.4-0.5,3.5,0c1.2,0.5,2.4,1.1,3.6,0.8c1.6-0.4,2.3-2.3,3.4-3.6  c1.9-2.2,6.3-2.9,8.3-0.4c0,0.2-0.1,0.5-0.1,0.7C60.4,13.5,59.1,15.6,57.8,17.6z" style="fill:#2D9759;"/>
<path d="M79.5,20.5c-0.3,2-1.8,3.9-3.3,5.4c-2.6,2.6-5.8,5.1-9.5,5.2c-3,0.1-5.7-1.4-8.4-2.7c-1.8-0.9-3.7-1.7-5.6-2.4  c0.9,0.3,1.8-0.4,2.4-1.1c0.6-0.7,1.2-1.5,2.1-1.7c1.9-0.4,3.5,2.3,5.3,1.6c0.9-0.3,1.4-1.4,2.1-2.1c1.2-1.2,3.2-1.3,4.8-0.9  c1.7,0.4,3.2,1.1,4.9,1.3C76.1,23.5,78.8,22,79.5,20.5z" style="fill:#2D9759;"/>
<path d="M30,15l0.1,0c5.3-5.6,12.2-9.8,19.7-12c3.2-0.9,7-1.3,9.4,0.9c1.7,1.6,2.2,4.1,1.9,6.4c-2-2.4-6.4-1.8-8.3,0.4  c-1.1,1.3-1.8,3.2-3.4,3.6c-1.2,0.3-2.4-0.3-3.6-0.8c-1.1-0.5-2.6-0.8-3.5,0c-0.8,0.6-0.9,1.8-1.5,2.6c-0.8,1.1-2.4,1.5-3.8,1.5  c-1.4,0-2.8-0.3-4.2,0c-1.4,0.3-2.8,1.4-2.7,2.8l0,0.1c-6.5-0.6-13-0.4-19.4,0.5c-1-1.8,0.8-3.9,3.4-4.2c1.8-0.2,3.9-0.3,4.8-1.9  c0.8-1.4,0.5-3.9,2.2-4c0.7,0,1.3,0.6,2,0.8c2,0.7,4.2-1.9,4.8-3.9C29.7,9.9,30.7,12.6,30,15z" style="fill:#2D9759;"/>
<path d="M27.8,8.1L27.8,8.1c-0.6,2-2.8,4.6-4.8,3.9c-0.7-0.3-1.3-0.9-2-0.8c-1.6,0.1-1.4,2.6-2.2,4  c-0.9,1.6-3,1.7-4.8,1.9c-2.6,0.4-4.3,2.4-3.4,4.2c-1.5,0.2-3,0.5-4.5,0.8c-2.5,0.7-3.3,0.1-3.9-0.5c-1.1-1.3,1.4-3.4,1.4-3.4  c2.6-2.4,3.5-3.5,5.8-5.7c2.3-2.2,4.7-4.3,7.7-5.5c3-1.2,6.5-1.4,9.2,0.2C26.9,7.4,27.4,7.7,27.8,8.1z" style="fill:#2D9759;"/>
<path d="M66.5,31.6c-2.7,0-5.2-1.2-7.7-2.4l-0.7-0.3c-1.8-0.8-3.6-1.7-5.5-2.4c-7.2-2.8-14.8-4.6-22.6-5.3  c-6.4-0.6-12.9-0.4-19.3,0.5c-1.5,0.2-3,0.5-4.5,0.8c-0.3,0.1-0.5-0.1-0.6-0.4s0.1-0.5,0.4-0.6c1.5-0.3,3.1-0.6,4.5-0.8  c6.4-1,13-1.1,19.5-0.5C38,21,45.7,22.8,53,25.6c1.9,0.8,3.8,1.6,5.6,2.4l0.7,0.3c2.4,1.2,4.9,2.4,7.5,2.3c3.7-0.1,6.8-2.8,9.2-5.1  c1.9-1.9,2.9-3.6,3.1-5.1c0.1-0.6,0-1.1-0.1-1.6c-0.8-2.7-4.4-3.5-5.9-3.7c-5.1-0.7-10.4,0.3-14.9,3c-0.2,0.1-0.5,0.1-0.7-0.2  c-0.1-0.2-0.1-0.5,0.2-0.7c4.7-2.8,10.2-3.9,15.5-3.1c1.7,0.2,5.8,1.2,6.8,4.5c0.2,0.6,0.2,1.3,0.2,2c-0.2,1.7-1.3,3.6-3.4,5.7  c-2.5,2.4-5.8,5.3-9.8,5.4C66.7,31.6,66.6,31.6,66.5,31.6z"/>
<path d="M57.6,18.4c-0.1,0-0.2,0-0.3-0.1c-0.2-0.1-0.3-0.4-0.2-0.7l0.2-0.3c1.4-2.1,2.6-4.1,3.1-6.4c0-0.2,0.1-0.5,0.1-0.7  c0.4-2.4-0.3-4.6-1.7-6c-1.9-1.7-4.9-2-9-0.8c-7.4,2.1-14.1,6.2-19.4,11.8c-0.2,0.2-0.5,0.2-0.7,0c-0.2-0.2-0.2-0.5,0-0.7  C35.2,9,42,4.8,49.6,2.6c4.5-1.3,7.8-0.9,9.9,1c1.7,1.5,2.4,4.1,2,6.8c0,0.2-0.1,0.5-0.1,0.7c-0.6,2.5-1.9,4.6-3.3,6.7L58,18.2  C57.9,18.3,57.8,18.4,57.6,18.4z"/>
<path d="M30.1,21.1c-0.3,0-0.5-0.2-0.5-0.5c0-1.7,1.5-3,3.1-3.3c1-0.2,2-0.2,3-0.1c0.4,0,0.9,0.1,1.3,0.1c0.9,0,2.6-0.2,3.4-1.3  c0.2-0.3,0.4-0.6,0.5-1c0.2-0.6,0.5-1.2,1-1.7c0.9-0.8,2.3-0.8,4-0.1l0.4,0.2c1,0.4,2,0.8,2.9,0.6c1-0.3,1.6-1.2,2.2-2.2  c0.3-0.4,0.6-0.9,0.9-1.3c1.1-1.3,3-2.2,5-2.2c0,0,0,0,0,0c1.7,0,3.1,0.6,4,1.7c0.2,0.2,0.1,0.5-0.1,0.7c-0.2,0.2-0.5,0.1-0.7-0.1  c-0.7-0.9-1.9-1.4-3.2-1.4c0,0,0,0,0,0c-1.6,0-3.3,0.7-4.2,1.8c-0.3,0.4-0.6,0.8-0.9,1.2c-0.7,1.1-1.5,2.2-2.8,2.6  c-1.2,0.3-2.4-0.2-3.5-0.6l-0.4-0.2c-0.8-0.3-2.2-0.7-3,0c-0.3,0.3-0.5,0.8-0.8,1.3c-0.2,0.4-0.3,0.8-0.6,1.2  c-0.8,1.1-2.3,1.7-4.2,1.7c-0.5,0-0.9,0-1.4-0.1c-1-0.1-1.9-0.1-2.8,0.1c-1.1,0.2-2.4,1.1-2.3,2.3C30.6,20.9,30.4,21.1,30.1,21.1  C30.1,21.1,30.1,21.1,30.1,21.1z"/>
<path d="M3.7,18.7c-0.1,0-0.3-0.1-0.4-0.2c-0.2-0.2-0.2-0.5,0-0.7c1.8-1.6,2.8-2.7,3.9-3.9c0.5-0.6,1.1-1.1,1.8-1.9  c2-1.9,4.6-4.3,7.9-5.6c3.4-1.4,7-1.3,9.7,0.2c0.5,0.3,1,0.7,1.5,1.1c0.2,0.2,0.2,0.5,0,0.7c-0.2,0.2-0.5,0.2-0.7,0  c-0.4-0.4-0.8-0.7-1.3-0.9c-2.4-1.4-5.7-1.4-8.8-0.2c-3.1,1.2-5.6,3.6-7.5,5.4c-0.7,0.7-1.3,1.3-1.8,1.8c-1.2,1.2-2.2,2.3-4,3.9  C3.9,18.6,3.8,18.7,3.7,18.7z"/>
<path d="M30,15.7c-0.1,0-0.1,0-0.2,0c-0.3-0.1-0.4-0.4-0.3-0.6c0,0,0,0,0,0c0,0,0-0.1,0-0.1c0.6-2.1-0.2-4.7-2.1-6.4  c-0.2-0.2-0.2-0.5,0-0.7c0.2-0.2,0.5-0.2,0.7,0c2.2,2,3.1,4.9,2.3,7.4c0,0,0,0.1,0,0.2C30.4,15.5,30.2,15.7,30,15.7z"/>
<path d="M4.2,22.9c-1,0-1.7-0.3-2.3-1c-1.3-1.6,1.2-3.8,1.5-4.1c0.2-0.2,0.5-0.2,0.7,0.1c0.2,0.2,0.2,0.5-0.1,0.7  c-0.4,0.4-2,2-1.4,2.7c0.4,0.5,1.1,1,3.4,0.4c0.3-0.1,0.5,0.1,0.6,0.4c0.1,0.3-0.1,0.5-0.4,0.6C5.5,22.8,4.8,22.9,4.2,22.9z"/>
<path d="M53.2,26.6c-0.2,0-0.4,0-0.6-0.1c-0.3-0.1-0.4-0.4-0.3-0.6c0.1-0.3,0.4-0.4,0.6-0.3c0.7,0.3,1.6-0.6,1.9-0.9l0.2-0.3  c0.6-0.7,1.2-1.4,2.2-1.6c1.1-0.2,2.1,0.4,3,0.9c0.9,0.5,1.6,1,2.3,0.7c0.5-0.2,0.8-0.6,1.2-1.1c0.2-0.3,0.4-0.6,0.7-0.8  c1.2-1.1,3.1-1.5,5.3-1c0.7,0.2,1.3,0.4,2,0.6c1,0.3,1.9,0.6,2.9,0.7c1.5,0.2,3.9-1.2,4.5-2.5c0,0,0.1-0.1,0.1-0.1l0.2,0.2l0.6,0.3  l-0.4-0.2l0.5,0.2c0,0,0,0.1,0,0.1c-0.8,1.7-3.7,3.2-5.5,3c-1.1-0.1-2.1-0.4-3.1-0.8c-0.6-0.2-1.3-0.4-1.9-0.6  c-0.9-0.2-3-0.5-4.3,0.7c-0.2,0.2-0.4,0.5-0.6,0.7c-0.4,0.6-0.9,1.2-1.7,1.5c-1.2,0.4-2.2-0.2-3.1-0.8c-0.8-0.5-1.5-0.9-2.3-0.8  c-0.6,0.1-1.1,0.7-1.6,1.3l-0.3,0.3C54.8,26.2,54,26.6,53.2,26.6z"/>
<path d="M10.7,21.8c-0.2,0-0.4-0.1-0.4-0.3c-0.4-0.8-0.4-1.7,0-2.6c0.6-1.2,2.1-2.1,3.7-2.4l0.6-0.1c1.6-0.2,3.2-0.4,3.9-1.6  c0.2-0.4,0.4-1,0.5-1.6c0.3-1.2,0.6-2.6,2.1-2.7c0.6,0,1.1,0.3,1.6,0.5c0.2,0.1,0.4,0.3,0.6,0.3c0.4,0.2,0.9,0.1,1.5-0.2  c1.1-0.6,2.2-2,2.6-3.4c0.1-0.2,0.3-0.4,0.5-0.4c0.3,0,0.5,0.2,0.5,0.5c0,0,0,0.1,0,0.1c-0.4,1.4-1.6,3.2-3.1,4  c-0.8,0.4-1.6,0.5-2.3,0.2c-0.3-0.1-0.6-0.3-0.8-0.4c-0.4-0.2-0.7-0.4-1-0.4c-0.6,0-0.8,0.6-1.1,1.9c-0.2,0.6-0.3,1.3-0.6,1.8  c-0.9,1.6-2.9,1.9-4.6,2.1l-0.6,0.1c-1.3,0.2-2.5,0.9-3,1.8c-0.2,0.4-0.4,1,0,1.7c0.1,0.2,0,0.5-0.2,0.7  C10.8,21.8,10.8,21.8,10.7,21.8z"/>

        </g>
    </g>
</g>

<!-- ITEM 12 -->
<g>
    <defs>
        
        <clipPath id="clip-path-id-viewbox-item-12">
            <rect x="0.0" y="0.0" width="129.38" height="63.966"/>
        </clipPath>
    </defs>
    <g transform="translate(477.0 632.0) rotate(5.9562745509516715 97.0 48.0) scale(1.4994589581078992 1.5007972985648625)">
        <g clip-path="url(#clip-path-id-viewbox-item-12)" transform="translate(-0.0 -0.0)">

<g>
	<path style="fill:#CDE8E3;" d="M75.31,42.895c-0.885,0.244-1.759,0.488-2.644,0.742l-0.61-2.172   c3.125-0.773,6.045-2.41,8.298-4.719c3.955-4.048,5.71-10.347,4.933-15.952l-0.009-0.04c0.573-0.16,1.146-0.329,1.719-0.489   c4.353-1.231,8.716-2.411,13.097-3.561c5.075-1.337,10.16-2.614,15.263-3.831c2.964-0.716,5.937-1.412,8.91-2.087   c3.017,5.126,4.153,11.358,3.804,17.293c-14.778,4.14-29.557,8.29-44.325,12.441C80.93,41.307,78.125,42.096,75.31,42.895z"/>
	<path style="fill:#010101;" d="M106.858,0.125c3.147,4.028,5.999,8.291,8.498,12.748c-5.103,1.217-10.187,2.494-15.263,3.831   l-0.206-0.784C102.189,10.411,104.557,5.624,106.858,0.125z"/>
	<path style="fill:#1E5C9A;" d="M85.286,20.794c0.778,5.605-0.978,11.904-4.933,15.952c-2.253,2.309-5.173,3.946-8.298,4.719   c-2.371,0.577-4.853,0.661-7.244,0.167c-5.55-1.142-10.196-5.237-11.726-10.686l-0.067-0.181c0.252-0.095,0.513-0.181,0.765-0.256   c1.872-0.636,3.744-1.252,5.625-1.857l0.029,0.071c1.124,3.051,4.396,5.741,7.573,6.46c3.177,0.718,6.686-0.268,9.028-2.545   c2.332-2.268,3.102-6.664,2.471-9.866l-0.019-0.05c2.262-0.659,4.525-1.317,6.787-1.966L85.286,20.794z"/>
	<path style="fill:#FF9B19;" d="M62.557,27.629c5-1.599,10.019-3.147,15.048-4.645c0.292-0.085,0.593-0.169,0.885-0.264l0.019,0.05   c0.632,3.202-0.139,7.599-2.471,9.866c-2.342,2.278-5.851,3.263-9.028,2.545c-3.177-0.718-6.449-3.409-7.573-6.46l-0.029-0.071   C60.454,28.3,61.511,27.96,62.557,27.629z M74.204,30.072c0.723-1.807-0.677-4.013-2.579-4.438   c-1.893-0.425-3.924,0.708-4.895,2.391c-1.205,2.998,1.579,4.46,3.569,4.436C71.76,32.438,73.701,31.303,74.204,30.072z"/>
	<path style="fill:#010101;" d="M77.586,22.903l0.019,0.08c-5.028,1.498-10.047,3.047-15.048,4.645   c1.632-4.491,2.786-8.5,4.066-12.318c0.54-1.66,1.11-3.28,1.75-4.889C71.631,14.393,74.671,18.779,77.586,22.903z"/>
	<path style="fill:#E64337;" d="M71.625,25.634c1.903,0.425,3.302,2.631,2.579,4.438c-0.503,1.231-2.444,2.366-3.904,2.389   c-1.991,0.024-4.774-1.438-3.569-4.436C67.701,26.343,69.732,25.21,71.625,25.634z"/>
	<path style="fill:#CDE8E3;" d="M35.12,37.028c5.941-2.172,11.91-4.263,17.898-6.263l0.067,0.181   c1.531,5.449,6.176,9.545,11.726,10.686c2.391,0.494,4.873,0.409,7.244-0.167l0.61,2.172c-2.885,0.807-5.781,1.624-8.666,2.432   C44.245,51.618,24.49,57.177,4.715,62.716c-1.537-3.989-2.692-8.121-3.465-12.325c6.784-2.876,13.606-5.652,20.466-8.317   C26.168,40.345,30.64,38.666,35.12,37.028z"/>
	<path style="fill:#010101;" d="M25.398,26.158c3.383,3.673,6.359,7.198,9.723,10.87c-4.481,1.638-8.952,3.317-13.405,5.046l0-0.01   C22.674,36.7,23.902,31.392,25.398,26.158z"/>
	<path d="M1.251,51.641c-0.487,0-0.95-0.286-1.151-0.763c-0.27-0.635,0.027-1.369,0.662-1.639   c6.848-2.903,13.745-5.706,20.501-8.331c4.268-1.657,8.786-3.357,13.43-5.054c6.001-2.194,12.033-4.305,17.93-6.275   c0.234-0.089,0.523-0.185,0.804-0.268c1.834-0.624,3.711-1.242,5.6-1.85c1.039-0.348,2.102-0.691,3.155-1.024   c4.934-1.577,10.004-3.143,15.066-4.651l0.168-0.048c0.229-0.066,0.463-0.133,0.689-0.207c2.3-0.67,4.563-1.33,6.828-1.979   l1.729-0.491c4.126-1.166,8.418-2.333,13.114-3.565c5.081-1.339,10.226-2.63,15.29-3.838c2.966-0.716,5.944-1.413,8.922-2.09   c0.679-0.157,1.343,0.269,1.496,0.942s-0.269,1.343-0.941,1.496c-2.968,0.675-5.935,1.369-8.893,2.083   c-5.05,1.205-10.175,2.491-15.238,3.825c-4.683,1.229-8.96,2.392-13.076,3.556l-1.724,0.489c-2.251,0.646-4.513,1.304-6.772,1.962   c-0.218,0.071-0.478,0.146-0.734,0.22l-0.153,0.044c-5.038,1.501-10.093,3.062-15.014,4.635c-1.044,0.331-2.093,0.669-3.134,1.018   c-1.889,0.608-3.754,1.222-5.619,1.855c-0.269,0.081-0.501,0.157-0.726,0.242c-5.92,1.979-11.931,4.083-17.91,6.268   c-4.627,1.692-9.13,3.387-13.382,5.037c-6.732,2.615-13.605,5.409-20.43,8.302C1.579,51.609,1.413,51.641,1.251,51.641z"/>
	<path d="M4.715,63.967c-0.502,0-0.975-0.305-1.166-0.801c-1.549-4.017-2.736-8.239-3.529-12.549   c-0.125-0.679,0.324-1.331,1.003-1.456c0.694-0.126,1.331,0.325,1.456,1.003c0.765,4.158,1.909,8.23,3.402,12.102   c0.249,0.644-0.072,1.368-0.716,1.616C5.017,63.939,4.865,63.967,4.715,63.967z"/>
	<path d="M4.714,63.967c-0.546,0-1.048-0.361-1.203-0.913c-0.186-0.665,0.202-1.355,0.867-1.541   c14.181-3.972,28.352-7.955,42.519-11.937l25.432-7.143c0.881-0.253,1.76-0.499,2.648-0.743c2.808-0.797,5.613-1.585,8.431-2.375   c14.768-4.15,29.546-8.301,44.325-12.441c0.655-0.187,1.354,0.201,1.541,0.866c0.186,0.665-0.202,1.355-0.867,1.541   c-14.777,4.14-29.556,8.291-44.324,12.441c-2.814,0.788-5.618,1.577-8.433,2.375c-0.888,0.245-1.759,0.488-2.64,0.741   l-25.437,7.144c-14.168,3.982-28.34,7.965-42.521,11.938C4.94,63.952,4.827,63.967,4.714,63.967z"/>
	<path d="M128.071,29.328c-0.024,0-0.049,0-0.074-0.002c-0.689-0.041-1.215-0.632-1.175-1.321   c0.358-6.104-0.932-11.994-3.634-16.585c-0.351-0.595-0.151-1.361,0.443-1.711c0.595-0.349,1.361-0.152,1.711,0.443   c2.951,5.014,4.362,11.406,3.976,18C129.279,28.815,128.728,29.328,128.071,29.328z"/>
	<path d="M21.715,42.189c-0.007,0-0.015,0-0.022-0.002c-0.067-0.012-0.112-0.077-0.101-0.145c0.958-5.36,2.198-10.716,3.686-15.917   c0.013-0.043,0.047-0.077,0.091-0.087c0.043-0.013,0.091,0.003,0.121,0.037c1.755,1.904,3.428,3.801,5.045,5.634   c1.504,1.705,3.059,3.467,4.678,5.235l0.087,0.09c0.047,0.05,0.045,0.129-0.005,0.177c-0.048,0.049-0.129,0.045-0.177-0.004   l-0.088-0.092c-1.622-1.771-3.178-3.535-4.683-5.241c-1.57-1.78-3.192-3.619-4.891-5.466C24,31.534,22.783,36.807,21.838,42.086   C21.828,42.146,21.775,42.189,21.715,42.189z"/>
	<path d="M62.525,27.843c-0.014,0-0.028-0.002-0.042-0.007c-0.065-0.023-0.099-0.095-0.075-0.16l0.032-0.089   c1.036-2.853,1.875-5.497,2.687-8.053c0.469-1.477,0.911-2.872,1.378-4.262c0.593-1.819,1.166-3.42,1.752-4.896   c0.017-0.041,0.054-0.07,0.097-0.077c0.044-0.008,0.088,0.01,0.116,0.044c2.917,3.555,5.649,7.429,8.292,11.176l0.927,1.312   c0.039,0.057,0.026,0.134-0.03,0.174c-0.058,0.039-0.135,0.026-0.175-0.03l-0.926-1.313c-2.6-3.685-5.285-7.494-8.146-10.997   c-0.558,1.416-1.104,2.95-1.669,4.684c-0.466,1.39-0.908,2.784-1.377,4.26c-0.812,2.559-1.651,5.204-2.69,8.062l-0.032,0.089   C62.625,27.811,62.576,27.843,62.525,27.843z"/>
	<path d="M99.887,16.045c-0.017,0-0.032-0.003-0.048-0.01c-0.064-0.026-0.094-0.1-0.067-0.164c1.158-2.771,2.352-5.403,3.507-7.948   c1.141-2.515,2.32-5.115,3.464-7.847c0.017-0.041,0.055-0.07,0.099-0.076c0.044-0.003,0.087,0.012,0.115,0.047   c3.175,4.065,6.035,8.355,8.501,12.751c0.021,0.024,0.033,0.054,0.033,0.084c0.001,0.106-0.153,0.158-0.221,0.081   c-0.009-0.009-0.017-0.019-0.023-0.03c-2.428-4.329-5.238-8.554-8.356-12.563c-1.119,2.664-2.27,5.201-3.384,7.657   c-1.154,2.543-2.347,5.173-3.504,7.942C99.983,16.016,99.936,16.045,99.887,16.045z"/>
	<path d="M68.01,42.328c-1.113,0-2.213-0.109-3.275-0.329c-5.761-1.185-10.476-5.484-12.012-10.952   c-0.056-0.2,0.061-0.407,0.26-0.462c0.204-0.057,0.406,0.061,0.463,0.259c1.46,5.201,5.951,9.291,11.44,10.42   c2.268,0.468,4.714,0.412,7.08-0.165c3.071-0.759,5.955-2.399,8.118-4.616c3.723-3.811,5.619-9.949,4.83-15.639   c-0.028-0.206,0.114-0.395,0.319-0.423c0.213-0.024,0.396,0.116,0.423,0.32c0.82,5.911-1.156,12.295-5.035,16.266   c-2.26,2.316-5.271,4.028-8.477,4.821C70.778,42.161,69.384,42.328,68.01,42.328z"/>
	<path d="M69.077,35.784c-0.725,0-1.446-0.077-2.15-0.236c-3.396-0.768-6.694-3.583-7.842-6.695   c-0.072-0.194,0.027-0.41,0.222-0.482c0.196-0.069,0.411,0.029,0.481,0.222c1.049,2.844,4.189,5.52,7.305,6.224   c3.036,0.688,6.448-0.274,8.684-2.448c2.313-2.249,2.944-6.586,2.364-9.525c-0.04-0.203,0.093-0.4,0.296-0.44   c0.207-0.042,0.4,0.092,0.44,0.295c0.618,3.133-0.075,7.775-2.577,10.208C74.404,34.748,71.727,35.784,69.077,35.784z"/>
	<path d="M70.252,32.587c-1.178,0-2.692-0.501-3.466-1.631c-0.564-0.824-0.624-1.854-0.173-2.977   c0.002-0.006,0.005-0.011,0.008-0.016c1.06-1.836,3.178-2.866,5.03-2.45c1.018,0.227,1.937,0.954,2.458,1.943   c0.461,0.874,0.537,1.845,0.21,2.663c-0.507,1.244-2.46,2.443-4.019,2.468C70.286,32.586,70.269,32.587,70.252,32.587z    M66.842,28.08c-0.421,1.053-0.37,1.973,0.15,2.734c0.719,1.05,2.185,1.522,3.263,1.522c0.014,0,0.028,0,0.042,0   c1.447-0.023,3.324-1.168,3.79-2.312c0.305-0.76,0.234-1.631-0.198-2.453c-0.488-0.925-1.345-1.604-2.292-1.815   C69.85,25.364,67.851,26.341,66.842,28.08z"/>
</g>

        </g>
    </g>
</g>

<!-- ITEM 13 -->
<g>
    <defs>
        
        <clipPath id="clip-path-id-viewbox-item-13">
            <rect x="0.0" y="0.0" width="107.4" height="112.7"/>
        </clipPath>
    </defs>
    <g transform="translate(467.0 732.0) rotate(302.8869534341281 109.0 -114.5) scale(2.0297951582867784 -2.0319432120674357)">
        <g clip-path="url(#clip-path-id-viewbox-item-13)" transform="translate(-0.0 -0.0)">


<path d="M102.8,8.6c1.9,4.2-0.4,9.2-3.6,12.6C96,24.5,92,27,89.1,30.7c-2.8,3.7-4,9.3-1,12.7c1.8,2.1,4.8,2.9,6.5,5.1  c2.7,3.4,1,8.8-2.5,11.5c-3.5,2.7-7.1,1.3-11.4,1.7c-3.3,0.3-7.7,1.4-7.8,4.8c-0.1,1.7,0.8,3.3,1.7,4.8c3.5,6.1,1.5,11.6-6.1,13.1  c-5.2,1-19.7-3.7-15.9,2.8c4.9,8.3-1.2,17.7-15.9,13.1c-11.7-3.6-6.3,5.3-16.8,6.5c-3.6,0.4-10.4,0.9-12.8-2.6c-3.4-5,3.8-7,7.5-9.6  c9-6.3,16.7-14.1,24.4-21.9c16.8-16.9,28.1-37.8,38.5-55.1c2.8-4.7,5.9-9.7,10.8-12.3C93.3,2.6,100.5,3.6,102.8,8.6z" style="fill:#F6B855;"/>
<path d="M15.5,108c-3.6,0-7.4-0.7-9.2-3.3c-0.9-1.4-1.3-2.7-1-3.9c0.6-2.5,3.3-4,6-5.4c1-0.6,1.9-1.1,2.7-1.6  c8.4-5.9,15.8-13.3,23-20.5l1.3-1.3c14.4-14.4,24.8-32,34-47.6c1.5-2.5,2.9-5,4.4-7.4c2.6-4.4,5.9-9.9,11.2-12.7  c3.1-1.6,7-2,10.3-0.8c2.6,0.9,4.5,2.5,5.5,4.8c2.2,4.8-0.5,10.2-3.8,13.7c-1.4,1.5-2.9,2.8-4.4,4c-2.1,1.7-4,3.4-5.6,5.4  c-2.5,3.3-3.7,8.4-1,11.5c0.8,0.9,1.8,1.5,2.9,2.2c1.3,0.8,2.6,1.6,3.6,2.9c1.2,1.6,1.8,3.5,1.5,5.7c-0.3,2.7-1.9,5.5-4.1,7.2  c-2.7,2.1-5.4,1.9-8.2,1.8c-1.2,0-2.4-0.1-3.7,0c-2,0.2-6.8,0.9-6.9,3.8c-0.1,1.4,0.8,2.9,1.5,4.2c1.9,3.3,2.3,6.6,1.1,9.3  c-1.2,2.7-3.9,4.5-7.9,5.3c-1.9,0.4-4.7,0.1-7.7-0.3c-2.7-0.3-7.3-0.8-7.9,0.1c-0.1,0.1-0.1,0.6,0.4,1.4c2.4,4.2,2.4,8.7-0.1,11.9  c-3.2,4-9.4,5-16.9,2.7c-5.7-1.8-6.7-0.4-8.1,1.6c-1.4,1.9-3.1,4.3-8.3,4.9C18.7,107.9,17.1,108,15.5,108z M94.1,4.8  c-1.8,0-3.7,0.4-5.3,1.3c-4.8,2.5-7.8,7.5-10.4,11.9c0,0,0,0,0,0c-1.4,2.4-2.9,4.9-4.4,7.4c-9.2,15.6-19.7,33.3-34.3,48l-1.3,1.3  c-7.2,7.2-14.7,14.7-23.2,20.7c-0.9,0.6-1.9,1.2-2.9,1.7c-2.2,1.2-4.6,2.6-5,4.2c-0.2,0.7,0.1,1.5,0.7,2.3c2.3,3.3,9.5,2.5,11.9,2.2  c4.3-0.5,5.6-2.3,6.9-4.1c2-2.8,3.8-4.4,10.4-2.4c6.6,2.1,12.2,1.3,14.8-2c2-2.5,2-6.2,0-9.6c-0.9-1.4-1-2.6-0.4-3.5  c1.2-1.9,5.2-1.5,9.8-1c2.7,0.3,5.5,0.6,7.1,0.3c3.3-0.6,5.5-2.1,6.4-4.2c0.9-2.1,0.6-4.7-1-7.5c-0.8-1.5-1.9-3.3-1.8-5.3  c0.2-3.2,3.3-5.2,8.7-5.7c1.4-0.1,2.7-0.1,4,0c2.7,0.1,4.8,0.2,6.9-1.4c1.8-1.4,3.1-3.6,3.4-5.9c0.1-1.1,0.1-2.8-1.1-4.3  c-0.8-1-1.9-1.7-3.1-2.4c-1.2-0.7-2.4-1.5-3.4-2.6c-3.5-3.9-2.2-10,0.9-14c1.7-2.2,3.8-4,5.9-5.7c1.5-1.2,3-2.5,4.3-3.9  c2.7-2.8,5.2-7.5,3.4-11.5c-1-2.2-2.9-3.2-4.3-3.7C96.5,4.9,95.3,4.8,94.1,4.8z M77.6,17.4L77.6,17.4L77.6,17.4z"/>

        </g>
    </g>
</g>

              </svg>